%TF.GenerationSoftware,KiCad,Pcbnew,(5.1.6)-1*%
%TF.CreationDate,2020-12-10T00:03:04+01:00*%
%TF.ProjectId,06_I2C_2_NEOPIXELS,30365f49-3243-45f3-925f-4e454f504958,rev?*%
%TF.SameCoordinates,Original*%
%TF.FileFunction,Legend,Bot*%
%TF.FilePolarity,Positive*%
%FSLAX46Y46*%
G04 Gerber Fmt 4.6, Leading zero omitted, Abs format (unit mm)*
G04 Created by KiCad (PCBNEW (5.1.6)-1) date 2020-12-10 00:03:04*
%MOMM*%
%LPD*%
G01*
G04 APERTURE LIST*
%ADD10C,0.150000*%
%ADD11C,0.120000*%
%TA.AperFunction,Profile*%
%ADD12C,0.150000*%
%TD*%
%ADD13C,0.300000*%
%ADD14C,0.100000*%
G04 APERTURE END LIST*
D10*
X117261904Y-75500000D02*
X117357142Y-75452380D01*
X117500000Y-75452380D01*
X117642857Y-75500000D01*
X117738095Y-75595238D01*
X117785714Y-75690476D01*
X117833333Y-75880952D01*
X117833333Y-76023809D01*
X117785714Y-76214285D01*
X117738095Y-76309523D01*
X117642857Y-76404761D01*
X117500000Y-76452380D01*
X117404761Y-76452380D01*
X117261904Y-76404761D01*
X117214285Y-76357142D01*
X117214285Y-76023809D01*
X117404761Y-76023809D01*
X116785714Y-76452380D02*
X116785714Y-75452380D01*
X116214285Y-76452380D01*
X116214285Y-75452380D01*
X115738095Y-76452380D02*
X115738095Y-75452380D01*
X115500000Y-75452380D01*
X115357142Y-75500000D01*
X115261904Y-75595238D01*
X115214285Y-75690476D01*
X115166666Y-75880952D01*
X115166666Y-76023809D01*
X115214285Y-76214285D01*
X115261904Y-76309523D01*
X115357142Y-76404761D01*
X115500000Y-76452380D01*
X115738095Y-76452380D01*
X117190476Y-72952380D02*
X117666666Y-72952380D01*
X117714285Y-73428571D01*
X117666666Y-73380952D01*
X117571428Y-73333333D01*
X117333333Y-73333333D01*
X117238095Y-73380952D01*
X117190476Y-73428571D01*
X117142857Y-73523809D01*
X117142857Y-73761904D01*
X117190476Y-73857142D01*
X117238095Y-73904761D01*
X117333333Y-73952380D01*
X117571428Y-73952380D01*
X117666666Y-73904761D01*
X117714285Y-73857142D01*
X116857142Y-72952380D02*
X116523809Y-73952380D01*
X116190476Y-72952380D01*
X117690476Y-71404761D02*
X117547619Y-71452380D01*
X117309523Y-71452380D01*
X117214285Y-71404761D01*
X117166666Y-71357142D01*
X117119047Y-71261904D01*
X117119047Y-71166666D01*
X117166666Y-71071428D01*
X117214285Y-71023809D01*
X117309523Y-70976190D01*
X117500000Y-70928571D01*
X117595238Y-70880952D01*
X117642857Y-70833333D01*
X117690476Y-70738095D01*
X117690476Y-70642857D01*
X117642857Y-70547619D01*
X117595238Y-70500000D01*
X117500000Y-70452380D01*
X117261904Y-70452380D01*
X117119047Y-70500000D01*
X116119047Y-71357142D02*
X116166666Y-71404761D01*
X116309523Y-71452380D01*
X116404761Y-71452380D01*
X116547619Y-71404761D01*
X116642857Y-71309523D01*
X116690476Y-71214285D01*
X116738095Y-71023809D01*
X116738095Y-70880952D01*
X116690476Y-70690476D01*
X116642857Y-70595238D01*
X116547619Y-70500000D01*
X116404761Y-70452380D01*
X116309523Y-70452380D01*
X116166666Y-70500000D01*
X116119047Y-70547619D01*
X115214285Y-71452380D02*
X115690476Y-71452380D01*
X115690476Y-70452380D01*
X117714285Y-68904761D02*
X117571428Y-68952380D01*
X117333333Y-68952380D01*
X117238095Y-68904761D01*
X117190476Y-68857142D01*
X117142857Y-68761904D01*
X117142857Y-68666666D01*
X117190476Y-68571428D01*
X117238095Y-68523809D01*
X117333333Y-68476190D01*
X117523809Y-68428571D01*
X117619047Y-68380952D01*
X117666666Y-68333333D01*
X117714285Y-68238095D01*
X117714285Y-68142857D01*
X117666666Y-68047619D01*
X117619047Y-68000000D01*
X117523809Y-67952380D01*
X117285714Y-67952380D01*
X117142857Y-68000000D01*
X116714285Y-68952380D02*
X116714285Y-67952380D01*
X116476190Y-67952380D01*
X116333333Y-68000000D01*
X116238095Y-68095238D01*
X116190476Y-68190476D01*
X116142857Y-68380952D01*
X116142857Y-68523809D01*
X116190476Y-68714285D01*
X116238095Y-68809523D01*
X116333333Y-68904761D01*
X116476190Y-68952380D01*
X116714285Y-68952380D01*
X115761904Y-68666666D02*
X115285714Y-68666666D01*
X115857142Y-68952380D02*
X115523809Y-67952380D01*
X115190476Y-68952380D01*
D11*
X155000000Y-85000000D02*
X155000000Y-65000000D01*
X110000000Y-85000000D02*
X155000000Y-85000000D01*
D12*
X160000000Y-55000000D02*
G75*
G02*
X165000000Y-60000000I0J-5000000D01*
G01*
D11*
X110000000Y-65000000D02*
X110000000Y-85000000D01*
X155000000Y-65000000D02*
X110000000Y-65000000D01*
D12*
X165000000Y-90000000D02*
G75*
G02*
X160000000Y-95000000I-5000000J0D01*
G01*
X105000000Y-95000000D02*
G75*
G02*
X100000000Y-90000000I0J5000000D01*
G01*
X100000000Y-60000000D02*
G75*
G02*
X105000000Y-55000000I5000000J0D01*
G01*
X100000000Y-90000000D02*
X100000000Y-60000000D01*
X160000000Y-95000000D02*
X105000000Y-95000000D01*
X165000000Y-60000000D02*
X165000000Y-90000000D01*
X105000000Y-55000000D02*
X160000000Y-55000000D01*
D13*
X150321428Y-88178571D02*
X150321428Y-86678571D01*
X149678571Y-86821428D02*
X149607142Y-86750000D01*
X149464285Y-86678571D01*
X149107142Y-86678571D01*
X148964285Y-86750000D01*
X148892857Y-86821428D01*
X148821428Y-86964285D01*
X148821428Y-87107142D01*
X148892857Y-87321428D01*
X149750000Y-88178571D01*
X148821428Y-88178571D01*
X147321428Y-88035714D02*
X147392857Y-88107142D01*
X147607142Y-88178571D01*
X147750000Y-88178571D01*
X147964285Y-88107142D01*
X148107142Y-87964285D01*
X148178571Y-87821428D01*
X148250000Y-87535714D01*
X148250000Y-87321428D01*
X148178571Y-87035714D01*
X148107142Y-86892857D01*
X147964285Y-86750000D01*
X147750000Y-86678571D01*
X147607142Y-86678571D01*
X147392857Y-86750000D01*
X147321428Y-86821428D01*
X147035714Y-88321428D02*
X145892857Y-88321428D01*
X145607142Y-86821428D02*
X145535714Y-86750000D01*
X145392857Y-86678571D01*
X145035714Y-86678571D01*
X144892857Y-86750000D01*
X144821428Y-86821428D01*
X144750000Y-86964285D01*
X144750000Y-87107142D01*
X144821428Y-87321428D01*
X145678571Y-88178571D01*
X144750000Y-88178571D01*
X144464285Y-88321428D02*
X143321428Y-88321428D01*
X142964285Y-88178571D02*
X142964285Y-86678571D01*
X142107142Y-88178571D01*
X142107142Y-86678571D01*
X141392857Y-87392857D02*
X140892857Y-87392857D01*
X140678571Y-88178571D02*
X141392857Y-88178571D01*
X141392857Y-86678571D01*
X140678571Y-86678571D01*
X139750000Y-86678571D02*
X139464285Y-86678571D01*
X139321428Y-86750000D01*
X139178571Y-86892857D01*
X139107142Y-87178571D01*
X139107142Y-87678571D01*
X139178571Y-87964285D01*
X139321428Y-88107142D01*
X139464285Y-88178571D01*
X139750000Y-88178571D01*
X139892857Y-88107142D01*
X140035714Y-87964285D01*
X140107142Y-87678571D01*
X140107142Y-87178571D01*
X140035714Y-86892857D01*
X139892857Y-86750000D01*
X139750000Y-86678571D01*
X138464285Y-88178571D02*
X138464285Y-86678571D01*
X137892857Y-86678571D01*
X137750000Y-86750000D01*
X137678571Y-86821428D01*
X137607142Y-86964285D01*
X137607142Y-87178571D01*
X137678571Y-87321428D01*
X137750000Y-87392857D01*
X137892857Y-87464285D01*
X138464285Y-87464285D01*
X136964285Y-88178571D02*
X136964285Y-86678571D01*
X136392857Y-86678571D02*
X135392857Y-88178571D01*
X135392857Y-86678571D02*
X136392857Y-88178571D01*
X134821428Y-87392857D02*
X134321428Y-87392857D01*
X134107142Y-88178571D02*
X134821428Y-88178571D01*
X134821428Y-86678571D01*
X134107142Y-86678571D01*
X132750000Y-88178571D02*
X133464285Y-88178571D01*
X133464285Y-86678571D01*
X132321428Y-88107142D02*
X132107142Y-88178571D01*
X131750000Y-88178571D01*
X131607142Y-88107142D01*
X131535714Y-88035714D01*
X131464285Y-87892857D01*
X131464285Y-87750000D01*
X131535714Y-87607142D01*
X131607142Y-87535714D01*
X131750000Y-87464285D01*
X132035714Y-87392857D01*
X132178571Y-87321428D01*
X132250000Y-87250000D01*
X132321428Y-87107142D01*
X132321428Y-86964285D01*
X132250000Y-86821428D01*
X132178571Y-86750000D01*
X132035714Y-86678571D01*
X131678571Y-86678571D01*
X131464285Y-86750000D01*
X128607142Y-86821428D02*
X128535714Y-86750000D01*
X128392857Y-86678571D01*
X128035714Y-86678571D01*
X127892857Y-86750000D01*
X127821428Y-86821428D01*
X127750000Y-86964285D01*
X127750000Y-87107142D01*
X127821428Y-87321428D01*
X128678571Y-88178571D01*
X127750000Y-88178571D01*
X126821428Y-86678571D02*
X126678571Y-86678571D01*
X126535714Y-86750000D01*
X126464285Y-86821428D01*
X126392857Y-86964285D01*
X126321428Y-87250000D01*
X126321428Y-87607142D01*
X126392857Y-87892857D01*
X126464285Y-88035714D01*
X126535714Y-88107142D01*
X126678571Y-88178571D01*
X126821428Y-88178571D01*
X126964285Y-88107142D01*
X127035714Y-88035714D01*
X127107142Y-87892857D01*
X127178571Y-87607142D01*
X127178571Y-87250000D01*
X127107142Y-86964285D01*
X127035714Y-86821428D01*
X126964285Y-86750000D01*
X126821428Y-86678571D01*
X125750000Y-86821428D02*
X125678571Y-86750000D01*
X125535714Y-86678571D01*
X125178571Y-86678571D01*
X125035714Y-86750000D01*
X124964285Y-86821428D01*
X124892857Y-86964285D01*
X124892857Y-87107142D01*
X124964285Y-87321428D01*
X125821428Y-88178571D01*
X124892857Y-88178571D01*
X123964285Y-86678571D02*
X123821428Y-86678571D01*
X123678571Y-86750000D01*
X123607142Y-86821428D01*
X123535714Y-86964285D01*
X123464285Y-87250000D01*
X123464285Y-87607142D01*
X123535714Y-87892857D01*
X123607142Y-88035714D01*
X123678571Y-88107142D01*
X123821428Y-88178571D01*
X123964285Y-88178571D01*
X124107142Y-88107142D01*
X124178571Y-88035714D01*
X124250000Y-87892857D01*
X124321428Y-87607142D01*
X124321428Y-87250000D01*
X124250000Y-86964285D01*
X124178571Y-86821428D01*
X124107142Y-86750000D01*
X123964285Y-86678571D01*
X121750000Y-86607142D02*
X123035714Y-88535714D01*
X120464285Y-88178571D02*
X121321428Y-88178571D01*
X120892857Y-88178571D02*
X120892857Y-86678571D01*
X121035714Y-86892857D01*
X121178571Y-87035714D01*
X121321428Y-87107142D01*
X119892857Y-86821428D02*
X119821428Y-86750000D01*
X119678571Y-86678571D01*
X119321428Y-86678571D01*
X119178571Y-86750000D01*
X119107142Y-86821428D01*
X119035714Y-86964285D01*
X119035714Y-87107142D01*
X119107142Y-87321428D01*
X119964285Y-88178571D01*
X119035714Y-88178571D01*
X117321428Y-86607142D02*
X118607142Y-88535714D01*
X116535714Y-86678571D02*
X116392857Y-86678571D01*
X116250000Y-86750000D01*
X116178571Y-86821428D01*
X116107142Y-86964285D01*
X116035714Y-87250000D01*
X116035714Y-87607142D01*
X116107142Y-87892857D01*
X116178571Y-88035714D01*
X116250000Y-88107142D01*
X116392857Y-88178571D01*
X116535714Y-88178571D01*
X116678571Y-88107142D01*
X116750000Y-88035714D01*
X116821428Y-87892857D01*
X116892857Y-87607142D01*
X116892857Y-87250000D01*
X116821428Y-86964285D01*
X116750000Y-86821428D01*
X116678571Y-86750000D01*
X116535714Y-86678571D01*
X115321428Y-88178571D02*
X115035714Y-88178571D01*
X114892857Y-88107142D01*
X114821428Y-88035714D01*
X114678571Y-87821428D01*
X114607142Y-87535714D01*
X114607142Y-86964285D01*
X114678571Y-86821428D01*
X114750000Y-86750000D01*
X114892857Y-86678571D01*
X115178571Y-86678571D01*
X115321428Y-86750000D01*
X115392857Y-86821428D01*
X115464285Y-86964285D01*
X115464285Y-87321428D01*
X115392857Y-87464285D01*
X115321428Y-87535714D01*
X115178571Y-87607142D01*
X114892857Y-87607142D01*
X114750000Y-87535714D01*
X114678571Y-87464285D01*
X114607142Y-87321428D01*
D14*
X147466666Y-75800000D02*
X147400000Y-75833333D01*
X147300000Y-75833333D01*
X147200000Y-75800000D01*
X147133333Y-75733333D01*
X147100000Y-75666666D01*
X147066666Y-75533333D01*
X147066666Y-75433333D01*
X147100000Y-75300000D01*
X147133333Y-75233333D01*
X147200000Y-75166666D01*
X147300000Y-75133333D01*
X147366666Y-75133333D01*
X147466666Y-75166666D01*
X147500000Y-75200000D01*
X147500000Y-75433333D01*
X147366666Y-75433333D01*
X147800000Y-75133333D02*
X147800000Y-75833333D01*
X148200000Y-75133333D01*
X148200000Y-75833333D01*
X148533333Y-75133333D02*
X148533333Y-75833333D01*
X148700000Y-75833333D01*
X148800000Y-75800000D01*
X148866666Y-75733333D01*
X148900000Y-75666666D01*
X148933333Y-75533333D01*
X148933333Y-75433333D01*
X148900000Y-75300000D01*
X148866666Y-75233333D01*
X148800000Y-75166666D01*
X148700000Y-75133333D01*
X148533333Y-75133333D01*
X147100000Y-73100000D02*
X147633333Y-73100000D01*
X147366666Y-72833333D02*
X147366666Y-73366666D01*
X148300000Y-73533333D02*
X147966666Y-73533333D01*
X147933333Y-73200000D01*
X147966666Y-73233333D01*
X148033333Y-73266666D01*
X148200000Y-73266666D01*
X148266666Y-73233333D01*
X148300000Y-73200000D01*
X148333333Y-73133333D01*
X148333333Y-72966666D01*
X148300000Y-72900000D01*
X148266666Y-72866666D01*
X148200000Y-72833333D01*
X148033333Y-72833333D01*
X147966666Y-72866666D01*
X147933333Y-72900000D01*
X148533333Y-73533333D02*
X148766666Y-72833333D01*
X149000000Y-73533333D01*
X147466666Y-70566666D02*
X147566666Y-70533333D01*
X147733333Y-70533333D01*
X147800000Y-70566666D01*
X147833333Y-70600000D01*
X147866666Y-70666666D01*
X147866666Y-70733333D01*
X147833333Y-70800000D01*
X147800000Y-70833333D01*
X147733333Y-70866666D01*
X147600000Y-70900000D01*
X147533333Y-70933333D01*
X147500000Y-70966666D01*
X147466666Y-71033333D01*
X147466666Y-71100000D01*
X147500000Y-71166666D01*
X147533333Y-71200000D01*
X147600000Y-71233333D01*
X147766666Y-71233333D01*
X147866666Y-71200000D01*
X148300000Y-71233333D02*
X148366666Y-71233333D01*
X148433333Y-71200000D01*
X148466666Y-71166666D01*
X148500000Y-71100000D01*
X148533333Y-70966666D01*
X148533333Y-70800000D01*
X148500000Y-70666666D01*
X148466666Y-70600000D01*
X148433333Y-70566666D01*
X148366666Y-70533333D01*
X148300000Y-70533333D01*
X148233333Y-70566666D01*
X148200000Y-70600000D01*
X148166666Y-70666666D01*
X148133333Y-70800000D01*
X148133333Y-70966666D01*
X148166666Y-71100000D01*
X148200000Y-71166666D01*
X148233333Y-71200000D01*
X148300000Y-71233333D01*
X146616666Y-68233333D02*
X146616666Y-68933333D01*
X146616666Y-68666666D02*
X146683333Y-68700000D01*
X146816666Y-68700000D01*
X146883333Y-68666666D01*
X146916666Y-68633333D01*
X146950000Y-68566666D01*
X146950000Y-68366666D01*
X146916666Y-68300000D01*
X146883333Y-68266666D01*
X146816666Y-68233333D01*
X146683333Y-68233333D01*
X146616666Y-68266666D01*
X147550000Y-68233333D02*
X147550000Y-68600000D01*
X147516666Y-68666666D01*
X147450000Y-68700000D01*
X147316666Y-68700000D01*
X147250000Y-68666666D01*
X147550000Y-68266666D02*
X147483333Y-68233333D01*
X147316666Y-68233333D01*
X147250000Y-68266666D01*
X147216666Y-68333333D01*
X147216666Y-68400000D01*
X147250000Y-68466666D01*
X147316666Y-68500000D01*
X147483333Y-68500000D01*
X147550000Y-68533333D01*
X148183333Y-68266666D02*
X148116666Y-68233333D01*
X147983333Y-68233333D01*
X147916666Y-68266666D01*
X147883333Y-68300000D01*
X147850000Y-68366666D01*
X147850000Y-68566666D01*
X147883333Y-68633333D01*
X147916666Y-68666666D01*
X147983333Y-68700000D01*
X148116666Y-68700000D01*
X148183333Y-68666666D01*
X148483333Y-68233333D02*
X148483333Y-68933333D01*
X148550000Y-68500000D02*
X148750000Y-68233333D01*
X148750000Y-68700000D02*
X148483333Y-68433333D01*
X149183333Y-68933333D02*
X149250000Y-68933333D01*
X149316666Y-68900000D01*
X149350000Y-68866666D01*
X149383333Y-68800000D01*
X149416666Y-68666666D01*
X149416666Y-68500000D01*
X149383333Y-68366666D01*
X149350000Y-68300000D01*
X149316666Y-68266666D01*
X149250000Y-68233333D01*
X149183333Y-68233333D01*
X149116666Y-68266666D01*
X149083333Y-68300000D01*
X149050000Y-68366666D01*
X149016666Y-68500000D01*
X149016666Y-68666666D01*
X149050000Y-68800000D01*
X149083333Y-68866666D01*
X149116666Y-68900000D01*
X149183333Y-68933333D01*
M02*
