%TF.GenerationSoftware,KiCad,Pcbnew,(5.1.6)-1*%
%TF.CreationDate,2020-12-10T00:03:04+01:00*%
%TF.ProjectId,06_I2C_2_NEOPIXELS,30365f49-3243-45f3-925f-4e454f504958,rev?*%
%TF.SameCoordinates,Original*%
%TF.FileFunction,Copper,L1,Top*%
%TF.FilePolarity,Positive*%
%FSLAX46Y46*%
G04 Gerber Fmt 4.6, Leading zero omitted, Abs format (unit mm)*
G04 Created by KiCad (PCBNEW (5.1.6)-1) date 2020-12-10 00:03:04*
%MOMM*%
%LPD*%
G01*
G04 APERTURE LIST*
%TA.AperFunction,Profile*%
%ADD10C,0.150000*%
%TD*%
%TA.AperFunction,ComponentPad*%
%ADD11C,6.400000*%
%TD*%
%TA.AperFunction,ComponentPad*%
%ADD12C,0.800000*%
%TD*%
%TA.AperFunction,ComponentPad*%
%ADD13O,1.950000X1.700000*%
%TD*%
%TA.AperFunction,ComponentPad*%
%ADD14R,1.700000X1.700000*%
%TD*%
%TA.AperFunction,ComponentPad*%
%ADD15O,1.700000X1.700000*%
%TD*%
%TA.AperFunction,SMDPad,CuDef*%
%ADD16R,1.700000X0.650000*%
%TD*%
%TA.AperFunction,ViaPad*%
%ADD17C,1.000000*%
%TD*%
%TA.AperFunction,Conductor*%
%ADD18C,0.500000*%
%TD*%
%TA.AperFunction,Conductor*%
%ADD19C,0.254000*%
%TD*%
G04 APERTURE END LIST*
D10*
X160000000Y-55000000D02*
G75*
G02*
X165000000Y-60000000I0J-5000000D01*
G01*
X165000000Y-90000000D02*
G75*
G02*
X160000000Y-95000000I-5000000J0D01*
G01*
X105000000Y-95000000D02*
G75*
G02*
X100000000Y-90000000I0J5000000D01*
G01*
X100000000Y-60000000D02*
G75*
G02*
X105000000Y-55000000I5000000J0D01*
G01*
X100000000Y-90000000D02*
X100000000Y-60000000D01*
X160000000Y-95000000D02*
X105000000Y-95000000D01*
X165000000Y-60000000D02*
X165000000Y-90000000D01*
X105000000Y-55000000D02*
X160000000Y-55000000D01*
%TO.P,C1,1*%
%TO.N,5V*%
%TA.AperFunction,SMDPad,CuDef*%
G36*
G01*
X126743750Y-75775000D02*
X127256250Y-75775000D01*
G75*
G02*
X127475000Y-75993750I0J-218750D01*
G01*
X127475000Y-76431250D01*
G75*
G02*
X127256250Y-76650000I-218750J0D01*
G01*
X126743750Y-76650000D01*
G75*
G02*
X126525000Y-76431250I0J218750D01*
G01*
X126525000Y-75993750D01*
G75*
G02*
X126743750Y-75775000I218750J0D01*
G01*
G37*
%TD.AperFunction*%
%TO.P,C1,2*%
%TO.N,GND*%
%TA.AperFunction,SMDPad,CuDef*%
G36*
G01*
X126743750Y-77350000D02*
X127256250Y-77350000D01*
G75*
G02*
X127475000Y-77568750I0J-218750D01*
G01*
X127475000Y-78006250D01*
G75*
G02*
X127256250Y-78225000I-218750J0D01*
G01*
X126743750Y-78225000D01*
G75*
G02*
X126525000Y-78006250I0J218750D01*
G01*
X126525000Y-77568750D01*
G75*
G02*
X126743750Y-77350000I218750J0D01*
G01*
G37*
%TD.AperFunction*%
%TD*%
D11*
%TO.P,H1,1*%
%TO.N,GND*%
X105000000Y-60000000D03*
D12*
X107400000Y-60000000D03*
X106697056Y-61697056D03*
X105000000Y-62400000D03*
X103302944Y-61697056D03*
X102600000Y-60000000D03*
X103302944Y-58302944D03*
X105000000Y-57600000D03*
X106697056Y-58302944D03*
%TD*%
%TO.P,H2,1*%
%TO.N,GND*%
X161697056Y-58302944D03*
X160000000Y-57600000D03*
X158302944Y-58302944D03*
X157600000Y-60000000D03*
X158302944Y-61697056D03*
X160000000Y-62400000D03*
X161697056Y-61697056D03*
X162400000Y-60000000D03*
D11*
X160000000Y-60000000D03*
%TD*%
D12*
%TO.P,H3,1*%
%TO.N,GND*%
X161697056Y-88302944D03*
X160000000Y-87600000D03*
X158302944Y-88302944D03*
X157600000Y-90000000D03*
X158302944Y-91697056D03*
X160000000Y-92400000D03*
X161697056Y-91697056D03*
X162400000Y-90000000D03*
D11*
X160000000Y-90000000D03*
%TD*%
%TO.P,H4,1*%
%TO.N,GND*%
X105000000Y-90000000D03*
D12*
X107400000Y-90000000D03*
X106697056Y-91697056D03*
X105000000Y-92400000D03*
X103302944Y-91697056D03*
X102600000Y-90000000D03*
X103302944Y-88302944D03*
X105000000Y-87600000D03*
X106697056Y-88302944D03*
%TD*%
%TO.P,J1,1*%
%TO.N,GND*%
%TA.AperFunction,ComponentPad*%
G36*
G01*
X144725000Y-76850000D02*
X143275000Y-76850000D01*
G75*
G02*
X143025000Y-76600000I0J250000D01*
G01*
X143025000Y-75400000D01*
G75*
G02*
X143275000Y-75150000I250000J0D01*
G01*
X144725000Y-75150000D01*
G75*
G02*
X144975000Y-75400000I0J-250000D01*
G01*
X144975000Y-76600000D01*
G75*
G02*
X144725000Y-76850000I-250000J0D01*
G01*
G37*
%TD.AperFunction*%
D13*
%TO.P,J1,2*%
%TO.N,5V*%
X144000000Y-73500000D03*
%TO.P,J1,3*%
%TO.N,S0*%
X144000000Y-71000000D03*
%TO.P,J1,4*%
%TO.N,back0*%
X144000000Y-68500000D03*
%TD*%
%TO.P,J2,4*%
%TO.N,GND*%
X120000000Y-76000000D03*
%TO.P,J2,3*%
%TO.N,5V*%
X120000000Y-73500000D03*
%TO.P,J2,2*%
%TO.N,SCL*%
X120000000Y-71000000D03*
%TO.P,J2,1*%
%TO.N,SDA*%
%TA.AperFunction,ComponentPad*%
G36*
G01*
X119275000Y-67650000D02*
X120725000Y-67650000D01*
G75*
G02*
X120975000Y-67900000I0J-250000D01*
G01*
X120975000Y-69100000D01*
G75*
G02*
X120725000Y-69350000I-250000J0D01*
G01*
X119275000Y-69350000D01*
G75*
G02*
X119025000Y-69100000I0J250000D01*
G01*
X119025000Y-67900000D01*
G75*
G02*
X119275000Y-67650000I250000J0D01*
G01*
G37*
%TD.AperFunction*%
%TD*%
D14*
%TO.P,J3,1*%
%TO.N,PB1*%
X130500000Y-78000000D03*
D15*
%TO.P,J3,2*%
%TO.N,5V*%
X133040000Y-78000000D03*
%TO.P,J3,3*%
%TO.N,SCL*%
X130500000Y-80540000D03*
%TO.P,J3,4*%
%TO.N,SDA*%
X133040000Y-80540000D03*
%TO.P,J3,5*%
%TO.N,RST*%
X130500000Y-83080000D03*
%TO.P,J3,6*%
%TO.N,GND*%
X133040000Y-83080000D03*
%TD*%
%TO.P,R1,2*%
%TO.N,SCL*%
%TA.AperFunction,SMDPad,CuDef*%
G36*
G01*
X126756250Y-72437500D02*
X126243750Y-72437500D01*
G75*
G02*
X126025000Y-72218750I0J218750D01*
G01*
X126025000Y-71781250D01*
G75*
G02*
X126243750Y-71562500I218750J0D01*
G01*
X126756250Y-71562500D01*
G75*
G02*
X126975000Y-71781250I0J-218750D01*
G01*
X126975000Y-72218750D01*
G75*
G02*
X126756250Y-72437500I-218750J0D01*
G01*
G37*
%TD.AperFunction*%
%TO.P,R1,1*%
%TO.N,5V*%
%TA.AperFunction,SMDPad,CuDef*%
G36*
G01*
X126756250Y-74012500D02*
X126243750Y-74012500D01*
G75*
G02*
X126025000Y-73793750I0J218750D01*
G01*
X126025000Y-73356250D01*
G75*
G02*
X126243750Y-73137500I218750J0D01*
G01*
X126756250Y-73137500D01*
G75*
G02*
X126975000Y-73356250I0J-218750D01*
G01*
X126975000Y-73793750D01*
G75*
G02*
X126756250Y-74012500I-218750J0D01*
G01*
G37*
%TD.AperFunction*%
%TD*%
%TO.P,R2,1*%
%TO.N,5V*%
%TA.AperFunction,SMDPad,CuDef*%
G36*
G01*
X124256250Y-74012500D02*
X123743750Y-74012500D01*
G75*
G02*
X123525000Y-73793750I0J218750D01*
G01*
X123525000Y-73356250D01*
G75*
G02*
X123743750Y-73137500I218750J0D01*
G01*
X124256250Y-73137500D01*
G75*
G02*
X124475000Y-73356250I0J-218750D01*
G01*
X124475000Y-73793750D01*
G75*
G02*
X124256250Y-74012500I-218750J0D01*
G01*
G37*
%TD.AperFunction*%
%TO.P,R2,2*%
%TO.N,SDA*%
%TA.AperFunction,SMDPad,CuDef*%
G36*
G01*
X124256250Y-72437500D02*
X123743750Y-72437500D01*
G75*
G02*
X123525000Y-72218750I0J218750D01*
G01*
X123525000Y-71781250D01*
G75*
G02*
X123743750Y-71562500I218750J0D01*
G01*
X124256250Y-71562500D01*
G75*
G02*
X124475000Y-71781250I0J-218750D01*
G01*
X124475000Y-72218750D01*
G75*
G02*
X124256250Y-72437500I-218750J0D01*
G01*
G37*
%TD.AperFunction*%
%TD*%
%TO.P,R3,2*%
%TO.N,back0*%
%TA.AperFunction,SMDPad,CuDef*%
G36*
G01*
X139256250Y-67650000D02*
X138743750Y-67650000D01*
G75*
G02*
X138525000Y-67431250I0J218750D01*
G01*
X138525000Y-66993750D01*
G75*
G02*
X138743750Y-66775000I218750J0D01*
G01*
X139256250Y-66775000D01*
G75*
G02*
X139475000Y-66993750I0J-218750D01*
G01*
X139475000Y-67431250D01*
G75*
G02*
X139256250Y-67650000I-218750J0D01*
G01*
G37*
%TD.AperFunction*%
%TO.P,R3,1*%
%TO.N,Net-(R3-Pad1)*%
%TA.AperFunction,SMDPad,CuDef*%
G36*
G01*
X139256250Y-69225000D02*
X138743750Y-69225000D01*
G75*
G02*
X138525000Y-69006250I0J218750D01*
G01*
X138525000Y-68568750D01*
G75*
G02*
X138743750Y-68350000I218750J0D01*
G01*
X139256250Y-68350000D01*
G75*
G02*
X139475000Y-68568750I0J-218750D01*
G01*
X139475000Y-69006250D01*
G75*
G02*
X139256250Y-69225000I-218750J0D01*
G01*
G37*
%TD.AperFunction*%
%TD*%
%TO.P,R4,1*%
%TO.N,PB1*%
%TA.AperFunction,SMDPad,CuDef*%
G36*
G01*
X134775000Y-66756250D02*
X134775000Y-66243750D01*
G75*
G02*
X134993750Y-66025000I218750J0D01*
G01*
X135431250Y-66025000D01*
G75*
G02*
X135650000Y-66243750I0J-218750D01*
G01*
X135650000Y-66756250D01*
G75*
G02*
X135431250Y-66975000I-218750J0D01*
G01*
X134993750Y-66975000D01*
G75*
G02*
X134775000Y-66756250I0J218750D01*
G01*
G37*
%TD.AperFunction*%
%TO.P,R4,2*%
%TO.N,back0*%
%TA.AperFunction,SMDPad,CuDef*%
G36*
G01*
X136350000Y-66756250D02*
X136350000Y-66243750D01*
G75*
G02*
X136568750Y-66025000I218750J0D01*
G01*
X137006250Y-66025000D01*
G75*
G02*
X137225000Y-66243750I0J-218750D01*
G01*
X137225000Y-66756250D01*
G75*
G02*
X137006250Y-66975000I-218750J0D01*
G01*
X136568750Y-66975000D01*
G75*
G02*
X136350000Y-66756250I0J218750D01*
G01*
G37*
%TD.AperFunction*%
%TD*%
%TO.P,R5,1*%
%TO.N,RST*%
%TA.AperFunction,SMDPad,CuDef*%
G36*
G01*
X138243750Y-72775000D02*
X138756250Y-72775000D01*
G75*
G02*
X138975000Y-72993750I0J-218750D01*
G01*
X138975000Y-73431250D01*
G75*
G02*
X138756250Y-73650000I-218750J0D01*
G01*
X138243750Y-73650000D01*
G75*
G02*
X138025000Y-73431250I0J218750D01*
G01*
X138025000Y-72993750D01*
G75*
G02*
X138243750Y-72775000I218750J0D01*
G01*
G37*
%TD.AperFunction*%
%TO.P,R5,2*%
%TO.N,5V*%
%TA.AperFunction,SMDPad,CuDef*%
G36*
G01*
X138243750Y-74350000D02*
X138756250Y-74350000D01*
G75*
G02*
X138975000Y-74568750I0J-218750D01*
G01*
X138975000Y-75006250D01*
G75*
G02*
X138756250Y-75225000I-218750J0D01*
G01*
X138243750Y-75225000D01*
G75*
G02*
X138025000Y-75006250I0J218750D01*
G01*
X138025000Y-74568750D01*
G75*
G02*
X138243750Y-74350000I218750J0D01*
G01*
G37*
%TD.AperFunction*%
%TD*%
D16*
%TO.P,U1,1*%
%TO.N,RST*%
X136150000Y-72405000D03*
%TO.P,U1,2*%
%TO.N,S0*%
X136150000Y-71135000D03*
%TO.P,U1,3*%
%TO.N,Net-(R3-Pad1)*%
X136150000Y-69865000D03*
%TO.P,U1,4*%
%TO.N,GND*%
X136150000Y-68595000D03*
%TO.P,U1,5*%
%TO.N,SDA*%
X128850000Y-68595000D03*
%TO.P,U1,6*%
%TO.N,PB1*%
X128850000Y-69865000D03*
%TO.P,U1,7*%
%TO.N,SCL*%
X128850000Y-71135000D03*
%TO.P,U1,8*%
%TO.N,5V*%
X128850000Y-72405000D03*
%TD*%
D17*
%TO.N,GND*%
X105000000Y-65000000D03*
X105000000Y-70000000D03*
X105000000Y-75000000D03*
X105000000Y-80000000D03*
X105000000Y-85000000D03*
X110000000Y-60000000D03*
X115000000Y-60000000D03*
X120000000Y-60000000D03*
X125000000Y-60000000D03*
X130000000Y-60000000D03*
X135000000Y-60000000D03*
X140000000Y-60000000D03*
X145000000Y-60000000D03*
X150000000Y-60000000D03*
X155000000Y-60000000D03*
X110000000Y-90000000D03*
X115000000Y-90000000D03*
X120000000Y-90000000D03*
X125000000Y-90000000D03*
X130000000Y-90000000D03*
X135000000Y-90000000D03*
X140000000Y-90000000D03*
X145000000Y-90000000D03*
X150000000Y-90000000D03*
X155000000Y-90000000D03*
X160000000Y-85000000D03*
X160000000Y-80000000D03*
X160000000Y-75000000D03*
X160000000Y-65000000D03*
X160000000Y-70000000D03*
X127000000Y-79500000D03*
X133500000Y-69500000D03*
X141000000Y-69000000D03*
X141000000Y-72500000D03*
X129550000Y-76000000D03*
%TO.N,SDA*%
X124500000Y-71050000D03*
X124595000Y-68595000D03*
%TO.N,RST*%
X137000000Y-74000000D03*
%TD*%
D18*
%TO.N,GND*%
X127000000Y-77787500D02*
X127000000Y-79500000D01*
X136150000Y-68595000D02*
X134405000Y-68595000D01*
X134405000Y-68595000D02*
X133500000Y-69500000D01*
X133040000Y-88040000D02*
X135000000Y-90000000D01*
X133040000Y-83080000D02*
X133040000Y-88040000D01*
%TO.N,S0*%
X143865000Y-71135000D02*
X144000000Y-71000000D01*
X136150000Y-71135000D02*
X143865000Y-71135000D01*
%TO.N,back0*%
X142000000Y-66500000D02*
X144000000Y-68500000D01*
X136787500Y-66500000D02*
X139000000Y-66500000D01*
X139000000Y-67212500D02*
X139000000Y-66500000D01*
X139000000Y-66500000D02*
X142000000Y-66500000D01*
%TO.N,5V*%
X126500000Y-73575000D02*
X126500000Y-75000000D01*
X126500000Y-75000000D02*
X124000000Y-75000000D01*
X124000000Y-75000000D02*
X124000000Y-73575000D01*
X124000000Y-75000000D02*
X123000000Y-75000000D01*
X121500000Y-73500000D02*
X120000000Y-73500000D01*
X123000000Y-75000000D02*
X121500000Y-73500000D01*
X128850000Y-72405000D02*
X127595000Y-72405000D01*
X127500000Y-72500000D02*
X127500000Y-75000000D01*
X127595000Y-72405000D02*
X127500000Y-72500000D01*
X127500000Y-75000000D02*
X127000000Y-75000000D01*
X127000000Y-76212500D02*
X127000000Y-75000000D01*
X127000000Y-75000000D02*
X126500000Y-75000000D01*
X133040000Y-78000000D02*
X138000000Y-78000000D01*
X138000000Y-78000000D02*
X138500000Y-77500000D01*
X144000000Y-73500000D02*
X142000000Y-73500000D01*
X142000000Y-73500000D02*
X138500000Y-77000000D01*
X138500000Y-77500000D02*
X138500000Y-77000000D01*
X138500000Y-77000000D02*
X138500000Y-74787500D01*
%TO.N,SCL*%
X128850000Y-71135000D02*
X127135000Y-71135000D01*
X127135000Y-71135000D02*
X127000000Y-71000000D01*
X126500000Y-72000000D02*
X126500000Y-71000000D01*
X127000000Y-71000000D02*
X126500000Y-71000000D01*
X122500000Y-71000000D02*
X123500000Y-70000000D01*
X122500000Y-71000000D02*
X120000000Y-71000000D01*
X123500000Y-70000000D02*
X125500000Y-70000000D01*
X125500000Y-70000000D02*
X126500000Y-71000000D01*
X129540000Y-80540000D02*
X130500000Y-80540000D01*
X130135000Y-71135000D02*
X131000000Y-72000000D01*
X128500000Y-79500000D02*
X129540000Y-80540000D01*
X131000000Y-73000000D02*
X128500000Y-75500000D01*
X131000000Y-72000000D02*
X131000000Y-73000000D01*
X128850000Y-71135000D02*
X130135000Y-71135000D01*
X128500000Y-75500000D02*
X128500000Y-79500000D01*
%TO.N,SDA*%
X120095000Y-68595000D02*
X120000000Y-68500000D01*
X124000000Y-72000000D02*
X124000000Y-71550000D01*
X124000000Y-71550000D02*
X124500000Y-71050000D01*
X128850000Y-68595000D02*
X124595000Y-68595000D01*
X124595000Y-68595000D02*
X120095000Y-68595000D01*
%TO.N,PB1*%
X135212500Y-66500000D02*
X134000000Y-66500000D01*
X130635000Y-69865000D02*
X128850000Y-69865000D01*
X134000000Y-66500000D02*
X130635000Y-69865000D01*
X133000000Y-72230000D02*
X131635000Y-70865000D01*
X133000000Y-74000000D02*
X133000000Y-72230000D01*
X130500000Y-76500000D02*
X133000000Y-74000000D01*
X131635000Y-70865000D02*
X130635000Y-69865000D01*
X130500000Y-78000000D02*
X130500000Y-76500000D01*
%TO.N,RST*%
X136150000Y-72405000D02*
X138405000Y-72405000D01*
X138500000Y-72500000D02*
X138500000Y-73212500D01*
X138405000Y-72405000D02*
X138500000Y-72500000D01*
X137000000Y-74000000D02*
X137500000Y-73500000D01*
X137500000Y-73500000D02*
X137500000Y-72500000D01*
%TO.N,Net-(R3-Pad1)*%
X136150000Y-69865000D02*
X138635000Y-69865000D01*
X139000000Y-69500000D02*
X139000000Y-68787500D01*
X138635000Y-69865000D02*
X139000000Y-69500000D01*
%TD*%
D19*
%TO.N,GND*%
G36*
X160759192Y-55780578D02*
G01*
X161494389Y-55981705D01*
X162182351Y-56309846D01*
X162801331Y-56754628D01*
X163331761Y-57301988D01*
X163756884Y-57934639D01*
X164063251Y-58632561D01*
X164242499Y-59379183D01*
X164290000Y-60026030D01*
X164290001Y-89968370D01*
X164219422Y-90759193D01*
X164018295Y-91494389D01*
X163690152Y-92182355D01*
X163245374Y-92801328D01*
X162698012Y-93331761D01*
X162065362Y-93756883D01*
X161367439Y-94063251D01*
X160620819Y-94242499D01*
X159973970Y-94290000D01*
X105031618Y-94290000D01*
X104240807Y-94219422D01*
X103505611Y-94018295D01*
X102817645Y-93690152D01*
X102198672Y-93245374D01*
X101671020Y-92700881D01*
X102478724Y-92700881D01*
X102838912Y-93190548D01*
X103502882Y-93550849D01*
X104224385Y-93774694D01*
X104975695Y-93853480D01*
X105727938Y-93784178D01*
X106452208Y-93569452D01*
X107120670Y-93217555D01*
X107161088Y-93190548D01*
X107521276Y-92700881D01*
X157478724Y-92700881D01*
X157838912Y-93190548D01*
X158502882Y-93550849D01*
X159224385Y-93774694D01*
X159975695Y-93853480D01*
X160727938Y-93784178D01*
X161452208Y-93569452D01*
X162120670Y-93217555D01*
X162161088Y-93190548D01*
X162521276Y-92700881D01*
X160000000Y-90179605D01*
X157478724Y-92700881D01*
X107521276Y-92700881D01*
X105000000Y-90179605D01*
X102478724Y-92700881D01*
X101671020Y-92700881D01*
X101668239Y-92698012D01*
X101243117Y-92065362D01*
X100936749Y-91367439D01*
X100757501Y-90620819D01*
X100710127Y-89975695D01*
X101146520Y-89975695D01*
X101215822Y-90727938D01*
X101430548Y-91452208D01*
X101782445Y-92120670D01*
X101809452Y-92161088D01*
X102299119Y-92521276D01*
X104820395Y-90000000D01*
X105179605Y-90000000D01*
X107700881Y-92521276D01*
X108190548Y-92161088D01*
X108550849Y-91497118D01*
X108774694Y-90775615D01*
X108853480Y-90024305D01*
X108849002Y-89975695D01*
X156146520Y-89975695D01*
X156215822Y-90727938D01*
X156430548Y-91452208D01*
X156782445Y-92120670D01*
X156809452Y-92161088D01*
X157299119Y-92521276D01*
X159820395Y-90000000D01*
X160179605Y-90000000D01*
X162700881Y-92521276D01*
X163190548Y-92161088D01*
X163550849Y-91497118D01*
X163774694Y-90775615D01*
X163853480Y-90024305D01*
X163784178Y-89272062D01*
X163569452Y-88547792D01*
X163217555Y-87879330D01*
X163190548Y-87838912D01*
X162700881Y-87478724D01*
X160179605Y-90000000D01*
X159820395Y-90000000D01*
X157299119Y-87478724D01*
X156809452Y-87838912D01*
X156449151Y-88502882D01*
X156225306Y-89224385D01*
X156146520Y-89975695D01*
X108849002Y-89975695D01*
X108784178Y-89272062D01*
X108569452Y-88547792D01*
X108217555Y-87879330D01*
X108190548Y-87838912D01*
X107700881Y-87478724D01*
X105179605Y-90000000D01*
X104820395Y-90000000D01*
X102299119Y-87478724D01*
X101809452Y-87838912D01*
X101449151Y-88502882D01*
X101225306Y-89224385D01*
X101146520Y-89975695D01*
X100710127Y-89975695D01*
X100710000Y-89973970D01*
X100710000Y-87299119D01*
X102478724Y-87299119D01*
X105000000Y-89820395D01*
X107521276Y-87299119D01*
X157478724Y-87299119D01*
X160000000Y-89820395D01*
X162521276Y-87299119D01*
X162161088Y-86809452D01*
X161497118Y-86449151D01*
X160775615Y-86225306D01*
X160024305Y-86146520D01*
X159272062Y-86215822D01*
X158547792Y-86430548D01*
X157879330Y-86782445D01*
X157838912Y-86809452D01*
X157478724Y-87299119D01*
X107521276Y-87299119D01*
X107161088Y-86809452D01*
X106497118Y-86449151D01*
X105775615Y-86225306D01*
X105024305Y-86146520D01*
X104272062Y-86215822D01*
X103547792Y-86430548D01*
X102879330Y-86782445D01*
X102838912Y-86809452D01*
X102478724Y-87299119D01*
X100710000Y-87299119D01*
X100710000Y-78225000D01*
X125886928Y-78225000D01*
X125899188Y-78349482D01*
X125935498Y-78469180D01*
X125994463Y-78579494D01*
X126073815Y-78676185D01*
X126170506Y-78755537D01*
X126280820Y-78814502D01*
X126400518Y-78850812D01*
X126525000Y-78863072D01*
X126714250Y-78860000D01*
X126873000Y-78701250D01*
X126873000Y-77914500D01*
X126048750Y-77914500D01*
X125890000Y-78073250D01*
X125886928Y-78225000D01*
X100710000Y-78225000D01*
X100710000Y-76356890D01*
X118433524Y-76356890D01*
X118525648Y-76619858D01*
X118672504Y-76871193D01*
X118865571Y-77089049D01*
X119097430Y-77265053D01*
X119359170Y-77392442D01*
X119640733Y-77466320D01*
X119873000Y-77326165D01*
X119873000Y-76127000D01*
X120127000Y-76127000D01*
X120127000Y-77326165D01*
X120359267Y-77466320D01*
X120640830Y-77392442D01*
X120902570Y-77265053D01*
X121134429Y-77089049D01*
X121327496Y-76871193D01*
X121474352Y-76619858D01*
X121566476Y-76356890D01*
X121445155Y-76127000D01*
X120127000Y-76127000D01*
X119873000Y-76127000D01*
X118554845Y-76127000D01*
X118433524Y-76356890D01*
X100710000Y-76356890D01*
X100710000Y-71000000D01*
X118382815Y-71000000D01*
X118411487Y-71291111D01*
X118496401Y-71571034D01*
X118634294Y-71829014D01*
X118819866Y-72055134D01*
X119045986Y-72240706D01*
X119063374Y-72250000D01*
X119045986Y-72259294D01*
X118819866Y-72444866D01*
X118634294Y-72670986D01*
X118496401Y-72928966D01*
X118411487Y-73208889D01*
X118382815Y-73500000D01*
X118411487Y-73791111D01*
X118496401Y-74071034D01*
X118634294Y-74329014D01*
X118819866Y-74555134D01*
X119045986Y-74740706D01*
X119071722Y-74754462D01*
X118865571Y-74910951D01*
X118672504Y-75128807D01*
X118525648Y-75380142D01*
X118433524Y-75643110D01*
X118554845Y-75873000D01*
X119873000Y-75873000D01*
X119873000Y-75853000D01*
X120127000Y-75853000D01*
X120127000Y-75873000D01*
X121445155Y-75873000D01*
X121566476Y-75643110D01*
X121474352Y-75380142D01*
X121327496Y-75128807D01*
X121134429Y-74910951D01*
X120928278Y-74754462D01*
X120954014Y-74740706D01*
X121180134Y-74555134D01*
X121235767Y-74487345D01*
X122343470Y-75595049D01*
X122371183Y-75628817D01*
X122404951Y-75656530D01*
X122404953Y-75656532D01*
X122476452Y-75715210D01*
X122505941Y-75739411D01*
X122659687Y-75821589D01*
X122826510Y-75872195D01*
X122956523Y-75885000D01*
X122956533Y-75885000D01*
X122999999Y-75889281D01*
X123043465Y-75885000D01*
X123956523Y-75885000D01*
X124000000Y-75889282D01*
X124043476Y-75885000D01*
X125897639Y-75885000D01*
X125886928Y-75993750D01*
X125886928Y-76431250D01*
X125903392Y-76598408D01*
X125952150Y-76759142D01*
X126031329Y-76907275D01*
X126049100Y-76928930D01*
X125994463Y-76995506D01*
X125935498Y-77105820D01*
X125899188Y-77225518D01*
X125886928Y-77350000D01*
X125890000Y-77501750D01*
X126048750Y-77660500D01*
X126873000Y-77660500D01*
X126873000Y-77640500D01*
X127127000Y-77640500D01*
X127127000Y-77660500D01*
X127147000Y-77660500D01*
X127147000Y-77914500D01*
X127127000Y-77914500D01*
X127127000Y-78701250D01*
X127285750Y-78860000D01*
X127475000Y-78863072D01*
X127599482Y-78850812D01*
X127615001Y-78846104D01*
X127615001Y-79456521D01*
X127610719Y-79500000D01*
X127627805Y-79673490D01*
X127678412Y-79840313D01*
X127760590Y-79994059D01*
X127843468Y-80095046D01*
X127843471Y-80095049D01*
X127871184Y-80128817D01*
X127904951Y-80156529D01*
X128883470Y-81135049D01*
X128911183Y-81168817D01*
X128944951Y-81196530D01*
X128944953Y-81196532D01*
X129002075Y-81243411D01*
X129045941Y-81279411D01*
X129199687Y-81361589D01*
X129279063Y-81385668D01*
X129346525Y-81486632D01*
X129553368Y-81693475D01*
X129727760Y-81810000D01*
X129553368Y-81926525D01*
X129346525Y-82133368D01*
X129184010Y-82376589D01*
X129072068Y-82646842D01*
X129015000Y-82933740D01*
X129015000Y-83226260D01*
X129072068Y-83513158D01*
X129184010Y-83783411D01*
X129346525Y-84026632D01*
X129553368Y-84233475D01*
X129796589Y-84395990D01*
X130066842Y-84507932D01*
X130353740Y-84565000D01*
X130646260Y-84565000D01*
X130933158Y-84507932D01*
X131203411Y-84395990D01*
X131446632Y-84233475D01*
X131653475Y-84026632D01*
X131771100Y-83850594D01*
X131942412Y-84080269D01*
X132158645Y-84275178D01*
X132408748Y-84424157D01*
X132683109Y-84521481D01*
X132913000Y-84400814D01*
X132913000Y-83207000D01*
X133167000Y-83207000D01*
X133167000Y-84400814D01*
X133396891Y-84521481D01*
X133671252Y-84424157D01*
X133921355Y-84275178D01*
X134137588Y-84080269D01*
X134311641Y-83846920D01*
X134436825Y-83584099D01*
X134481476Y-83436890D01*
X134360155Y-83207000D01*
X133167000Y-83207000D01*
X132913000Y-83207000D01*
X132893000Y-83207000D01*
X132893000Y-82953000D01*
X132913000Y-82953000D01*
X132913000Y-82933000D01*
X133167000Y-82933000D01*
X133167000Y-82953000D01*
X134360155Y-82953000D01*
X134481476Y-82723110D01*
X134436825Y-82575901D01*
X134311641Y-82313080D01*
X134137588Y-82079731D01*
X133921355Y-81884822D01*
X133804466Y-81815195D01*
X133986632Y-81693475D01*
X134193475Y-81486632D01*
X134355990Y-81243411D01*
X134467932Y-80973158D01*
X134525000Y-80686260D01*
X134525000Y-80393740D01*
X134467932Y-80106842D01*
X134355990Y-79836589D01*
X134193475Y-79593368D01*
X133986632Y-79386525D01*
X133812240Y-79270000D01*
X133986632Y-79153475D01*
X134193475Y-78946632D01*
X134234656Y-78885000D01*
X137956531Y-78885000D01*
X138000000Y-78889281D01*
X138043469Y-78885000D01*
X138043477Y-78885000D01*
X138173490Y-78872195D01*
X138340313Y-78821589D01*
X138494059Y-78739411D01*
X138628817Y-78628817D01*
X138656534Y-78595044D01*
X139095045Y-78156533D01*
X139128817Y-78128817D01*
X139239411Y-77994059D01*
X139321589Y-77840313D01*
X139372195Y-77673490D01*
X139385000Y-77543477D01*
X139385000Y-77543469D01*
X139389281Y-77500000D01*
X139385000Y-77456531D01*
X139385000Y-77366578D01*
X139901578Y-76850000D01*
X142386928Y-76850000D01*
X142399188Y-76974482D01*
X142435498Y-77094180D01*
X142494463Y-77204494D01*
X142573815Y-77301185D01*
X142670506Y-77380537D01*
X142780820Y-77439502D01*
X142900518Y-77475812D01*
X143025000Y-77488072D01*
X143714250Y-77485000D01*
X143873000Y-77326250D01*
X143873000Y-76127000D01*
X144127000Y-76127000D01*
X144127000Y-77326250D01*
X144285750Y-77485000D01*
X144975000Y-77488072D01*
X145099482Y-77475812D01*
X145219180Y-77439502D01*
X145329494Y-77380537D01*
X145426185Y-77301185D01*
X145505537Y-77204494D01*
X145564502Y-77094180D01*
X145600812Y-76974482D01*
X145613072Y-76850000D01*
X145610000Y-76285750D01*
X145451250Y-76127000D01*
X144127000Y-76127000D01*
X143873000Y-76127000D01*
X142548750Y-76127000D01*
X142390000Y-76285750D01*
X142386928Y-76850000D01*
X139901578Y-76850000D01*
X142366579Y-74385000D01*
X142680241Y-74385000D01*
X142815608Y-74549945D01*
X142780820Y-74560498D01*
X142670506Y-74619463D01*
X142573815Y-74698815D01*
X142494463Y-74795506D01*
X142435498Y-74905820D01*
X142399188Y-75025518D01*
X142386928Y-75150000D01*
X142390000Y-75714250D01*
X142548750Y-75873000D01*
X143873000Y-75873000D01*
X143873000Y-75853000D01*
X144127000Y-75853000D01*
X144127000Y-75873000D01*
X145451250Y-75873000D01*
X145610000Y-75714250D01*
X145613072Y-75150000D01*
X145600812Y-75025518D01*
X145564502Y-74905820D01*
X145505537Y-74795506D01*
X145426185Y-74698815D01*
X145329494Y-74619463D01*
X145219180Y-74560498D01*
X145184392Y-74549945D01*
X145365706Y-74329014D01*
X145503599Y-74071034D01*
X145588513Y-73791111D01*
X145617185Y-73500000D01*
X145588513Y-73208889D01*
X145503599Y-72928966D01*
X145365706Y-72670986D01*
X145180134Y-72444866D01*
X144954014Y-72259294D01*
X144936626Y-72250000D01*
X144954014Y-72240706D01*
X145180134Y-72055134D01*
X145365706Y-71829014D01*
X145503599Y-71571034D01*
X145588513Y-71291111D01*
X145617185Y-71000000D01*
X145588513Y-70708889D01*
X145503599Y-70428966D01*
X145365706Y-70170986D01*
X145180134Y-69944866D01*
X144954014Y-69759294D01*
X144936626Y-69750000D01*
X144954014Y-69740706D01*
X145180134Y-69555134D01*
X145365706Y-69329014D01*
X145503599Y-69071034D01*
X145588513Y-68791111D01*
X145617185Y-68500000D01*
X145588513Y-68208889D01*
X145503599Y-67928966D01*
X145365706Y-67670986D01*
X145180134Y-67444866D01*
X144954014Y-67259294D01*
X144696034Y-67121401D01*
X144416111Y-67036487D01*
X144197950Y-67015000D01*
X143802050Y-67015000D01*
X143769759Y-67018180D01*
X142656534Y-65904956D01*
X142628817Y-65871183D01*
X142494059Y-65760589D01*
X142340313Y-65678411D01*
X142173490Y-65627805D01*
X142043477Y-65615000D01*
X142043469Y-65615000D01*
X142000000Y-65610719D01*
X141956531Y-65615000D01*
X139043477Y-65615000D01*
X139000000Y-65610718D01*
X138956524Y-65615000D01*
X137584229Y-65615000D01*
X137482275Y-65531329D01*
X137334142Y-65452150D01*
X137173408Y-65403392D01*
X137006250Y-65386928D01*
X136568750Y-65386928D01*
X136401592Y-65403392D01*
X136240858Y-65452150D01*
X136092725Y-65531329D01*
X136000000Y-65607426D01*
X135907275Y-65531329D01*
X135759142Y-65452150D01*
X135598408Y-65403392D01*
X135431250Y-65386928D01*
X134993750Y-65386928D01*
X134826592Y-65403392D01*
X134665858Y-65452150D01*
X134517725Y-65531329D01*
X134415771Y-65615000D01*
X134043469Y-65615000D01*
X134000000Y-65610719D01*
X133956531Y-65615000D01*
X133956523Y-65615000D01*
X133826510Y-65627805D01*
X133659686Y-65678411D01*
X133505941Y-65760589D01*
X133404953Y-65843468D01*
X133404951Y-65843470D01*
X133371183Y-65871183D01*
X133343470Y-65904951D01*
X130338072Y-68910350D01*
X130338072Y-68270000D01*
X130325812Y-68145518D01*
X130289502Y-68025820D01*
X130230537Y-67915506D01*
X130151185Y-67818815D01*
X130054494Y-67739463D01*
X129944180Y-67680498D01*
X129824482Y-67644188D01*
X129700000Y-67631928D01*
X128000000Y-67631928D01*
X127875518Y-67644188D01*
X127755820Y-67680498D01*
X127700627Y-67710000D01*
X125313450Y-67710000D01*
X125132624Y-67589176D01*
X124926067Y-67503617D01*
X124706788Y-67460000D01*
X124483212Y-67460000D01*
X124263933Y-67503617D01*
X124057376Y-67589176D01*
X123876550Y-67710000D01*
X121590928Y-67710000D01*
X121545472Y-67560150D01*
X121463405Y-67406614D01*
X121352962Y-67272038D01*
X121218386Y-67161595D01*
X121064850Y-67079528D01*
X120898254Y-67028992D01*
X120725000Y-67011928D01*
X119275000Y-67011928D01*
X119101746Y-67028992D01*
X118935150Y-67079528D01*
X118781614Y-67161595D01*
X118647038Y-67272038D01*
X118536595Y-67406614D01*
X118454528Y-67560150D01*
X118403992Y-67726746D01*
X118386928Y-67900000D01*
X118386928Y-69100000D01*
X118403992Y-69273254D01*
X118454528Y-69439850D01*
X118536595Y-69593386D01*
X118647038Y-69727962D01*
X118781614Y-69838405D01*
X118883337Y-69892777D01*
X118819866Y-69944866D01*
X118634294Y-70170986D01*
X118496401Y-70428966D01*
X118411487Y-70708889D01*
X118382815Y-71000000D01*
X100710000Y-71000000D01*
X100710000Y-62700881D01*
X102478724Y-62700881D01*
X102838912Y-63190548D01*
X103502882Y-63550849D01*
X104224385Y-63774694D01*
X104975695Y-63853480D01*
X105727938Y-63784178D01*
X106452208Y-63569452D01*
X107120670Y-63217555D01*
X107161088Y-63190548D01*
X107521276Y-62700881D01*
X157478724Y-62700881D01*
X157838912Y-63190548D01*
X158502882Y-63550849D01*
X159224385Y-63774694D01*
X159975695Y-63853480D01*
X160727938Y-63784178D01*
X161452208Y-63569452D01*
X162120670Y-63217555D01*
X162161088Y-63190548D01*
X162521276Y-62700881D01*
X160000000Y-60179605D01*
X157478724Y-62700881D01*
X107521276Y-62700881D01*
X105000000Y-60179605D01*
X102478724Y-62700881D01*
X100710000Y-62700881D01*
X100710000Y-60031618D01*
X100714991Y-59975695D01*
X101146520Y-59975695D01*
X101215822Y-60727938D01*
X101430548Y-61452208D01*
X101782445Y-62120670D01*
X101809452Y-62161088D01*
X102299119Y-62521276D01*
X104820395Y-60000000D01*
X105179605Y-60000000D01*
X107700881Y-62521276D01*
X108190548Y-62161088D01*
X108550849Y-61497118D01*
X108774694Y-60775615D01*
X108853480Y-60024305D01*
X108849002Y-59975695D01*
X156146520Y-59975695D01*
X156215822Y-60727938D01*
X156430548Y-61452208D01*
X156782445Y-62120670D01*
X156809452Y-62161088D01*
X157299119Y-62521276D01*
X159820395Y-60000000D01*
X160179605Y-60000000D01*
X162700881Y-62521276D01*
X163190548Y-62161088D01*
X163550849Y-61497118D01*
X163774694Y-60775615D01*
X163853480Y-60024305D01*
X163784178Y-59272062D01*
X163569452Y-58547792D01*
X163217555Y-57879330D01*
X163190548Y-57838912D01*
X162700881Y-57478724D01*
X160179605Y-60000000D01*
X159820395Y-60000000D01*
X157299119Y-57478724D01*
X156809452Y-57838912D01*
X156449151Y-58502882D01*
X156225306Y-59224385D01*
X156146520Y-59975695D01*
X108849002Y-59975695D01*
X108784178Y-59272062D01*
X108569452Y-58547792D01*
X108217555Y-57879330D01*
X108190548Y-57838912D01*
X107700881Y-57478724D01*
X105179605Y-60000000D01*
X104820395Y-60000000D01*
X102299119Y-57478724D01*
X101809452Y-57838912D01*
X101449151Y-58502882D01*
X101225306Y-59224385D01*
X101146520Y-59975695D01*
X100714991Y-59975695D01*
X100780578Y-59240808D01*
X100981705Y-58505611D01*
X101309846Y-57817649D01*
X101682447Y-57299119D01*
X102478724Y-57299119D01*
X105000000Y-59820395D01*
X107521276Y-57299119D01*
X157478724Y-57299119D01*
X160000000Y-59820395D01*
X162521276Y-57299119D01*
X162161088Y-56809452D01*
X161497118Y-56449151D01*
X160775615Y-56225306D01*
X160024305Y-56146520D01*
X159272062Y-56215822D01*
X158547792Y-56430548D01*
X157879330Y-56782445D01*
X157838912Y-56809452D01*
X157478724Y-57299119D01*
X107521276Y-57299119D01*
X107161088Y-56809452D01*
X106497118Y-56449151D01*
X105775615Y-56225306D01*
X105024305Y-56146520D01*
X104272062Y-56215822D01*
X103547792Y-56430548D01*
X102879330Y-56782445D01*
X102838912Y-56809452D01*
X102478724Y-57299119D01*
X101682447Y-57299119D01*
X101754628Y-57198669D01*
X102301988Y-56668239D01*
X102934639Y-56243116D01*
X103632561Y-55936749D01*
X104379183Y-55757501D01*
X105026030Y-55710000D01*
X159968382Y-55710000D01*
X160759192Y-55780578D01*
G37*
X160759192Y-55780578D02*
X161494389Y-55981705D01*
X162182351Y-56309846D01*
X162801331Y-56754628D01*
X163331761Y-57301988D01*
X163756884Y-57934639D01*
X164063251Y-58632561D01*
X164242499Y-59379183D01*
X164290000Y-60026030D01*
X164290001Y-89968370D01*
X164219422Y-90759193D01*
X164018295Y-91494389D01*
X163690152Y-92182355D01*
X163245374Y-92801328D01*
X162698012Y-93331761D01*
X162065362Y-93756883D01*
X161367439Y-94063251D01*
X160620819Y-94242499D01*
X159973970Y-94290000D01*
X105031618Y-94290000D01*
X104240807Y-94219422D01*
X103505611Y-94018295D01*
X102817645Y-93690152D01*
X102198672Y-93245374D01*
X101671020Y-92700881D01*
X102478724Y-92700881D01*
X102838912Y-93190548D01*
X103502882Y-93550849D01*
X104224385Y-93774694D01*
X104975695Y-93853480D01*
X105727938Y-93784178D01*
X106452208Y-93569452D01*
X107120670Y-93217555D01*
X107161088Y-93190548D01*
X107521276Y-92700881D01*
X157478724Y-92700881D01*
X157838912Y-93190548D01*
X158502882Y-93550849D01*
X159224385Y-93774694D01*
X159975695Y-93853480D01*
X160727938Y-93784178D01*
X161452208Y-93569452D01*
X162120670Y-93217555D01*
X162161088Y-93190548D01*
X162521276Y-92700881D01*
X160000000Y-90179605D01*
X157478724Y-92700881D01*
X107521276Y-92700881D01*
X105000000Y-90179605D01*
X102478724Y-92700881D01*
X101671020Y-92700881D01*
X101668239Y-92698012D01*
X101243117Y-92065362D01*
X100936749Y-91367439D01*
X100757501Y-90620819D01*
X100710127Y-89975695D01*
X101146520Y-89975695D01*
X101215822Y-90727938D01*
X101430548Y-91452208D01*
X101782445Y-92120670D01*
X101809452Y-92161088D01*
X102299119Y-92521276D01*
X104820395Y-90000000D01*
X105179605Y-90000000D01*
X107700881Y-92521276D01*
X108190548Y-92161088D01*
X108550849Y-91497118D01*
X108774694Y-90775615D01*
X108853480Y-90024305D01*
X108849002Y-89975695D01*
X156146520Y-89975695D01*
X156215822Y-90727938D01*
X156430548Y-91452208D01*
X156782445Y-92120670D01*
X156809452Y-92161088D01*
X157299119Y-92521276D01*
X159820395Y-90000000D01*
X160179605Y-90000000D01*
X162700881Y-92521276D01*
X163190548Y-92161088D01*
X163550849Y-91497118D01*
X163774694Y-90775615D01*
X163853480Y-90024305D01*
X163784178Y-89272062D01*
X163569452Y-88547792D01*
X163217555Y-87879330D01*
X163190548Y-87838912D01*
X162700881Y-87478724D01*
X160179605Y-90000000D01*
X159820395Y-90000000D01*
X157299119Y-87478724D01*
X156809452Y-87838912D01*
X156449151Y-88502882D01*
X156225306Y-89224385D01*
X156146520Y-89975695D01*
X108849002Y-89975695D01*
X108784178Y-89272062D01*
X108569452Y-88547792D01*
X108217555Y-87879330D01*
X108190548Y-87838912D01*
X107700881Y-87478724D01*
X105179605Y-90000000D01*
X104820395Y-90000000D01*
X102299119Y-87478724D01*
X101809452Y-87838912D01*
X101449151Y-88502882D01*
X101225306Y-89224385D01*
X101146520Y-89975695D01*
X100710127Y-89975695D01*
X100710000Y-89973970D01*
X100710000Y-87299119D01*
X102478724Y-87299119D01*
X105000000Y-89820395D01*
X107521276Y-87299119D01*
X157478724Y-87299119D01*
X160000000Y-89820395D01*
X162521276Y-87299119D01*
X162161088Y-86809452D01*
X161497118Y-86449151D01*
X160775615Y-86225306D01*
X160024305Y-86146520D01*
X159272062Y-86215822D01*
X158547792Y-86430548D01*
X157879330Y-86782445D01*
X157838912Y-86809452D01*
X157478724Y-87299119D01*
X107521276Y-87299119D01*
X107161088Y-86809452D01*
X106497118Y-86449151D01*
X105775615Y-86225306D01*
X105024305Y-86146520D01*
X104272062Y-86215822D01*
X103547792Y-86430548D01*
X102879330Y-86782445D01*
X102838912Y-86809452D01*
X102478724Y-87299119D01*
X100710000Y-87299119D01*
X100710000Y-78225000D01*
X125886928Y-78225000D01*
X125899188Y-78349482D01*
X125935498Y-78469180D01*
X125994463Y-78579494D01*
X126073815Y-78676185D01*
X126170506Y-78755537D01*
X126280820Y-78814502D01*
X126400518Y-78850812D01*
X126525000Y-78863072D01*
X126714250Y-78860000D01*
X126873000Y-78701250D01*
X126873000Y-77914500D01*
X126048750Y-77914500D01*
X125890000Y-78073250D01*
X125886928Y-78225000D01*
X100710000Y-78225000D01*
X100710000Y-76356890D01*
X118433524Y-76356890D01*
X118525648Y-76619858D01*
X118672504Y-76871193D01*
X118865571Y-77089049D01*
X119097430Y-77265053D01*
X119359170Y-77392442D01*
X119640733Y-77466320D01*
X119873000Y-77326165D01*
X119873000Y-76127000D01*
X120127000Y-76127000D01*
X120127000Y-77326165D01*
X120359267Y-77466320D01*
X120640830Y-77392442D01*
X120902570Y-77265053D01*
X121134429Y-77089049D01*
X121327496Y-76871193D01*
X121474352Y-76619858D01*
X121566476Y-76356890D01*
X121445155Y-76127000D01*
X120127000Y-76127000D01*
X119873000Y-76127000D01*
X118554845Y-76127000D01*
X118433524Y-76356890D01*
X100710000Y-76356890D01*
X100710000Y-71000000D01*
X118382815Y-71000000D01*
X118411487Y-71291111D01*
X118496401Y-71571034D01*
X118634294Y-71829014D01*
X118819866Y-72055134D01*
X119045986Y-72240706D01*
X119063374Y-72250000D01*
X119045986Y-72259294D01*
X118819866Y-72444866D01*
X118634294Y-72670986D01*
X118496401Y-72928966D01*
X118411487Y-73208889D01*
X118382815Y-73500000D01*
X118411487Y-73791111D01*
X118496401Y-74071034D01*
X118634294Y-74329014D01*
X118819866Y-74555134D01*
X119045986Y-74740706D01*
X119071722Y-74754462D01*
X118865571Y-74910951D01*
X118672504Y-75128807D01*
X118525648Y-75380142D01*
X118433524Y-75643110D01*
X118554845Y-75873000D01*
X119873000Y-75873000D01*
X119873000Y-75853000D01*
X120127000Y-75853000D01*
X120127000Y-75873000D01*
X121445155Y-75873000D01*
X121566476Y-75643110D01*
X121474352Y-75380142D01*
X121327496Y-75128807D01*
X121134429Y-74910951D01*
X120928278Y-74754462D01*
X120954014Y-74740706D01*
X121180134Y-74555134D01*
X121235767Y-74487345D01*
X122343470Y-75595049D01*
X122371183Y-75628817D01*
X122404951Y-75656530D01*
X122404953Y-75656532D01*
X122476452Y-75715210D01*
X122505941Y-75739411D01*
X122659687Y-75821589D01*
X122826510Y-75872195D01*
X122956523Y-75885000D01*
X122956533Y-75885000D01*
X122999999Y-75889281D01*
X123043465Y-75885000D01*
X123956523Y-75885000D01*
X124000000Y-75889282D01*
X124043476Y-75885000D01*
X125897639Y-75885000D01*
X125886928Y-75993750D01*
X125886928Y-76431250D01*
X125903392Y-76598408D01*
X125952150Y-76759142D01*
X126031329Y-76907275D01*
X126049100Y-76928930D01*
X125994463Y-76995506D01*
X125935498Y-77105820D01*
X125899188Y-77225518D01*
X125886928Y-77350000D01*
X125890000Y-77501750D01*
X126048750Y-77660500D01*
X126873000Y-77660500D01*
X126873000Y-77640500D01*
X127127000Y-77640500D01*
X127127000Y-77660500D01*
X127147000Y-77660500D01*
X127147000Y-77914500D01*
X127127000Y-77914500D01*
X127127000Y-78701250D01*
X127285750Y-78860000D01*
X127475000Y-78863072D01*
X127599482Y-78850812D01*
X127615001Y-78846104D01*
X127615001Y-79456521D01*
X127610719Y-79500000D01*
X127627805Y-79673490D01*
X127678412Y-79840313D01*
X127760590Y-79994059D01*
X127843468Y-80095046D01*
X127843471Y-80095049D01*
X127871184Y-80128817D01*
X127904951Y-80156529D01*
X128883470Y-81135049D01*
X128911183Y-81168817D01*
X128944951Y-81196530D01*
X128944953Y-81196532D01*
X129002075Y-81243411D01*
X129045941Y-81279411D01*
X129199687Y-81361589D01*
X129279063Y-81385668D01*
X129346525Y-81486632D01*
X129553368Y-81693475D01*
X129727760Y-81810000D01*
X129553368Y-81926525D01*
X129346525Y-82133368D01*
X129184010Y-82376589D01*
X129072068Y-82646842D01*
X129015000Y-82933740D01*
X129015000Y-83226260D01*
X129072068Y-83513158D01*
X129184010Y-83783411D01*
X129346525Y-84026632D01*
X129553368Y-84233475D01*
X129796589Y-84395990D01*
X130066842Y-84507932D01*
X130353740Y-84565000D01*
X130646260Y-84565000D01*
X130933158Y-84507932D01*
X131203411Y-84395990D01*
X131446632Y-84233475D01*
X131653475Y-84026632D01*
X131771100Y-83850594D01*
X131942412Y-84080269D01*
X132158645Y-84275178D01*
X132408748Y-84424157D01*
X132683109Y-84521481D01*
X132913000Y-84400814D01*
X132913000Y-83207000D01*
X133167000Y-83207000D01*
X133167000Y-84400814D01*
X133396891Y-84521481D01*
X133671252Y-84424157D01*
X133921355Y-84275178D01*
X134137588Y-84080269D01*
X134311641Y-83846920D01*
X134436825Y-83584099D01*
X134481476Y-83436890D01*
X134360155Y-83207000D01*
X133167000Y-83207000D01*
X132913000Y-83207000D01*
X132893000Y-83207000D01*
X132893000Y-82953000D01*
X132913000Y-82953000D01*
X132913000Y-82933000D01*
X133167000Y-82933000D01*
X133167000Y-82953000D01*
X134360155Y-82953000D01*
X134481476Y-82723110D01*
X134436825Y-82575901D01*
X134311641Y-82313080D01*
X134137588Y-82079731D01*
X133921355Y-81884822D01*
X133804466Y-81815195D01*
X133986632Y-81693475D01*
X134193475Y-81486632D01*
X134355990Y-81243411D01*
X134467932Y-80973158D01*
X134525000Y-80686260D01*
X134525000Y-80393740D01*
X134467932Y-80106842D01*
X134355990Y-79836589D01*
X134193475Y-79593368D01*
X133986632Y-79386525D01*
X133812240Y-79270000D01*
X133986632Y-79153475D01*
X134193475Y-78946632D01*
X134234656Y-78885000D01*
X137956531Y-78885000D01*
X138000000Y-78889281D01*
X138043469Y-78885000D01*
X138043477Y-78885000D01*
X138173490Y-78872195D01*
X138340313Y-78821589D01*
X138494059Y-78739411D01*
X138628817Y-78628817D01*
X138656534Y-78595044D01*
X139095045Y-78156533D01*
X139128817Y-78128817D01*
X139239411Y-77994059D01*
X139321589Y-77840313D01*
X139372195Y-77673490D01*
X139385000Y-77543477D01*
X139385000Y-77543469D01*
X139389281Y-77500000D01*
X139385000Y-77456531D01*
X139385000Y-77366578D01*
X139901578Y-76850000D01*
X142386928Y-76850000D01*
X142399188Y-76974482D01*
X142435498Y-77094180D01*
X142494463Y-77204494D01*
X142573815Y-77301185D01*
X142670506Y-77380537D01*
X142780820Y-77439502D01*
X142900518Y-77475812D01*
X143025000Y-77488072D01*
X143714250Y-77485000D01*
X143873000Y-77326250D01*
X143873000Y-76127000D01*
X144127000Y-76127000D01*
X144127000Y-77326250D01*
X144285750Y-77485000D01*
X144975000Y-77488072D01*
X145099482Y-77475812D01*
X145219180Y-77439502D01*
X145329494Y-77380537D01*
X145426185Y-77301185D01*
X145505537Y-77204494D01*
X145564502Y-77094180D01*
X145600812Y-76974482D01*
X145613072Y-76850000D01*
X145610000Y-76285750D01*
X145451250Y-76127000D01*
X144127000Y-76127000D01*
X143873000Y-76127000D01*
X142548750Y-76127000D01*
X142390000Y-76285750D01*
X142386928Y-76850000D01*
X139901578Y-76850000D01*
X142366579Y-74385000D01*
X142680241Y-74385000D01*
X142815608Y-74549945D01*
X142780820Y-74560498D01*
X142670506Y-74619463D01*
X142573815Y-74698815D01*
X142494463Y-74795506D01*
X142435498Y-74905820D01*
X142399188Y-75025518D01*
X142386928Y-75150000D01*
X142390000Y-75714250D01*
X142548750Y-75873000D01*
X143873000Y-75873000D01*
X143873000Y-75853000D01*
X144127000Y-75853000D01*
X144127000Y-75873000D01*
X145451250Y-75873000D01*
X145610000Y-75714250D01*
X145613072Y-75150000D01*
X145600812Y-75025518D01*
X145564502Y-74905820D01*
X145505537Y-74795506D01*
X145426185Y-74698815D01*
X145329494Y-74619463D01*
X145219180Y-74560498D01*
X145184392Y-74549945D01*
X145365706Y-74329014D01*
X145503599Y-74071034D01*
X145588513Y-73791111D01*
X145617185Y-73500000D01*
X145588513Y-73208889D01*
X145503599Y-72928966D01*
X145365706Y-72670986D01*
X145180134Y-72444866D01*
X144954014Y-72259294D01*
X144936626Y-72250000D01*
X144954014Y-72240706D01*
X145180134Y-72055134D01*
X145365706Y-71829014D01*
X145503599Y-71571034D01*
X145588513Y-71291111D01*
X145617185Y-71000000D01*
X145588513Y-70708889D01*
X145503599Y-70428966D01*
X145365706Y-70170986D01*
X145180134Y-69944866D01*
X144954014Y-69759294D01*
X144936626Y-69750000D01*
X144954014Y-69740706D01*
X145180134Y-69555134D01*
X145365706Y-69329014D01*
X145503599Y-69071034D01*
X145588513Y-68791111D01*
X145617185Y-68500000D01*
X145588513Y-68208889D01*
X145503599Y-67928966D01*
X145365706Y-67670986D01*
X145180134Y-67444866D01*
X144954014Y-67259294D01*
X144696034Y-67121401D01*
X144416111Y-67036487D01*
X144197950Y-67015000D01*
X143802050Y-67015000D01*
X143769759Y-67018180D01*
X142656534Y-65904956D01*
X142628817Y-65871183D01*
X142494059Y-65760589D01*
X142340313Y-65678411D01*
X142173490Y-65627805D01*
X142043477Y-65615000D01*
X142043469Y-65615000D01*
X142000000Y-65610719D01*
X141956531Y-65615000D01*
X139043477Y-65615000D01*
X139000000Y-65610718D01*
X138956524Y-65615000D01*
X137584229Y-65615000D01*
X137482275Y-65531329D01*
X137334142Y-65452150D01*
X137173408Y-65403392D01*
X137006250Y-65386928D01*
X136568750Y-65386928D01*
X136401592Y-65403392D01*
X136240858Y-65452150D01*
X136092725Y-65531329D01*
X136000000Y-65607426D01*
X135907275Y-65531329D01*
X135759142Y-65452150D01*
X135598408Y-65403392D01*
X135431250Y-65386928D01*
X134993750Y-65386928D01*
X134826592Y-65403392D01*
X134665858Y-65452150D01*
X134517725Y-65531329D01*
X134415771Y-65615000D01*
X134043469Y-65615000D01*
X134000000Y-65610719D01*
X133956531Y-65615000D01*
X133956523Y-65615000D01*
X133826510Y-65627805D01*
X133659686Y-65678411D01*
X133505941Y-65760589D01*
X133404953Y-65843468D01*
X133404951Y-65843470D01*
X133371183Y-65871183D01*
X133343470Y-65904951D01*
X130338072Y-68910350D01*
X130338072Y-68270000D01*
X130325812Y-68145518D01*
X130289502Y-68025820D01*
X130230537Y-67915506D01*
X130151185Y-67818815D01*
X130054494Y-67739463D01*
X129944180Y-67680498D01*
X129824482Y-67644188D01*
X129700000Y-67631928D01*
X128000000Y-67631928D01*
X127875518Y-67644188D01*
X127755820Y-67680498D01*
X127700627Y-67710000D01*
X125313450Y-67710000D01*
X125132624Y-67589176D01*
X124926067Y-67503617D01*
X124706788Y-67460000D01*
X124483212Y-67460000D01*
X124263933Y-67503617D01*
X124057376Y-67589176D01*
X123876550Y-67710000D01*
X121590928Y-67710000D01*
X121545472Y-67560150D01*
X121463405Y-67406614D01*
X121352962Y-67272038D01*
X121218386Y-67161595D01*
X121064850Y-67079528D01*
X120898254Y-67028992D01*
X120725000Y-67011928D01*
X119275000Y-67011928D01*
X119101746Y-67028992D01*
X118935150Y-67079528D01*
X118781614Y-67161595D01*
X118647038Y-67272038D01*
X118536595Y-67406614D01*
X118454528Y-67560150D01*
X118403992Y-67726746D01*
X118386928Y-67900000D01*
X118386928Y-69100000D01*
X118403992Y-69273254D01*
X118454528Y-69439850D01*
X118536595Y-69593386D01*
X118647038Y-69727962D01*
X118781614Y-69838405D01*
X118883337Y-69892777D01*
X118819866Y-69944866D01*
X118634294Y-70170986D01*
X118496401Y-70428966D01*
X118411487Y-70708889D01*
X118382815Y-71000000D01*
X100710000Y-71000000D01*
X100710000Y-62700881D01*
X102478724Y-62700881D01*
X102838912Y-63190548D01*
X103502882Y-63550849D01*
X104224385Y-63774694D01*
X104975695Y-63853480D01*
X105727938Y-63784178D01*
X106452208Y-63569452D01*
X107120670Y-63217555D01*
X107161088Y-63190548D01*
X107521276Y-62700881D01*
X157478724Y-62700881D01*
X157838912Y-63190548D01*
X158502882Y-63550849D01*
X159224385Y-63774694D01*
X159975695Y-63853480D01*
X160727938Y-63784178D01*
X161452208Y-63569452D01*
X162120670Y-63217555D01*
X162161088Y-63190548D01*
X162521276Y-62700881D01*
X160000000Y-60179605D01*
X157478724Y-62700881D01*
X107521276Y-62700881D01*
X105000000Y-60179605D01*
X102478724Y-62700881D01*
X100710000Y-62700881D01*
X100710000Y-60031618D01*
X100714991Y-59975695D01*
X101146520Y-59975695D01*
X101215822Y-60727938D01*
X101430548Y-61452208D01*
X101782445Y-62120670D01*
X101809452Y-62161088D01*
X102299119Y-62521276D01*
X104820395Y-60000000D01*
X105179605Y-60000000D01*
X107700881Y-62521276D01*
X108190548Y-62161088D01*
X108550849Y-61497118D01*
X108774694Y-60775615D01*
X108853480Y-60024305D01*
X108849002Y-59975695D01*
X156146520Y-59975695D01*
X156215822Y-60727938D01*
X156430548Y-61452208D01*
X156782445Y-62120670D01*
X156809452Y-62161088D01*
X157299119Y-62521276D01*
X159820395Y-60000000D01*
X160179605Y-60000000D01*
X162700881Y-62521276D01*
X163190548Y-62161088D01*
X163550849Y-61497118D01*
X163774694Y-60775615D01*
X163853480Y-60024305D01*
X163784178Y-59272062D01*
X163569452Y-58547792D01*
X163217555Y-57879330D01*
X163190548Y-57838912D01*
X162700881Y-57478724D01*
X160179605Y-60000000D01*
X159820395Y-60000000D01*
X157299119Y-57478724D01*
X156809452Y-57838912D01*
X156449151Y-58502882D01*
X156225306Y-59224385D01*
X156146520Y-59975695D01*
X108849002Y-59975695D01*
X108784178Y-59272062D01*
X108569452Y-58547792D01*
X108217555Y-57879330D01*
X108190548Y-57838912D01*
X107700881Y-57478724D01*
X105179605Y-60000000D01*
X104820395Y-60000000D01*
X102299119Y-57478724D01*
X101809452Y-57838912D01*
X101449151Y-58502882D01*
X101225306Y-59224385D01*
X101146520Y-59975695D01*
X100714991Y-59975695D01*
X100780578Y-59240808D01*
X100981705Y-58505611D01*
X101309846Y-57817649D01*
X101682447Y-57299119D01*
X102478724Y-57299119D01*
X105000000Y-59820395D01*
X107521276Y-57299119D01*
X157478724Y-57299119D01*
X160000000Y-59820395D01*
X162521276Y-57299119D01*
X162161088Y-56809452D01*
X161497118Y-56449151D01*
X160775615Y-56225306D01*
X160024305Y-56146520D01*
X159272062Y-56215822D01*
X158547792Y-56430548D01*
X157879330Y-56782445D01*
X157838912Y-56809452D01*
X157478724Y-57299119D01*
X107521276Y-57299119D01*
X107161088Y-56809452D01*
X106497118Y-56449151D01*
X105775615Y-56225306D01*
X105024305Y-56146520D01*
X104272062Y-56215822D01*
X103547792Y-56430548D01*
X102879330Y-56782445D01*
X102838912Y-56809452D01*
X102478724Y-57299119D01*
X101682447Y-57299119D01*
X101754628Y-57198669D01*
X102301988Y-56668239D01*
X102934639Y-56243116D01*
X103632561Y-55936749D01*
X104379183Y-55757501D01*
X105026030Y-55710000D01*
X159968382Y-55710000D01*
X160759192Y-55780578D01*
G36*
X134517725Y-67468671D02*
G01*
X134665858Y-67547850D01*
X134826592Y-67596608D01*
X134993750Y-67613072D01*
X135431250Y-67613072D01*
X135598408Y-67596608D01*
X135759142Y-67547850D01*
X135907275Y-67468671D01*
X136000000Y-67392574D01*
X136092725Y-67468671D01*
X136240858Y-67547850D01*
X136401592Y-67596608D01*
X136568750Y-67613072D01*
X137006250Y-67613072D01*
X137173408Y-67596608D01*
X137334142Y-67547850D01*
X137482275Y-67468671D01*
X137584229Y-67385000D01*
X137886928Y-67385000D01*
X137886928Y-67431250D01*
X137903392Y-67598408D01*
X137952150Y-67759142D01*
X138031329Y-67907275D01*
X138107426Y-68000000D01*
X138031329Y-68092725D01*
X137952150Y-68240858D01*
X137903392Y-68401592D01*
X137886928Y-68568750D01*
X137886928Y-68980000D01*
X137632163Y-68980000D01*
X137638072Y-68920000D01*
X137635000Y-68880750D01*
X137476250Y-68722000D01*
X136277000Y-68722000D01*
X136277000Y-68742000D01*
X136023000Y-68742000D01*
X136023000Y-68722000D01*
X134823750Y-68722000D01*
X134665000Y-68880750D01*
X134661928Y-68920000D01*
X134674188Y-69044482D01*
X134710498Y-69164180D01*
X134745680Y-69230000D01*
X134710498Y-69295820D01*
X134674188Y-69415518D01*
X134661928Y-69540000D01*
X134661928Y-70190000D01*
X134674188Y-70314482D01*
X134710498Y-70434180D01*
X134745680Y-70500000D01*
X134710498Y-70565820D01*
X134674188Y-70685518D01*
X134661928Y-70810000D01*
X134661928Y-71460000D01*
X134674188Y-71584482D01*
X134710498Y-71704180D01*
X134745680Y-71770000D01*
X134710498Y-71835820D01*
X134674188Y-71955518D01*
X134661928Y-72080000D01*
X134661928Y-72730000D01*
X134674188Y-72854482D01*
X134710498Y-72974180D01*
X134769463Y-73084494D01*
X134848815Y-73181185D01*
X134945506Y-73260537D01*
X135055820Y-73319502D01*
X135175518Y-73355812D01*
X135300000Y-73368072D01*
X136057188Y-73368072D01*
X135994176Y-73462376D01*
X135908617Y-73668933D01*
X135865000Y-73888212D01*
X135865000Y-74111788D01*
X135908617Y-74331067D01*
X135994176Y-74537624D01*
X136118388Y-74723520D01*
X136276480Y-74881612D01*
X136462376Y-75005824D01*
X136668933Y-75091383D01*
X136888212Y-75135000D01*
X137111788Y-75135000D01*
X137331067Y-75091383D01*
X137392795Y-75065814D01*
X137403392Y-75173408D01*
X137452150Y-75334142D01*
X137531329Y-75482275D01*
X137615001Y-75584230D01*
X137615000Y-76956523D01*
X137615000Y-76956531D01*
X137610719Y-77000000D01*
X137615000Y-77043469D01*
X137615000Y-77115000D01*
X134234656Y-77115000D01*
X134193475Y-77053368D01*
X133986632Y-76846525D01*
X133743411Y-76684010D01*
X133473158Y-76572068D01*
X133186260Y-76515000D01*
X132893740Y-76515000D01*
X132606842Y-76572068D01*
X132336589Y-76684010D01*
X132093368Y-76846525D01*
X131961513Y-76978380D01*
X131939502Y-76905820D01*
X131880537Y-76795506D01*
X131801185Y-76698815D01*
X131704494Y-76619463D01*
X131657327Y-76594251D01*
X133595050Y-74656529D01*
X133628817Y-74628817D01*
X133684886Y-74560498D01*
X133739411Y-74494059D01*
X133764464Y-74447187D01*
X133821589Y-74340313D01*
X133872195Y-74173490D01*
X133885000Y-74043477D01*
X133885000Y-74043469D01*
X133889281Y-74000000D01*
X133885000Y-73956531D01*
X133885000Y-72273469D01*
X133889281Y-72230000D01*
X133885000Y-72186531D01*
X133885000Y-72186523D01*
X133872195Y-72056510D01*
X133834307Y-71931612D01*
X133821589Y-71889686D01*
X133739411Y-71735941D01*
X133656532Y-71634953D01*
X133656530Y-71634951D01*
X133628817Y-71601183D01*
X133595049Y-71573470D01*
X132291536Y-70269958D01*
X132291532Y-70269953D01*
X131886578Y-69865000D01*
X133481578Y-68270000D01*
X134661928Y-68270000D01*
X134665000Y-68309250D01*
X134823750Y-68468000D01*
X136023000Y-68468000D01*
X136023000Y-67793750D01*
X136277000Y-67793750D01*
X136277000Y-68468000D01*
X137476250Y-68468000D01*
X137635000Y-68309250D01*
X137638072Y-68270000D01*
X137625812Y-68145518D01*
X137589502Y-68025820D01*
X137530537Y-67915506D01*
X137451185Y-67818815D01*
X137354494Y-67739463D01*
X137244180Y-67680498D01*
X137124482Y-67644188D01*
X137000000Y-67631928D01*
X136435750Y-67635000D01*
X136277000Y-67793750D01*
X136023000Y-67793750D01*
X135864250Y-67635000D01*
X135300000Y-67631928D01*
X135175518Y-67644188D01*
X135055820Y-67680498D01*
X134945506Y-67739463D01*
X134848815Y-67818815D01*
X134769463Y-67915506D01*
X134710498Y-68025820D01*
X134674188Y-68145518D01*
X134661928Y-68270000D01*
X133481578Y-68270000D01*
X134366579Y-67385000D01*
X134415771Y-67385000D01*
X134517725Y-67468671D01*
G37*
X134517725Y-67468671D02*
X134665858Y-67547850D01*
X134826592Y-67596608D01*
X134993750Y-67613072D01*
X135431250Y-67613072D01*
X135598408Y-67596608D01*
X135759142Y-67547850D01*
X135907275Y-67468671D01*
X136000000Y-67392574D01*
X136092725Y-67468671D01*
X136240858Y-67547850D01*
X136401592Y-67596608D01*
X136568750Y-67613072D01*
X137006250Y-67613072D01*
X137173408Y-67596608D01*
X137334142Y-67547850D01*
X137482275Y-67468671D01*
X137584229Y-67385000D01*
X137886928Y-67385000D01*
X137886928Y-67431250D01*
X137903392Y-67598408D01*
X137952150Y-67759142D01*
X138031329Y-67907275D01*
X138107426Y-68000000D01*
X138031329Y-68092725D01*
X137952150Y-68240858D01*
X137903392Y-68401592D01*
X137886928Y-68568750D01*
X137886928Y-68980000D01*
X137632163Y-68980000D01*
X137638072Y-68920000D01*
X137635000Y-68880750D01*
X137476250Y-68722000D01*
X136277000Y-68722000D01*
X136277000Y-68742000D01*
X136023000Y-68742000D01*
X136023000Y-68722000D01*
X134823750Y-68722000D01*
X134665000Y-68880750D01*
X134661928Y-68920000D01*
X134674188Y-69044482D01*
X134710498Y-69164180D01*
X134745680Y-69230000D01*
X134710498Y-69295820D01*
X134674188Y-69415518D01*
X134661928Y-69540000D01*
X134661928Y-70190000D01*
X134674188Y-70314482D01*
X134710498Y-70434180D01*
X134745680Y-70500000D01*
X134710498Y-70565820D01*
X134674188Y-70685518D01*
X134661928Y-70810000D01*
X134661928Y-71460000D01*
X134674188Y-71584482D01*
X134710498Y-71704180D01*
X134745680Y-71770000D01*
X134710498Y-71835820D01*
X134674188Y-71955518D01*
X134661928Y-72080000D01*
X134661928Y-72730000D01*
X134674188Y-72854482D01*
X134710498Y-72974180D01*
X134769463Y-73084494D01*
X134848815Y-73181185D01*
X134945506Y-73260537D01*
X135055820Y-73319502D01*
X135175518Y-73355812D01*
X135300000Y-73368072D01*
X136057188Y-73368072D01*
X135994176Y-73462376D01*
X135908617Y-73668933D01*
X135865000Y-73888212D01*
X135865000Y-74111788D01*
X135908617Y-74331067D01*
X135994176Y-74537624D01*
X136118388Y-74723520D01*
X136276480Y-74881612D01*
X136462376Y-75005824D01*
X136668933Y-75091383D01*
X136888212Y-75135000D01*
X137111788Y-75135000D01*
X137331067Y-75091383D01*
X137392795Y-75065814D01*
X137403392Y-75173408D01*
X137452150Y-75334142D01*
X137531329Y-75482275D01*
X137615001Y-75584230D01*
X137615000Y-76956523D01*
X137615000Y-76956531D01*
X137610719Y-77000000D01*
X137615000Y-77043469D01*
X137615000Y-77115000D01*
X134234656Y-77115000D01*
X134193475Y-77053368D01*
X133986632Y-76846525D01*
X133743411Y-76684010D01*
X133473158Y-76572068D01*
X133186260Y-76515000D01*
X132893740Y-76515000D01*
X132606842Y-76572068D01*
X132336589Y-76684010D01*
X132093368Y-76846525D01*
X131961513Y-76978380D01*
X131939502Y-76905820D01*
X131880537Y-76795506D01*
X131801185Y-76698815D01*
X131704494Y-76619463D01*
X131657327Y-76594251D01*
X133595050Y-74656529D01*
X133628817Y-74628817D01*
X133684886Y-74560498D01*
X133739411Y-74494059D01*
X133764464Y-74447187D01*
X133821589Y-74340313D01*
X133872195Y-74173490D01*
X133885000Y-74043477D01*
X133885000Y-74043469D01*
X133889281Y-74000000D01*
X133885000Y-73956531D01*
X133885000Y-72273469D01*
X133889281Y-72230000D01*
X133885000Y-72186531D01*
X133885000Y-72186523D01*
X133872195Y-72056510D01*
X133834307Y-71931612D01*
X133821589Y-71889686D01*
X133739411Y-71735941D01*
X133656532Y-71634953D01*
X133656530Y-71634951D01*
X133628817Y-71601183D01*
X133595049Y-71573470D01*
X132291536Y-70269958D01*
X132291532Y-70269953D01*
X131886578Y-69865000D01*
X133481578Y-68270000D01*
X134661928Y-68270000D01*
X134665000Y-68309250D01*
X134823750Y-68468000D01*
X136023000Y-68468000D01*
X136023000Y-67793750D01*
X136277000Y-67793750D01*
X136277000Y-68468000D01*
X137476250Y-68468000D01*
X137635000Y-68309250D01*
X137638072Y-68270000D01*
X137625812Y-68145518D01*
X137589502Y-68025820D01*
X137530537Y-67915506D01*
X137451185Y-67818815D01*
X137354494Y-67739463D01*
X137244180Y-67680498D01*
X137124482Y-67644188D01*
X137000000Y-67631928D01*
X136435750Y-67635000D01*
X136277000Y-67793750D01*
X136023000Y-67793750D01*
X135864250Y-67635000D01*
X135300000Y-67631928D01*
X135175518Y-67644188D01*
X135055820Y-67680498D01*
X134945506Y-67739463D01*
X134848815Y-67818815D01*
X134769463Y-67915506D01*
X134710498Y-68025820D01*
X134674188Y-68145518D01*
X134661928Y-68270000D01*
X133481578Y-68270000D01*
X134366579Y-67385000D01*
X134415771Y-67385000D01*
X134517725Y-67468671D01*
G36*
X132115001Y-72596580D02*
G01*
X132115000Y-73633421D01*
X129904951Y-75843471D01*
X129871184Y-75871183D01*
X129843471Y-75904951D01*
X129843468Y-75904954D01*
X129760590Y-76005941D01*
X129678412Y-76159687D01*
X129627805Y-76326510D01*
X129610719Y-76500000D01*
X129612260Y-76515645D01*
X129525518Y-76524188D01*
X129405820Y-76560498D01*
X129385000Y-76571627D01*
X129385000Y-75866578D01*
X131595049Y-73656530D01*
X131628817Y-73628817D01*
X131691193Y-73552813D01*
X131739411Y-73494059D01*
X131804548Y-73372194D01*
X131821589Y-73340313D01*
X131872195Y-73173490D01*
X131885000Y-73043477D01*
X131885000Y-73043469D01*
X131889281Y-73000000D01*
X131885000Y-72956531D01*
X131885000Y-72366579D01*
X132115001Y-72596580D01*
G37*
X132115001Y-72596580D02*
X132115000Y-73633421D01*
X129904951Y-75843471D01*
X129871184Y-75871183D01*
X129843471Y-75904951D01*
X129843468Y-75904954D01*
X129760590Y-76005941D01*
X129678412Y-76159687D01*
X129627805Y-76326510D01*
X129610719Y-76500000D01*
X129612260Y-76515645D01*
X129525518Y-76524188D01*
X129405820Y-76560498D01*
X129385000Y-76571627D01*
X129385000Y-75866578D01*
X131595049Y-73656530D01*
X131628817Y-73628817D01*
X131691193Y-73552813D01*
X131739411Y-73494059D01*
X131804548Y-73372194D01*
X131821589Y-73340313D01*
X131872195Y-73173490D01*
X131885000Y-73043477D01*
X131885000Y-73043469D01*
X131889281Y-73000000D01*
X131885000Y-72956531D01*
X131885000Y-72366579D01*
X132115001Y-72596580D01*
G36*
X142819866Y-72055134D02*
G01*
X143045986Y-72240706D01*
X143063374Y-72250000D01*
X143045986Y-72259294D01*
X142819866Y-72444866D01*
X142680241Y-72615000D01*
X142043465Y-72615000D01*
X141999999Y-72610719D01*
X141956533Y-72615000D01*
X141956523Y-72615000D01*
X141826510Y-72627805D01*
X141659687Y-72678411D01*
X141505941Y-72760589D01*
X141505939Y-72760590D01*
X141505940Y-72760590D01*
X141404953Y-72843468D01*
X141404951Y-72843470D01*
X141371183Y-72871183D01*
X141343470Y-72904951D01*
X139613072Y-74635350D01*
X139613072Y-74568750D01*
X139596608Y-74401592D01*
X139547850Y-74240858D01*
X139468671Y-74092725D01*
X139392574Y-74000000D01*
X139468671Y-73907275D01*
X139547850Y-73759142D01*
X139596608Y-73598408D01*
X139613072Y-73431250D01*
X139613072Y-72993750D01*
X139596608Y-72826592D01*
X139547850Y-72665858D01*
X139468671Y-72517725D01*
X139380439Y-72410213D01*
X139372195Y-72326510D01*
X139321589Y-72159687D01*
X139246926Y-72020000D01*
X142791032Y-72020000D01*
X142819866Y-72055134D01*
G37*
X142819866Y-72055134D02*
X143045986Y-72240706D01*
X143063374Y-72250000D01*
X143045986Y-72259294D01*
X142819866Y-72444866D01*
X142680241Y-72615000D01*
X142043465Y-72615000D01*
X141999999Y-72610719D01*
X141956533Y-72615000D01*
X141956523Y-72615000D01*
X141826510Y-72627805D01*
X141659687Y-72678411D01*
X141505941Y-72760589D01*
X141505939Y-72760590D01*
X141505940Y-72760590D01*
X141404953Y-72843468D01*
X141404951Y-72843470D01*
X141371183Y-72871183D01*
X141343470Y-72904951D01*
X139613072Y-74635350D01*
X139613072Y-74568750D01*
X139596608Y-74401592D01*
X139547850Y-74240858D01*
X139468671Y-74092725D01*
X139392574Y-74000000D01*
X139468671Y-73907275D01*
X139547850Y-73759142D01*
X139596608Y-73598408D01*
X139613072Y-73431250D01*
X139613072Y-72993750D01*
X139596608Y-72826592D01*
X139547850Y-72665858D01*
X139468671Y-72517725D01*
X139380439Y-72410213D01*
X139372195Y-72326510D01*
X139321589Y-72159687D01*
X139246926Y-72020000D01*
X142791032Y-72020000D01*
X142819866Y-72055134D01*
G36*
X142422152Y-68173731D02*
G01*
X142411487Y-68208889D01*
X142382815Y-68500000D01*
X142411487Y-68791111D01*
X142496401Y-69071034D01*
X142634294Y-69329014D01*
X142819866Y-69555134D01*
X143045986Y-69740706D01*
X143063374Y-69750000D01*
X143045986Y-69759294D01*
X142819866Y-69944866D01*
X142634294Y-70170986D01*
X142592060Y-70250000D01*
X139501578Y-70250000D01*
X139595045Y-70156533D01*
X139628817Y-70128817D01*
X139739411Y-69994059D01*
X139821589Y-69840313D01*
X139872195Y-69673490D01*
X139880439Y-69589787D01*
X139968671Y-69482275D01*
X140047850Y-69334142D01*
X140096608Y-69173408D01*
X140113072Y-69006250D01*
X140113072Y-68568750D01*
X140096608Y-68401592D01*
X140047850Y-68240858D01*
X139968671Y-68092725D01*
X139892574Y-68000000D01*
X139968671Y-67907275D01*
X140047850Y-67759142D01*
X140096608Y-67598408D01*
X140113072Y-67431250D01*
X140113072Y-67385000D01*
X141633422Y-67385000D01*
X142422152Y-68173731D01*
G37*
X142422152Y-68173731D02*
X142411487Y-68208889D01*
X142382815Y-68500000D01*
X142411487Y-68791111D01*
X142496401Y-69071034D01*
X142634294Y-69329014D01*
X142819866Y-69555134D01*
X143045986Y-69740706D01*
X143063374Y-69750000D01*
X143045986Y-69759294D01*
X142819866Y-69944866D01*
X142634294Y-70170986D01*
X142592060Y-70250000D01*
X139501578Y-70250000D01*
X139595045Y-70156533D01*
X139628817Y-70128817D01*
X139739411Y-69994059D01*
X139821589Y-69840313D01*
X139872195Y-69673490D01*
X139880439Y-69589787D01*
X139968671Y-69482275D01*
X140047850Y-69334142D01*
X140096608Y-69173408D01*
X140113072Y-69006250D01*
X140113072Y-68568750D01*
X140096608Y-68401592D01*
X140047850Y-68240858D01*
X139968671Y-68092725D01*
X139892574Y-68000000D01*
X139968671Y-67907275D01*
X140047850Y-67759142D01*
X140096608Y-67598408D01*
X140113072Y-67431250D01*
X140113072Y-67385000D01*
X141633422Y-67385000D01*
X142422152Y-68173731D01*
%TD*%
M02*
