%TF.GenerationSoftware,KiCad,Pcbnew,(5.1.6)-1*%
%TF.CreationDate,2020-12-10T00:03:04+01:00*%
%TF.ProjectId,06_I2C_2_NEOPIXELS,30365f49-3243-45f3-925f-4e454f504958,rev?*%
%TF.SameCoordinates,Original*%
%TF.FileFunction,Legend,Top*%
%TF.FilePolarity,Positive*%
%FSLAX46Y46*%
G04 Gerber Fmt 4.6, Leading zero omitted, Abs format (unit mm)*
G04 Created by KiCad (PCBNEW (5.1.6)-1) date 2020-12-10 00:03:04*
%MOMM*%
%LPD*%
G01*
G04 APERTURE LIST*
%ADD10C,0.150000*%
%ADD11C,0.300000*%
%ADD12C,0.120000*%
%TA.AperFunction,Profile*%
%ADD13C,0.150000*%
%TD*%
G04 APERTURE END LIST*
D10*
X145238095Y-80627380D02*
X145238095Y-79627380D01*
X145809523Y-80627380D01*
X145809523Y-79627380D01*
X146285714Y-80103571D02*
X146619047Y-80103571D01*
X146761904Y-80627380D02*
X146285714Y-80627380D01*
X146285714Y-79627380D01*
X146761904Y-79627380D01*
X147380952Y-79627380D02*
X147571428Y-79627380D01*
X147666666Y-79675000D01*
X147761904Y-79770238D01*
X147809523Y-79960714D01*
X147809523Y-80294047D01*
X147761904Y-80484523D01*
X147666666Y-80579761D01*
X147571428Y-80627380D01*
X147380952Y-80627380D01*
X147285714Y-80579761D01*
X147190476Y-80484523D01*
X147142857Y-80294047D01*
X147142857Y-79960714D01*
X147190476Y-79770238D01*
X147285714Y-79675000D01*
X147380952Y-79627380D01*
X144190476Y-82277380D02*
X144190476Y-81277380D01*
X144571428Y-81277380D01*
X144666666Y-81325000D01*
X144714285Y-81372619D01*
X144761904Y-81467857D01*
X144761904Y-81610714D01*
X144714285Y-81705952D01*
X144666666Y-81753571D01*
X144571428Y-81801190D01*
X144190476Y-81801190D01*
X145190476Y-82277380D02*
X145190476Y-81277380D01*
X145571428Y-81277380D02*
X146238095Y-82277380D01*
X146238095Y-81277380D02*
X145571428Y-82277380D01*
X146619047Y-81753571D02*
X146952380Y-81753571D01*
X147095238Y-82277380D02*
X146619047Y-82277380D01*
X146619047Y-81277380D01*
X147095238Y-81277380D01*
X148000000Y-82277380D02*
X147523809Y-82277380D01*
X147523809Y-81277380D01*
X148285714Y-82229761D02*
X148428571Y-82277380D01*
X148666666Y-82277380D01*
X148761904Y-82229761D01*
X148809523Y-82182142D01*
X148857142Y-82086904D01*
X148857142Y-81991666D01*
X148809523Y-81896428D01*
X148761904Y-81848809D01*
X148666666Y-81801190D01*
X148476190Y-81753571D01*
X148380952Y-81705952D01*
X148333333Y-81658333D01*
X148285714Y-81563095D01*
X148285714Y-81467857D01*
X148333333Y-81372619D01*
X148380952Y-81325000D01*
X148476190Y-81277380D01*
X148714285Y-81277380D01*
X148857142Y-81325000D01*
D11*
X115047619Y-81404761D02*
X115047619Y-79404761D01*
X115904761Y-79595238D02*
X116000000Y-79500000D01*
X116190476Y-79404761D01*
X116666666Y-79404761D01*
X116857142Y-79500000D01*
X116952380Y-79595238D01*
X117047619Y-79785714D01*
X117047619Y-79976190D01*
X116952380Y-80261904D01*
X115809523Y-81404761D01*
X117047619Y-81404761D01*
X119047619Y-81214285D02*
X118952380Y-81309523D01*
X118666666Y-81404761D01*
X118476190Y-81404761D01*
X118190476Y-81309523D01*
X118000000Y-81119047D01*
X117904761Y-80928571D01*
X117809523Y-80547619D01*
X117809523Y-80261904D01*
X117904761Y-79880952D01*
X118000000Y-79690476D01*
X118190476Y-79500000D01*
X118476190Y-79404761D01*
X118666666Y-79404761D01*
X118952380Y-79500000D01*
X119047619Y-79595238D01*
D10*
X130261904Y-75952380D02*
X130261904Y-74952380D01*
X130642857Y-74952380D01*
X130738095Y-75000000D01*
X130785714Y-75047619D01*
X130833333Y-75142857D01*
X130833333Y-75285714D01*
X130785714Y-75380952D01*
X130738095Y-75428571D01*
X130642857Y-75476190D01*
X130261904Y-75476190D01*
X131595238Y-75428571D02*
X131738095Y-75476190D01*
X131785714Y-75523809D01*
X131833333Y-75619047D01*
X131833333Y-75761904D01*
X131785714Y-75857142D01*
X131738095Y-75904761D01*
X131642857Y-75952380D01*
X131261904Y-75952380D01*
X131261904Y-74952380D01*
X131595238Y-74952380D01*
X131690476Y-75000000D01*
X131738095Y-75047619D01*
X131785714Y-75142857D01*
X131785714Y-75238095D01*
X131738095Y-75333333D01*
X131690476Y-75380952D01*
X131595238Y-75428571D01*
X131261904Y-75428571D01*
X132785714Y-75952380D02*
X132214285Y-75952380D01*
X132500000Y-75952380D02*
X132500000Y-74952380D01*
X132404761Y-75095238D01*
X132309523Y-75190476D01*
X132214285Y-75238095D01*
X125809523Y-80904761D02*
X125952380Y-80952380D01*
X126190476Y-80952380D01*
X126285714Y-80904761D01*
X126333333Y-80857142D01*
X126380952Y-80761904D01*
X126380952Y-80666666D01*
X126333333Y-80571428D01*
X126285714Y-80523809D01*
X126190476Y-80476190D01*
X126000000Y-80428571D01*
X125904761Y-80380952D01*
X125857142Y-80333333D01*
X125809523Y-80238095D01*
X125809523Y-80142857D01*
X125857142Y-80047619D01*
X125904761Y-80000000D01*
X126000000Y-79952380D01*
X126238095Y-79952380D01*
X126380952Y-80000000D01*
X127380952Y-80857142D02*
X127333333Y-80904761D01*
X127190476Y-80952380D01*
X127095238Y-80952380D01*
X126952380Y-80904761D01*
X126857142Y-80809523D01*
X126809523Y-80714285D01*
X126761904Y-80523809D01*
X126761904Y-80380952D01*
X126809523Y-80190476D01*
X126857142Y-80095238D01*
X126952380Y-80000000D01*
X127095238Y-79952380D01*
X127190476Y-79952380D01*
X127333333Y-80000000D01*
X127380952Y-80047619D01*
X128285714Y-80952380D02*
X127809523Y-80952380D01*
X127809523Y-79952380D01*
X124952380Y-83952380D02*
X124619047Y-83476190D01*
X124380952Y-83952380D02*
X124380952Y-82952380D01*
X124761904Y-82952380D01*
X124857142Y-83000000D01*
X124904761Y-83047619D01*
X124952380Y-83142857D01*
X124952380Y-83285714D01*
X124904761Y-83380952D01*
X124857142Y-83428571D01*
X124761904Y-83476190D01*
X124380952Y-83476190D01*
X125333333Y-83904761D02*
X125476190Y-83952380D01*
X125714285Y-83952380D01*
X125809523Y-83904761D01*
X125857142Y-83857142D01*
X125904761Y-83761904D01*
X125904761Y-83666666D01*
X125857142Y-83571428D01*
X125809523Y-83523809D01*
X125714285Y-83476190D01*
X125523809Y-83428571D01*
X125428571Y-83380952D01*
X125380952Y-83333333D01*
X125333333Y-83238095D01*
X125333333Y-83142857D01*
X125380952Y-83047619D01*
X125428571Y-83000000D01*
X125523809Y-82952380D01*
X125761904Y-82952380D01*
X125904761Y-83000000D01*
X126190476Y-82952380D02*
X126761904Y-82952380D01*
X126476190Y-83952380D02*
X126476190Y-82952380D01*
X135809523Y-77452380D02*
X135333333Y-77452380D01*
X135285714Y-77928571D01*
X135333333Y-77880952D01*
X135428571Y-77833333D01*
X135666666Y-77833333D01*
X135761904Y-77880952D01*
X135809523Y-77928571D01*
X135857142Y-78023809D01*
X135857142Y-78261904D01*
X135809523Y-78357142D01*
X135761904Y-78404761D01*
X135666666Y-78452380D01*
X135428571Y-78452380D01*
X135333333Y-78404761D01*
X135285714Y-78357142D01*
X136142857Y-77452380D02*
X136476190Y-78452380D01*
X136809523Y-77452380D01*
X134785714Y-80904761D02*
X134928571Y-80952380D01*
X135166666Y-80952380D01*
X135261904Y-80904761D01*
X135309523Y-80857142D01*
X135357142Y-80761904D01*
X135357142Y-80666666D01*
X135309523Y-80571428D01*
X135261904Y-80523809D01*
X135166666Y-80476190D01*
X134976190Y-80428571D01*
X134880952Y-80380952D01*
X134833333Y-80333333D01*
X134785714Y-80238095D01*
X134785714Y-80142857D01*
X134833333Y-80047619D01*
X134880952Y-80000000D01*
X134976190Y-79952380D01*
X135214285Y-79952380D01*
X135357142Y-80000000D01*
X135785714Y-80952380D02*
X135785714Y-79952380D01*
X136023809Y-79952380D01*
X136166666Y-80000000D01*
X136261904Y-80095238D01*
X136309523Y-80190476D01*
X136357142Y-80380952D01*
X136357142Y-80523809D01*
X136309523Y-80714285D01*
X136261904Y-80809523D01*
X136166666Y-80904761D01*
X136023809Y-80952380D01*
X135785714Y-80952380D01*
X136738095Y-80666666D02*
X137214285Y-80666666D01*
X136642857Y-80952380D02*
X136976190Y-79952380D01*
X137309523Y-80952380D01*
X135238095Y-83000000D02*
X135142857Y-82952380D01*
X135000000Y-82952380D01*
X134857142Y-83000000D01*
X134761904Y-83095238D01*
X134714285Y-83190476D01*
X134666666Y-83380952D01*
X134666666Y-83523809D01*
X134714285Y-83714285D01*
X134761904Y-83809523D01*
X134857142Y-83904761D01*
X135000000Y-83952380D01*
X135095238Y-83952380D01*
X135238095Y-83904761D01*
X135285714Y-83857142D01*
X135285714Y-83523809D01*
X135095238Y-83523809D01*
X135714285Y-83952380D02*
X135714285Y-82952380D01*
X136285714Y-83952380D01*
X136285714Y-82952380D01*
X136761904Y-83952380D02*
X136761904Y-82952380D01*
X137000000Y-82952380D01*
X137142857Y-83000000D01*
X137238095Y-83095238D01*
X137285714Y-83190476D01*
X137333333Y-83380952D01*
X137333333Y-83523809D01*
X137285714Y-83714285D01*
X137238095Y-83809523D01*
X137142857Y-83904761D01*
X137000000Y-83952380D01*
X136761904Y-83952380D01*
D12*
X155000000Y-85000000D02*
X155000000Y-65000000D01*
X110000000Y-85000000D02*
X155000000Y-85000000D01*
D13*
X160000000Y-55000000D02*
G75*
G02*
X165000000Y-60000000I0J-5000000D01*
G01*
D12*
X110000000Y-65000000D02*
X110000000Y-85000000D01*
X155000000Y-65000000D02*
X110000000Y-65000000D01*
D13*
X165000000Y-90000000D02*
G75*
G02*
X160000000Y-95000000I-5000000J0D01*
G01*
X105000000Y-95000000D02*
G75*
G02*
X100000000Y-90000000I0J5000000D01*
G01*
X100000000Y-60000000D02*
G75*
G02*
X105000000Y-55000000I5000000J0D01*
G01*
X100000000Y-90000000D02*
X100000000Y-60000000D01*
X160000000Y-95000000D02*
X105000000Y-95000000D01*
X165000000Y-60000000D02*
X165000000Y-90000000D01*
X105000000Y-55000000D02*
X160000000Y-55000000D01*
D12*
%TO.C,C1*%
X126490000Y-76837221D02*
X126490000Y-77162779D01*
X127510000Y-76837221D02*
X127510000Y-77162779D01*
%TO.C,J1*%
X141900000Y-75700000D02*
X142500000Y-76000000D01*
X141900000Y-76300000D02*
X141900000Y-75700000D01*
X142500000Y-76000000D02*
X141900000Y-76300000D01*
X147200000Y-68250000D02*
X147200000Y-68750000D01*
X152700000Y-68250000D02*
X147200000Y-68250000D01*
X152700000Y-68750000D02*
X152700000Y-68250000D01*
X147200000Y-68750000D02*
X152700000Y-68750000D01*
X147200000Y-70750000D02*
X147200000Y-71250000D01*
X152700000Y-70750000D02*
X147200000Y-70750000D01*
X152700000Y-71250000D02*
X152700000Y-70750000D01*
X147200000Y-71250000D02*
X152700000Y-71250000D01*
X147200000Y-73250000D02*
X147200000Y-73750000D01*
X152700000Y-73250000D02*
X147200000Y-73250000D01*
X152700000Y-73750000D02*
X152700000Y-73250000D01*
X147200000Y-73750000D02*
X152700000Y-73750000D01*
X147200000Y-75750000D02*
X147200000Y-76250000D01*
X152700000Y-75750000D02*
X147200000Y-75750000D01*
X152700000Y-76250000D02*
X152700000Y-75750000D01*
X147200000Y-76250000D02*
X152700000Y-76250000D01*
X146090000Y-67360000D02*
X146090000Y-72250000D01*
X141590000Y-67360000D02*
X146090000Y-67360000D01*
X141590000Y-65940000D02*
X141590000Y-67360000D01*
X153310000Y-65940000D02*
X141590000Y-65940000D01*
X153310000Y-72250000D02*
X153310000Y-65940000D01*
X146090000Y-77140000D02*
X146090000Y-72250000D01*
X141590000Y-77140000D02*
X146090000Y-77140000D01*
X141590000Y-78560000D02*
X141590000Y-77140000D01*
X153310000Y-78560000D02*
X141590000Y-78560000D01*
X153310000Y-72250000D02*
X153310000Y-78560000D01*
%TO.C,J2*%
X110690000Y-72250000D02*
X110690000Y-65940000D01*
X110690000Y-65940000D02*
X122410000Y-65940000D01*
X122410000Y-65940000D02*
X122410000Y-67360000D01*
X122410000Y-67360000D02*
X117910000Y-67360000D01*
X117910000Y-67360000D02*
X117910000Y-72250000D01*
X110690000Y-72250000D02*
X110690000Y-78560000D01*
X110690000Y-78560000D02*
X122410000Y-78560000D01*
X122410000Y-78560000D02*
X122410000Y-77140000D01*
X122410000Y-77140000D02*
X117910000Y-77140000D01*
X117910000Y-77140000D02*
X117910000Y-72250000D01*
X116800000Y-68250000D02*
X111300000Y-68250000D01*
X111300000Y-68250000D02*
X111300000Y-68750000D01*
X111300000Y-68750000D02*
X116800000Y-68750000D01*
X116800000Y-68750000D02*
X116800000Y-68250000D01*
X116800000Y-70750000D02*
X111300000Y-70750000D01*
X111300000Y-70750000D02*
X111300000Y-71250000D01*
X111300000Y-71250000D02*
X116800000Y-71250000D01*
X116800000Y-71250000D02*
X116800000Y-70750000D01*
X116800000Y-73250000D02*
X111300000Y-73250000D01*
X111300000Y-73250000D02*
X111300000Y-73750000D01*
X111300000Y-73750000D02*
X116800000Y-73750000D01*
X116800000Y-73750000D02*
X116800000Y-73250000D01*
X116800000Y-75750000D02*
X111300000Y-75750000D01*
X111300000Y-75750000D02*
X111300000Y-76250000D01*
X111300000Y-76250000D02*
X116800000Y-76250000D01*
X116800000Y-76250000D02*
X116800000Y-75750000D01*
X121500000Y-68500000D02*
X122100000Y-68200000D01*
X122100000Y-68200000D02*
X122100000Y-68800000D01*
X122100000Y-68800000D02*
X121500000Y-68500000D01*
%TO.C,J3*%
X129170000Y-76670000D02*
X130500000Y-76670000D01*
X129170000Y-78000000D02*
X129170000Y-76670000D01*
X131770000Y-76670000D02*
X134370000Y-76670000D01*
X131770000Y-79270000D02*
X131770000Y-76670000D01*
X129170000Y-79270000D02*
X131770000Y-79270000D01*
X134370000Y-76670000D02*
X134370000Y-84410000D01*
X129170000Y-79270000D02*
X129170000Y-84410000D01*
X129170000Y-84410000D02*
X134370000Y-84410000D01*
%TO.C,R1*%
X125990000Y-72950279D02*
X125990000Y-72624721D01*
X127010000Y-72950279D02*
X127010000Y-72624721D01*
%TO.C,R2*%
X124510000Y-72950279D02*
X124510000Y-72624721D01*
X123490000Y-72950279D02*
X123490000Y-72624721D01*
%TO.C,R3*%
X138490000Y-68162779D02*
X138490000Y-67837221D01*
X139510000Y-68162779D02*
X139510000Y-67837221D01*
%TO.C,R4*%
X135837221Y-67010000D02*
X136162779Y-67010000D01*
X135837221Y-65990000D02*
X136162779Y-65990000D01*
%TO.C,R5*%
X137990000Y-73837221D02*
X137990000Y-74162779D01*
X139010000Y-73837221D02*
X139010000Y-74162779D01*
D10*
%TO.C,U1*%
X135250000Y-73050000D02*
X137000000Y-73050000D01*
X135250000Y-67745000D02*
X129750000Y-67745000D01*
X135250000Y-73255000D02*
X129750000Y-73255000D01*
X135250000Y-67745000D02*
X135250000Y-68045000D01*
X129750000Y-67745000D02*
X129750000Y-68045000D01*
X129750000Y-73255000D02*
X129750000Y-72955000D01*
X135250000Y-73255000D02*
X135250000Y-73050000D01*
%TD*%
%TO.C,C1*%
X125857142Y-77166666D02*
X125904761Y-77214285D01*
X125952380Y-77357142D01*
X125952380Y-77452380D01*
X125904761Y-77595238D01*
X125809523Y-77690476D01*
X125714285Y-77738095D01*
X125523809Y-77785714D01*
X125380952Y-77785714D01*
X125190476Y-77738095D01*
X125095238Y-77690476D01*
X125000000Y-77595238D01*
X124952380Y-77452380D01*
X124952380Y-77357142D01*
X125000000Y-77214285D01*
X125047619Y-77166666D01*
X125952380Y-76214285D02*
X125952380Y-76785714D01*
X125952380Y-76500000D02*
X124952380Y-76500000D01*
X125095238Y-76595238D01*
X125190476Y-76690476D01*
X125238095Y-76785714D01*
%TO.C,H1*%
X104238095Y-56252380D02*
X104238095Y-55252380D01*
X104238095Y-55728571D02*
X104809523Y-55728571D01*
X104809523Y-56252380D02*
X104809523Y-55252380D01*
X105809523Y-56252380D02*
X105238095Y-56252380D01*
X105523809Y-56252380D02*
X105523809Y-55252380D01*
X105428571Y-55395238D01*
X105333333Y-55490476D01*
X105238095Y-55538095D01*
%TO.C,H2*%
X159238095Y-56252380D02*
X159238095Y-55252380D01*
X159238095Y-55728571D02*
X159809523Y-55728571D01*
X159809523Y-56252380D02*
X159809523Y-55252380D01*
X160238095Y-55347619D02*
X160285714Y-55300000D01*
X160380952Y-55252380D01*
X160619047Y-55252380D01*
X160714285Y-55300000D01*
X160761904Y-55347619D01*
X160809523Y-55442857D01*
X160809523Y-55538095D01*
X160761904Y-55680952D01*
X160190476Y-56252380D01*
X160809523Y-56252380D01*
%TO.C,H3*%
X159238095Y-86252380D02*
X159238095Y-85252380D01*
X159238095Y-85728571D02*
X159809523Y-85728571D01*
X159809523Y-86252380D02*
X159809523Y-85252380D01*
X160190476Y-85252380D02*
X160809523Y-85252380D01*
X160476190Y-85633333D01*
X160619047Y-85633333D01*
X160714285Y-85680952D01*
X160761904Y-85728571D01*
X160809523Y-85823809D01*
X160809523Y-86061904D01*
X160761904Y-86157142D01*
X160714285Y-86204761D01*
X160619047Y-86252380D01*
X160333333Y-86252380D01*
X160238095Y-86204761D01*
X160190476Y-86157142D01*
%TO.C,H4*%
X104238095Y-86252380D02*
X104238095Y-85252380D01*
X104238095Y-85728571D02*
X104809523Y-85728571D01*
X104809523Y-86252380D02*
X104809523Y-85252380D01*
X105714285Y-85585714D02*
X105714285Y-86252380D01*
X105476190Y-85204761D02*
X105238095Y-85919047D01*
X105857142Y-85919047D01*
%TO.C,J1*%
X151166666Y-79452380D02*
X151166666Y-80166666D01*
X151119047Y-80309523D01*
X151023809Y-80404761D01*
X150880952Y-80452380D01*
X150785714Y-80452380D01*
X152166666Y-80452380D02*
X151595238Y-80452380D01*
X151880952Y-80452380D02*
X151880952Y-79452380D01*
X151785714Y-79595238D01*
X151690476Y-79690476D01*
X151595238Y-79738095D01*
%TO.C,J2*%
X112166666Y-79452380D02*
X112166666Y-80166666D01*
X112119047Y-80309523D01*
X112023809Y-80404761D01*
X111880952Y-80452380D01*
X111785714Y-80452380D01*
X112595238Y-79547619D02*
X112642857Y-79500000D01*
X112738095Y-79452380D01*
X112976190Y-79452380D01*
X113071428Y-79500000D01*
X113119047Y-79547619D01*
X113166666Y-79642857D01*
X113166666Y-79738095D01*
X113119047Y-79880952D01*
X112547619Y-80452380D01*
X113166666Y-80452380D01*
%TO.C,J3*%
X127452380Y-83833333D02*
X128166666Y-83833333D01*
X128309523Y-83880952D01*
X128404761Y-83976190D01*
X128452380Y-84119047D01*
X128452380Y-84214285D01*
X127452380Y-83452380D02*
X127452380Y-82833333D01*
X127833333Y-83166666D01*
X127833333Y-83023809D01*
X127880952Y-82928571D01*
X127928571Y-82880952D01*
X128023809Y-82833333D01*
X128261904Y-82833333D01*
X128357142Y-82880952D01*
X128404761Y-82928571D01*
X128452380Y-83023809D01*
X128452380Y-83309523D01*
X128404761Y-83404761D01*
X128357142Y-83452380D01*
%TO.C,R1*%
X126952380Y-70166666D02*
X126476190Y-70500000D01*
X126952380Y-70738095D02*
X125952380Y-70738095D01*
X125952380Y-70357142D01*
X126000000Y-70261904D01*
X126047619Y-70214285D01*
X126142857Y-70166666D01*
X126285714Y-70166666D01*
X126380952Y-70214285D01*
X126428571Y-70261904D01*
X126476190Y-70357142D01*
X126476190Y-70738095D01*
X126952380Y-69214285D02*
X126952380Y-69785714D01*
X126952380Y-69500000D02*
X125952380Y-69500000D01*
X126095238Y-69595238D01*
X126190476Y-69690476D01*
X126238095Y-69785714D01*
%TO.C,R2*%
X124452380Y-75666666D02*
X123976190Y-76000000D01*
X124452380Y-76238095D02*
X123452380Y-76238095D01*
X123452380Y-75857142D01*
X123500000Y-75761904D01*
X123547619Y-75714285D01*
X123642857Y-75666666D01*
X123785714Y-75666666D01*
X123880952Y-75714285D01*
X123928571Y-75761904D01*
X123976190Y-75857142D01*
X123976190Y-76238095D01*
X123547619Y-75285714D02*
X123500000Y-75238095D01*
X123452380Y-75142857D01*
X123452380Y-74904761D01*
X123500000Y-74809523D01*
X123547619Y-74761904D01*
X123642857Y-74714285D01*
X123738095Y-74714285D01*
X123880952Y-74761904D01*
X124452380Y-75333333D01*
X124452380Y-74714285D01*
%TO.C,R3*%
X140952380Y-68166666D02*
X140476190Y-68500000D01*
X140952380Y-68738095D02*
X139952380Y-68738095D01*
X139952380Y-68357142D01*
X140000000Y-68261904D01*
X140047619Y-68214285D01*
X140142857Y-68166666D01*
X140285714Y-68166666D01*
X140380952Y-68214285D01*
X140428571Y-68261904D01*
X140476190Y-68357142D01*
X140476190Y-68738095D01*
X139952380Y-67833333D02*
X139952380Y-67214285D01*
X140333333Y-67547619D01*
X140333333Y-67404761D01*
X140380952Y-67309523D01*
X140428571Y-67261904D01*
X140523809Y-67214285D01*
X140761904Y-67214285D01*
X140857142Y-67261904D01*
X140904761Y-67309523D01*
X140952380Y-67404761D01*
X140952380Y-67690476D01*
X140904761Y-67785714D01*
X140857142Y-67833333D01*
%TO.C,R4*%
X133333333Y-66952380D02*
X133000000Y-66476190D01*
X132761904Y-66952380D02*
X132761904Y-65952380D01*
X133142857Y-65952380D01*
X133238095Y-66000000D01*
X133285714Y-66047619D01*
X133333333Y-66142857D01*
X133333333Y-66285714D01*
X133285714Y-66380952D01*
X133238095Y-66428571D01*
X133142857Y-66476190D01*
X132761904Y-66476190D01*
X134190476Y-66285714D02*
X134190476Y-66952380D01*
X133952380Y-65904761D02*
X133714285Y-66619047D01*
X134333333Y-66619047D01*
%TO.C,R5*%
X140382380Y-74166666D02*
X139906190Y-74500000D01*
X140382380Y-74738095D02*
X139382380Y-74738095D01*
X139382380Y-74357142D01*
X139430000Y-74261904D01*
X139477619Y-74214285D01*
X139572857Y-74166666D01*
X139715714Y-74166666D01*
X139810952Y-74214285D01*
X139858571Y-74261904D01*
X139906190Y-74357142D01*
X139906190Y-74738095D01*
X139382380Y-73261904D02*
X139382380Y-73738095D01*
X139858571Y-73785714D01*
X139810952Y-73738095D01*
X139763333Y-73642857D01*
X139763333Y-73404761D01*
X139810952Y-73309523D01*
X139858571Y-73261904D01*
X139953809Y-73214285D01*
X140191904Y-73214285D01*
X140287142Y-73261904D01*
X140334761Y-73309523D01*
X140382380Y-73404761D01*
X140382380Y-73642857D01*
X140334761Y-73738095D01*
X140287142Y-73785714D01*
%TO.C,U1*%
X129238095Y-65952380D02*
X129238095Y-66761904D01*
X129285714Y-66857142D01*
X129333333Y-66904761D01*
X129428571Y-66952380D01*
X129619047Y-66952380D01*
X129714285Y-66904761D01*
X129761904Y-66857142D01*
X129809523Y-66761904D01*
X129809523Y-65952380D01*
X130809523Y-66952380D02*
X130238095Y-66952380D01*
X130523809Y-66952380D02*
X130523809Y-65952380D01*
X130428571Y-66095238D01*
X130333333Y-66190476D01*
X130238095Y-66238095D01*
%TD*%
M02*
