M48
; DRILL file {KiCad (5.1.6)-1} date 12/10/20 00:03:00
; FORMAT={-:-/ absolute / inch / decimal}
; #@! TF.CreationDate,2020-12-10T00:03:00+01:00
; #@! TF.GenerationSoftware,Kicad,Pcbnew,(5.1.6)-1
; #@! TF.FileFunction,Plated,1,2,PTH
FMAT,2
INCH
T1C0.0197
T2C0.0236
T3C0.0374
T4C0.0394
T5C0.1260
%
G90
G05
T1
X6.3937Y-3.5433
X6.2992Y-2.2677
X4.0394Y-2.3622
X4.067Y-2.2954
X4.067Y-2.429
X4.1339Y-2.2677
X4.1339Y-2.4567
X4.2007Y-2.2954
X4.2007Y-2.429
X4.2283Y-2.3622
X6.2047Y-3.5433
X6.2324Y-3.4765
X6.2324Y-3.6101
X6.2992Y-3.4488
X6.2992Y-3.6378
X6.366Y-3.4765
X6.366Y-3.6101
X4.0394Y-3.5433
X4.067Y-3.4765
X4.067Y-3.6101
X4.1339Y-3.4488
X4.1339Y-3.6378
X4.2007Y-3.4765
X4.2007Y-3.6101
X4.2283Y-3.5433
X6.2047Y-2.3622
X6.2324Y-2.2954
X6.2324Y-2.429
X6.2992Y-2.4567
X6.366Y-2.2954
X6.366Y-2.429
X6.3937Y-2.3622
T2
X4.1339Y-2.5591
X4.1339Y-2.7559
X4.1339Y-2.9528
X4.1339Y-3.1496
X4.1339Y-3.3465
X4.3307Y-2.3622
X4.3307Y-3.5433
X4.5276Y-2.3622
X4.5276Y-3.5433
X4.7244Y-2.3622
X4.7244Y-3.5433
X4.9016Y-2.7972
X4.9053Y-2.7006
X4.9213Y-2.3622
X4.9213Y-3.5433
X5.0Y-3.1299
X5.1004Y-2.9921
X5.1181Y-2.3622
X5.1181Y-3.5433
X5.2559Y-2.7362
X5.315Y-2.3622
X5.315Y-3.5433
X5.3937Y-2.9134
X5.5118Y-2.3622
X5.5118Y-3.5433
X5.5512Y-2.7165
X5.5512Y-2.8543
X5.7087Y-2.3622
X5.7087Y-3.5433
X5.9055Y-2.3622
X5.9055Y-3.5433
X6.1024Y-2.3622
X6.1024Y-3.5433
X6.2992Y-2.5591
X6.2992Y-2.7559
X6.2992Y-2.9528
X6.2992Y-3.1496
X6.2992Y-3.3465
T3
X5.6693Y-2.6969
X5.6693Y-2.7953
X5.6693Y-2.8937
X5.6693Y-2.9921
X4.7244Y-2.6969
X4.7244Y-2.7953
X4.7244Y-2.8937
X4.7244Y-2.9921
T4
X5.1378Y-3.0709
X5.1378Y-3.1709
X5.1378Y-3.2709
X5.2378Y-3.0709
X5.2378Y-3.1709
X5.2378Y-3.2709
T5
X4.1339Y-3.5433
X4.1339Y-2.3622
X6.2992Y-3.5433
X6.2992Y-2.3622
T0
M30
