%TF.GenerationSoftware,KiCad,Pcbnew,(5.1.6)-1*%
%TF.CreationDate,2020-12-10T00:03:04+01:00*%
%TF.ProjectId,06_I2C_2_NEOPIXELS,30365f49-3243-45f3-925f-4e454f504958,rev?*%
%TF.SameCoordinates,Original*%
%TF.FileFunction,Soldermask,Bot*%
%TF.FilePolarity,Negative*%
%FSLAX46Y46*%
G04 Gerber Fmt 4.6, Leading zero omitted, Abs format (unit mm)*
G04 Created by KiCad (PCBNEW (5.1.6)-1) date 2020-12-10 00:03:04*
%MOMM*%
%LPD*%
G01*
G04 APERTURE LIST*
%TA.AperFunction,Profile*%
%ADD10C,0.150000*%
%TD*%
%ADD11C,6.500000*%
%ADD12C,0.900000*%
%ADD13O,2.050000X1.800000*%
%ADD14R,1.800000X1.800000*%
%ADD15O,1.800000X1.800000*%
G04 APERTURE END LIST*
D10*
X160000000Y-55000000D02*
G75*
G02*
X165000000Y-60000000I0J-5000000D01*
G01*
X165000000Y-90000000D02*
G75*
G02*
X160000000Y-95000000I-5000000J0D01*
G01*
X105000000Y-95000000D02*
G75*
G02*
X100000000Y-90000000I0J5000000D01*
G01*
X100000000Y-60000000D02*
G75*
G02*
X105000000Y-55000000I5000000J0D01*
G01*
X100000000Y-90000000D02*
X100000000Y-60000000D01*
X160000000Y-95000000D02*
X105000000Y-95000000D01*
X165000000Y-60000000D02*
X165000000Y-90000000D01*
X105000000Y-55000000D02*
X160000000Y-55000000D01*
D11*
%TO.C,H1*%
X105000000Y-60000000D03*
D12*
X107400000Y-60000000D03*
X106697056Y-61697056D03*
X105000000Y-62400000D03*
X103302944Y-61697056D03*
X102600000Y-60000000D03*
X103302944Y-58302944D03*
X105000000Y-57600000D03*
X106697056Y-58302944D03*
%TD*%
%TO.C,H2*%
X161697056Y-58302944D03*
X160000000Y-57600000D03*
X158302944Y-58302944D03*
X157600000Y-60000000D03*
X158302944Y-61697056D03*
X160000000Y-62400000D03*
X161697056Y-61697056D03*
X162400000Y-60000000D03*
D11*
X160000000Y-60000000D03*
%TD*%
D12*
%TO.C,H3*%
X161697056Y-88302944D03*
X160000000Y-87600000D03*
X158302944Y-88302944D03*
X157600000Y-90000000D03*
X158302944Y-91697056D03*
X160000000Y-92400000D03*
X161697056Y-91697056D03*
X162400000Y-90000000D03*
D11*
X160000000Y-90000000D03*
%TD*%
%TO.C,H4*%
X105000000Y-90000000D03*
D12*
X107400000Y-90000000D03*
X106697056Y-91697056D03*
X105000000Y-92400000D03*
X103302944Y-91697056D03*
X102600000Y-90000000D03*
X103302944Y-88302944D03*
X105000000Y-87600000D03*
X106697056Y-88302944D03*
%TD*%
%TO.C,J1*%
G36*
G01*
X144760294Y-76900000D02*
X143239706Y-76900000D01*
G75*
G02*
X142975000Y-76635294I0J264706D01*
G01*
X142975000Y-75364706D01*
G75*
G02*
X143239706Y-75100000I264706J0D01*
G01*
X144760294Y-75100000D01*
G75*
G02*
X145025000Y-75364706I0J-264706D01*
G01*
X145025000Y-76635294D01*
G75*
G02*
X144760294Y-76900000I-264706J0D01*
G01*
G37*
D13*
X144000000Y-73500000D03*
X144000000Y-71000000D03*
X144000000Y-68500000D03*
%TD*%
%TO.C,J2*%
X120000000Y-76000000D03*
X120000000Y-73500000D03*
X120000000Y-71000000D03*
G36*
G01*
X119239706Y-67600000D02*
X120760294Y-67600000D01*
G75*
G02*
X121025000Y-67864706I0J-264706D01*
G01*
X121025000Y-69135294D01*
G75*
G02*
X120760294Y-69400000I-264706J0D01*
G01*
X119239706Y-69400000D01*
G75*
G02*
X118975000Y-69135294I0J264706D01*
G01*
X118975000Y-67864706D01*
G75*
G02*
X119239706Y-67600000I264706J0D01*
G01*
G37*
%TD*%
D14*
%TO.C,J3*%
X130500000Y-78000000D03*
D15*
X133040000Y-78000000D03*
X130500000Y-80540000D03*
X133040000Y-80540000D03*
X130500000Y-83080000D03*
X133040000Y-83080000D03*
%TD*%
M02*
