%TF.GenerationSoftware,KiCad,Pcbnew,(5.1.6)-1*%
%TF.CreationDate,2020-12-10T00:03:04+01:00*%
%TF.ProjectId,06_I2C_2_NEOPIXELS,30365f49-3243-45f3-925f-4e454f504958,rev?*%
%TF.SameCoordinates,Original*%
%TF.FileFunction,Paste,Top*%
%TF.FilePolarity,Positive*%
%FSLAX46Y46*%
G04 Gerber Fmt 4.6, Leading zero omitted, Abs format (unit mm)*
G04 Created by KiCad (PCBNEW (5.1.6)-1) date 2020-12-10 00:03:04*
%MOMM*%
%LPD*%
G01*
G04 APERTURE LIST*
%TA.AperFunction,Profile*%
%ADD10C,0.150000*%
%TD*%
%ADD11R,1.700000X0.650000*%
G04 APERTURE END LIST*
D10*
X160000000Y-55000000D02*
G75*
G02*
X165000000Y-60000000I0J-5000000D01*
G01*
X165000000Y-90000000D02*
G75*
G02*
X160000000Y-95000000I-5000000J0D01*
G01*
X105000000Y-95000000D02*
G75*
G02*
X100000000Y-90000000I0J5000000D01*
G01*
X100000000Y-60000000D02*
G75*
G02*
X105000000Y-55000000I5000000J0D01*
G01*
X100000000Y-90000000D02*
X100000000Y-60000000D01*
X160000000Y-95000000D02*
X105000000Y-95000000D01*
X165000000Y-60000000D02*
X165000000Y-90000000D01*
X105000000Y-55000000D02*
X160000000Y-55000000D01*
%TO.C,C1*%
G36*
G01*
X126743750Y-75775000D02*
X127256250Y-75775000D01*
G75*
G02*
X127475000Y-75993750I0J-218750D01*
G01*
X127475000Y-76431250D01*
G75*
G02*
X127256250Y-76650000I-218750J0D01*
G01*
X126743750Y-76650000D01*
G75*
G02*
X126525000Y-76431250I0J218750D01*
G01*
X126525000Y-75993750D01*
G75*
G02*
X126743750Y-75775000I218750J0D01*
G01*
G37*
G36*
G01*
X126743750Y-77350000D02*
X127256250Y-77350000D01*
G75*
G02*
X127475000Y-77568750I0J-218750D01*
G01*
X127475000Y-78006250D01*
G75*
G02*
X127256250Y-78225000I-218750J0D01*
G01*
X126743750Y-78225000D01*
G75*
G02*
X126525000Y-78006250I0J218750D01*
G01*
X126525000Y-77568750D01*
G75*
G02*
X126743750Y-77350000I218750J0D01*
G01*
G37*
%TD*%
%TO.C,R1*%
G36*
G01*
X126756250Y-72437500D02*
X126243750Y-72437500D01*
G75*
G02*
X126025000Y-72218750I0J218750D01*
G01*
X126025000Y-71781250D01*
G75*
G02*
X126243750Y-71562500I218750J0D01*
G01*
X126756250Y-71562500D01*
G75*
G02*
X126975000Y-71781250I0J-218750D01*
G01*
X126975000Y-72218750D01*
G75*
G02*
X126756250Y-72437500I-218750J0D01*
G01*
G37*
G36*
G01*
X126756250Y-74012500D02*
X126243750Y-74012500D01*
G75*
G02*
X126025000Y-73793750I0J218750D01*
G01*
X126025000Y-73356250D01*
G75*
G02*
X126243750Y-73137500I218750J0D01*
G01*
X126756250Y-73137500D01*
G75*
G02*
X126975000Y-73356250I0J-218750D01*
G01*
X126975000Y-73793750D01*
G75*
G02*
X126756250Y-74012500I-218750J0D01*
G01*
G37*
%TD*%
%TO.C,R2*%
G36*
G01*
X124256250Y-74012500D02*
X123743750Y-74012500D01*
G75*
G02*
X123525000Y-73793750I0J218750D01*
G01*
X123525000Y-73356250D01*
G75*
G02*
X123743750Y-73137500I218750J0D01*
G01*
X124256250Y-73137500D01*
G75*
G02*
X124475000Y-73356250I0J-218750D01*
G01*
X124475000Y-73793750D01*
G75*
G02*
X124256250Y-74012500I-218750J0D01*
G01*
G37*
G36*
G01*
X124256250Y-72437500D02*
X123743750Y-72437500D01*
G75*
G02*
X123525000Y-72218750I0J218750D01*
G01*
X123525000Y-71781250D01*
G75*
G02*
X123743750Y-71562500I218750J0D01*
G01*
X124256250Y-71562500D01*
G75*
G02*
X124475000Y-71781250I0J-218750D01*
G01*
X124475000Y-72218750D01*
G75*
G02*
X124256250Y-72437500I-218750J0D01*
G01*
G37*
%TD*%
%TO.C,R3*%
G36*
G01*
X139256250Y-67650000D02*
X138743750Y-67650000D01*
G75*
G02*
X138525000Y-67431250I0J218750D01*
G01*
X138525000Y-66993750D01*
G75*
G02*
X138743750Y-66775000I218750J0D01*
G01*
X139256250Y-66775000D01*
G75*
G02*
X139475000Y-66993750I0J-218750D01*
G01*
X139475000Y-67431250D01*
G75*
G02*
X139256250Y-67650000I-218750J0D01*
G01*
G37*
G36*
G01*
X139256250Y-69225000D02*
X138743750Y-69225000D01*
G75*
G02*
X138525000Y-69006250I0J218750D01*
G01*
X138525000Y-68568750D01*
G75*
G02*
X138743750Y-68350000I218750J0D01*
G01*
X139256250Y-68350000D01*
G75*
G02*
X139475000Y-68568750I0J-218750D01*
G01*
X139475000Y-69006250D01*
G75*
G02*
X139256250Y-69225000I-218750J0D01*
G01*
G37*
%TD*%
%TO.C,R4*%
G36*
G01*
X134775000Y-66756250D02*
X134775000Y-66243750D01*
G75*
G02*
X134993750Y-66025000I218750J0D01*
G01*
X135431250Y-66025000D01*
G75*
G02*
X135650000Y-66243750I0J-218750D01*
G01*
X135650000Y-66756250D01*
G75*
G02*
X135431250Y-66975000I-218750J0D01*
G01*
X134993750Y-66975000D01*
G75*
G02*
X134775000Y-66756250I0J218750D01*
G01*
G37*
G36*
G01*
X136350000Y-66756250D02*
X136350000Y-66243750D01*
G75*
G02*
X136568750Y-66025000I218750J0D01*
G01*
X137006250Y-66025000D01*
G75*
G02*
X137225000Y-66243750I0J-218750D01*
G01*
X137225000Y-66756250D01*
G75*
G02*
X137006250Y-66975000I-218750J0D01*
G01*
X136568750Y-66975000D01*
G75*
G02*
X136350000Y-66756250I0J218750D01*
G01*
G37*
%TD*%
%TO.C,R5*%
G36*
G01*
X138243750Y-72775000D02*
X138756250Y-72775000D01*
G75*
G02*
X138975000Y-72993750I0J-218750D01*
G01*
X138975000Y-73431250D01*
G75*
G02*
X138756250Y-73650000I-218750J0D01*
G01*
X138243750Y-73650000D01*
G75*
G02*
X138025000Y-73431250I0J218750D01*
G01*
X138025000Y-72993750D01*
G75*
G02*
X138243750Y-72775000I218750J0D01*
G01*
G37*
G36*
G01*
X138243750Y-74350000D02*
X138756250Y-74350000D01*
G75*
G02*
X138975000Y-74568750I0J-218750D01*
G01*
X138975000Y-75006250D01*
G75*
G02*
X138756250Y-75225000I-218750J0D01*
G01*
X138243750Y-75225000D01*
G75*
G02*
X138025000Y-75006250I0J218750D01*
G01*
X138025000Y-74568750D01*
G75*
G02*
X138243750Y-74350000I218750J0D01*
G01*
G37*
%TD*%
D11*
%TO.C,U1*%
X136150000Y-72405000D03*
X136150000Y-71135000D03*
X136150000Y-69865000D03*
X136150000Y-68595000D03*
X128850000Y-68595000D03*
X128850000Y-69865000D03*
X128850000Y-71135000D03*
X128850000Y-72405000D03*
%TD*%
M02*
