%TF.GenerationSoftware,KiCad,Pcbnew,(5.1.6)-1*%
%TF.CreationDate,2020-12-10T00:03:04+01:00*%
%TF.ProjectId,06_I2C_2_NEOPIXELS,30365f49-3243-45f3-925f-4e454f504958,rev?*%
%TF.SameCoordinates,Original*%
%TF.FileFunction,Other,Fab,Top*%
%FSLAX46Y46*%
G04 Gerber Fmt 4.6, Leading zero omitted, Abs format (unit mm)*
G04 Created by KiCad (PCBNEW (5.1.6)-1) date 2020-12-10 00:03:04*
%MOMM*%
%LPD*%
G01*
G04 APERTURE LIST*
%TA.AperFunction,Profile*%
%ADD10C,0.150000*%
%TD*%
%ADD11C,0.100000*%
%ADD12C,0.150000*%
%ADD13C,0.060000*%
G04 APERTURE END LIST*
D10*
X160000000Y-55000000D02*
G75*
G02*
X165000000Y-60000000I0J-5000000D01*
G01*
X165000000Y-90000000D02*
G75*
G02*
X160000000Y-95000000I-5000000J0D01*
G01*
X105000000Y-95000000D02*
G75*
G02*
X100000000Y-90000000I0J5000000D01*
G01*
X100000000Y-60000000D02*
G75*
G02*
X105000000Y-55000000I5000000J0D01*
G01*
X100000000Y-90000000D02*
X100000000Y-60000000D01*
X160000000Y-95000000D02*
X105000000Y-95000000D01*
X165000000Y-60000000D02*
X165000000Y-90000000D01*
X105000000Y-55000000D02*
X160000000Y-55000000D01*
D11*
%TO.C,C1*%
X126600000Y-77800000D02*
X126600000Y-76200000D01*
X127400000Y-77800000D02*
X126600000Y-77800000D01*
X127400000Y-76200000D02*
X127400000Y-77800000D01*
X126600000Y-76200000D02*
X127400000Y-76200000D01*
%TO.C,J1*%
X145200000Y-76000000D02*
X146200000Y-75375000D01*
X146200000Y-76625000D02*
X145200000Y-76000000D01*
X146200000Y-67250000D02*
X146200000Y-72250000D01*
X141700000Y-67250000D02*
X146200000Y-67250000D01*
X141700000Y-66050000D02*
X141700000Y-67250000D01*
X153200000Y-66050000D02*
X141700000Y-66050000D01*
X153200000Y-72250000D02*
X153200000Y-66050000D01*
X146200000Y-77250000D02*
X146200000Y-72250000D01*
X141700000Y-77250000D02*
X146200000Y-77250000D01*
X141700000Y-78450000D02*
X141700000Y-77250000D01*
X153200000Y-78450000D02*
X141700000Y-78450000D01*
X153200000Y-72250000D02*
X153200000Y-78450000D01*
%TO.C,J2*%
X110800000Y-72250000D02*
X110800000Y-66050000D01*
X110800000Y-66050000D02*
X122300000Y-66050000D01*
X122300000Y-66050000D02*
X122300000Y-67250000D01*
X122300000Y-67250000D02*
X117800000Y-67250000D01*
X117800000Y-67250000D02*
X117800000Y-72250000D01*
X110800000Y-72250000D02*
X110800000Y-78450000D01*
X110800000Y-78450000D02*
X122300000Y-78450000D01*
X122300000Y-78450000D02*
X122300000Y-77250000D01*
X122300000Y-77250000D02*
X117800000Y-77250000D01*
X117800000Y-77250000D02*
X117800000Y-72250000D01*
X117800000Y-67875000D02*
X118800000Y-68500000D01*
X118800000Y-68500000D02*
X117800000Y-69125000D01*
%TO.C,J3*%
X129230000Y-78000000D02*
X130500000Y-76730000D01*
X129230000Y-84350000D02*
X129230000Y-78000000D01*
X134310000Y-84350000D02*
X129230000Y-84350000D01*
X134310000Y-76730000D02*
X134310000Y-84350000D01*
X130500000Y-76730000D02*
X134310000Y-76730000D01*
%TO.C,R1*%
X126900000Y-73587500D02*
X126100000Y-73587500D01*
X126100000Y-73587500D02*
X126100000Y-71987500D01*
X126100000Y-71987500D02*
X126900000Y-71987500D01*
X126900000Y-71987500D02*
X126900000Y-73587500D01*
%TO.C,R2*%
X124400000Y-71987500D02*
X124400000Y-73587500D01*
X123600000Y-71987500D02*
X124400000Y-71987500D01*
X123600000Y-73587500D02*
X123600000Y-71987500D01*
X124400000Y-73587500D02*
X123600000Y-73587500D01*
%TO.C,R3*%
X139400000Y-68800000D02*
X138600000Y-68800000D01*
X138600000Y-68800000D02*
X138600000Y-67200000D01*
X138600000Y-67200000D02*
X139400000Y-67200000D01*
X139400000Y-67200000D02*
X139400000Y-68800000D01*
%TO.C,R4*%
X136800000Y-66900000D02*
X135200000Y-66900000D01*
X136800000Y-66100000D02*
X136800000Y-66900000D01*
X135200000Y-66100000D02*
X136800000Y-66100000D01*
X135200000Y-66900000D02*
X135200000Y-66100000D01*
%TO.C,R5*%
X138100000Y-74800000D02*
X138100000Y-73200000D01*
X138900000Y-74800000D02*
X138100000Y-74800000D01*
X138900000Y-73200000D02*
X138900000Y-74800000D01*
X138100000Y-73200000D02*
X138900000Y-73200000D01*
D12*
%TO.C,U1*%
X135150000Y-72150000D02*
X134150000Y-73150000D01*
X135150000Y-67850000D02*
X135150000Y-72150000D01*
X129850000Y-67850000D02*
X135150000Y-67850000D01*
X129850000Y-73150000D02*
X129850000Y-67850000D01*
X134150000Y-73150000D02*
X129850000Y-73150000D01*
%TD*%
%TO.C,C1*%
X126022380Y-78547619D02*
X126022380Y-79119047D01*
X126022380Y-78833333D02*
X125022380Y-78833333D01*
X125165238Y-78928571D01*
X125260476Y-79023809D01*
X125308095Y-79119047D01*
X125022380Y-77928571D02*
X125022380Y-77833333D01*
X125070000Y-77738095D01*
X125117619Y-77690476D01*
X125212857Y-77642857D01*
X125403333Y-77595238D01*
X125641428Y-77595238D01*
X125831904Y-77642857D01*
X125927142Y-77690476D01*
X125974761Y-77738095D01*
X126022380Y-77833333D01*
X126022380Y-77928571D01*
X125974761Y-78023809D01*
X125927142Y-78071428D01*
X125831904Y-78119047D01*
X125641428Y-78166666D01*
X125403333Y-78166666D01*
X125212857Y-78119047D01*
X125117619Y-78071428D01*
X125070000Y-78023809D01*
X125022380Y-77928571D01*
X125022380Y-76976190D02*
X125022380Y-76880952D01*
X125070000Y-76785714D01*
X125117619Y-76738095D01*
X125212857Y-76690476D01*
X125403333Y-76642857D01*
X125641428Y-76642857D01*
X125831904Y-76690476D01*
X125927142Y-76738095D01*
X125974761Y-76785714D01*
X126022380Y-76880952D01*
X126022380Y-76976190D01*
X125974761Y-77071428D01*
X125927142Y-77119047D01*
X125831904Y-77166666D01*
X125641428Y-77214285D01*
X125403333Y-77214285D01*
X125212857Y-77166666D01*
X125117619Y-77119047D01*
X125070000Y-77071428D01*
X125022380Y-76976190D01*
X125355714Y-76214285D02*
X126022380Y-76214285D01*
X125450952Y-76214285D02*
X125403333Y-76166666D01*
X125355714Y-76071428D01*
X125355714Y-75928571D01*
X125403333Y-75833333D01*
X125498571Y-75785714D01*
X126022380Y-75785714D01*
X125498571Y-74976190D02*
X125498571Y-75309523D01*
X126022380Y-75309523D02*
X125022380Y-75309523D01*
X125022380Y-74833333D01*
D13*
X127142857Y-77066666D02*
X127161904Y-77085714D01*
X127180952Y-77142857D01*
X127180952Y-77180952D01*
X127161904Y-77238095D01*
X127123809Y-77276190D01*
X127085714Y-77295238D01*
X127009523Y-77314285D01*
X126952380Y-77314285D01*
X126876190Y-77295238D01*
X126838095Y-77276190D01*
X126800000Y-77238095D01*
X126780952Y-77180952D01*
X126780952Y-77142857D01*
X126800000Y-77085714D01*
X126819047Y-77066666D01*
X127180952Y-76685714D02*
X127180952Y-76914285D01*
X127180952Y-76800000D02*
X126780952Y-76800000D01*
X126838095Y-76838095D01*
X126876190Y-76876190D01*
X126895238Y-76914285D01*
%TO.C,H1*%
D12*
X98428571Y-64652380D02*
X98428571Y-63652380D01*
X98761904Y-64366666D01*
X99095238Y-63652380D01*
X99095238Y-64652380D01*
X99714285Y-64652380D02*
X99619047Y-64604761D01*
X99571428Y-64557142D01*
X99523809Y-64461904D01*
X99523809Y-64176190D01*
X99571428Y-64080952D01*
X99619047Y-64033333D01*
X99714285Y-63985714D01*
X99857142Y-63985714D01*
X99952380Y-64033333D01*
X100000000Y-64080952D01*
X100047619Y-64176190D01*
X100047619Y-64461904D01*
X100000000Y-64557142D01*
X99952380Y-64604761D01*
X99857142Y-64652380D01*
X99714285Y-64652380D01*
X100904761Y-63985714D02*
X100904761Y-64652380D01*
X100476190Y-63985714D02*
X100476190Y-64509523D01*
X100523809Y-64604761D01*
X100619047Y-64652380D01*
X100761904Y-64652380D01*
X100857142Y-64604761D01*
X100904761Y-64557142D01*
X101380952Y-63985714D02*
X101380952Y-64652380D01*
X101380952Y-64080952D02*
X101428571Y-64033333D01*
X101523809Y-63985714D01*
X101666666Y-63985714D01*
X101761904Y-64033333D01*
X101809523Y-64128571D01*
X101809523Y-64652380D01*
X102142857Y-63985714D02*
X102523809Y-63985714D01*
X102285714Y-63652380D02*
X102285714Y-64509523D01*
X102333333Y-64604761D01*
X102428571Y-64652380D01*
X102523809Y-64652380D01*
X102857142Y-64652380D02*
X102857142Y-63985714D01*
X102857142Y-63652380D02*
X102809523Y-63700000D01*
X102857142Y-63747619D01*
X102904761Y-63700000D01*
X102857142Y-63652380D01*
X102857142Y-63747619D01*
X103333333Y-63985714D02*
X103333333Y-64652380D01*
X103333333Y-64080952D02*
X103380952Y-64033333D01*
X103476190Y-63985714D01*
X103619047Y-63985714D01*
X103714285Y-64033333D01*
X103761904Y-64128571D01*
X103761904Y-64652380D01*
X104666666Y-63985714D02*
X104666666Y-64795238D01*
X104619047Y-64890476D01*
X104571428Y-64938095D01*
X104476190Y-64985714D01*
X104333333Y-64985714D01*
X104238095Y-64938095D01*
X104666666Y-64604761D02*
X104571428Y-64652380D01*
X104380952Y-64652380D01*
X104285714Y-64604761D01*
X104238095Y-64557142D01*
X104190476Y-64461904D01*
X104190476Y-64176190D01*
X104238095Y-64080952D01*
X104285714Y-64033333D01*
X104380952Y-63985714D01*
X104571428Y-63985714D01*
X104666666Y-64033333D01*
X105142857Y-64652380D02*
X105142857Y-63652380D01*
X105142857Y-64128571D02*
X105714285Y-64128571D01*
X105714285Y-64652380D02*
X105714285Y-63652380D01*
X106333333Y-64652380D02*
X106238095Y-64604761D01*
X106190476Y-64557142D01*
X106142857Y-64461904D01*
X106142857Y-64176190D01*
X106190476Y-64080952D01*
X106238095Y-64033333D01*
X106333333Y-63985714D01*
X106476190Y-63985714D01*
X106571428Y-64033333D01*
X106619047Y-64080952D01*
X106666666Y-64176190D01*
X106666666Y-64461904D01*
X106619047Y-64557142D01*
X106571428Y-64604761D01*
X106476190Y-64652380D01*
X106333333Y-64652380D01*
X107238095Y-64652380D02*
X107142857Y-64604761D01*
X107095238Y-64509523D01*
X107095238Y-63652380D01*
X108000000Y-64604761D02*
X107904761Y-64652380D01*
X107714285Y-64652380D01*
X107619047Y-64604761D01*
X107571428Y-64509523D01*
X107571428Y-64128571D01*
X107619047Y-64033333D01*
X107714285Y-63985714D01*
X107904761Y-63985714D01*
X108000000Y-64033333D01*
X108047619Y-64128571D01*
X108047619Y-64223809D01*
X107571428Y-64319047D01*
X108238095Y-64747619D02*
X109000000Y-64747619D01*
X109238095Y-64652380D02*
X109238095Y-63652380D01*
X109619047Y-63652380D01*
X109714285Y-63700000D01*
X109761904Y-63747619D01*
X109809523Y-63842857D01*
X109809523Y-63985714D01*
X109761904Y-64080952D01*
X109714285Y-64128571D01*
X109619047Y-64176190D01*
X109238095Y-64176190D01*
X110666666Y-64652380D02*
X110666666Y-64128571D01*
X110619047Y-64033333D01*
X110523809Y-63985714D01*
X110333333Y-63985714D01*
X110238095Y-64033333D01*
X110666666Y-64604761D02*
X110571428Y-64652380D01*
X110333333Y-64652380D01*
X110238095Y-64604761D01*
X110190476Y-64509523D01*
X110190476Y-64414285D01*
X110238095Y-64319047D01*
X110333333Y-64271428D01*
X110571428Y-64271428D01*
X110666666Y-64223809D01*
X111571428Y-64652380D02*
X111571428Y-63652380D01*
X111571428Y-64604761D02*
X111476190Y-64652380D01*
X111285714Y-64652380D01*
X111190476Y-64604761D01*
X111142857Y-64557142D01*
X111095238Y-64461904D01*
X111095238Y-64176190D01*
X111142857Y-64080952D01*
X111190476Y-64033333D01*
X111285714Y-63985714D01*
X111476190Y-63985714D01*
X111571428Y-64033333D01*
X104538095Y-60452380D02*
X104538095Y-59452380D01*
X104538095Y-59928571D02*
X105109523Y-59928571D01*
X105109523Y-60452380D02*
X105109523Y-59452380D01*
X106109523Y-60452380D02*
X105538095Y-60452380D01*
X105823809Y-60452380D02*
X105823809Y-59452380D01*
X105728571Y-59595238D01*
X105633333Y-59690476D01*
X105538095Y-59738095D01*
%TO.C,H2*%
X153428571Y-64652380D02*
X153428571Y-63652380D01*
X153761904Y-64366666D01*
X154095238Y-63652380D01*
X154095238Y-64652380D01*
X154714285Y-64652380D02*
X154619047Y-64604761D01*
X154571428Y-64557142D01*
X154523809Y-64461904D01*
X154523809Y-64176190D01*
X154571428Y-64080952D01*
X154619047Y-64033333D01*
X154714285Y-63985714D01*
X154857142Y-63985714D01*
X154952380Y-64033333D01*
X155000000Y-64080952D01*
X155047619Y-64176190D01*
X155047619Y-64461904D01*
X155000000Y-64557142D01*
X154952380Y-64604761D01*
X154857142Y-64652380D01*
X154714285Y-64652380D01*
X155904761Y-63985714D02*
X155904761Y-64652380D01*
X155476190Y-63985714D02*
X155476190Y-64509523D01*
X155523809Y-64604761D01*
X155619047Y-64652380D01*
X155761904Y-64652380D01*
X155857142Y-64604761D01*
X155904761Y-64557142D01*
X156380952Y-63985714D02*
X156380952Y-64652380D01*
X156380952Y-64080952D02*
X156428571Y-64033333D01*
X156523809Y-63985714D01*
X156666666Y-63985714D01*
X156761904Y-64033333D01*
X156809523Y-64128571D01*
X156809523Y-64652380D01*
X157142857Y-63985714D02*
X157523809Y-63985714D01*
X157285714Y-63652380D02*
X157285714Y-64509523D01*
X157333333Y-64604761D01*
X157428571Y-64652380D01*
X157523809Y-64652380D01*
X157857142Y-64652380D02*
X157857142Y-63985714D01*
X157857142Y-63652380D02*
X157809523Y-63700000D01*
X157857142Y-63747619D01*
X157904761Y-63700000D01*
X157857142Y-63652380D01*
X157857142Y-63747619D01*
X158333333Y-63985714D02*
X158333333Y-64652380D01*
X158333333Y-64080952D02*
X158380952Y-64033333D01*
X158476190Y-63985714D01*
X158619047Y-63985714D01*
X158714285Y-64033333D01*
X158761904Y-64128571D01*
X158761904Y-64652380D01*
X159666666Y-63985714D02*
X159666666Y-64795238D01*
X159619047Y-64890476D01*
X159571428Y-64938095D01*
X159476190Y-64985714D01*
X159333333Y-64985714D01*
X159238095Y-64938095D01*
X159666666Y-64604761D02*
X159571428Y-64652380D01*
X159380952Y-64652380D01*
X159285714Y-64604761D01*
X159238095Y-64557142D01*
X159190476Y-64461904D01*
X159190476Y-64176190D01*
X159238095Y-64080952D01*
X159285714Y-64033333D01*
X159380952Y-63985714D01*
X159571428Y-63985714D01*
X159666666Y-64033333D01*
X160142857Y-64652380D02*
X160142857Y-63652380D01*
X160142857Y-64128571D02*
X160714285Y-64128571D01*
X160714285Y-64652380D02*
X160714285Y-63652380D01*
X161333333Y-64652380D02*
X161238095Y-64604761D01*
X161190476Y-64557142D01*
X161142857Y-64461904D01*
X161142857Y-64176190D01*
X161190476Y-64080952D01*
X161238095Y-64033333D01*
X161333333Y-63985714D01*
X161476190Y-63985714D01*
X161571428Y-64033333D01*
X161619047Y-64080952D01*
X161666666Y-64176190D01*
X161666666Y-64461904D01*
X161619047Y-64557142D01*
X161571428Y-64604761D01*
X161476190Y-64652380D01*
X161333333Y-64652380D01*
X162238095Y-64652380D02*
X162142857Y-64604761D01*
X162095238Y-64509523D01*
X162095238Y-63652380D01*
X163000000Y-64604761D02*
X162904761Y-64652380D01*
X162714285Y-64652380D01*
X162619047Y-64604761D01*
X162571428Y-64509523D01*
X162571428Y-64128571D01*
X162619047Y-64033333D01*
X162714285Y-63985714D01*
X162904761Y-63985714D01*
X163000000Y-64033333D01*
X163047619Y-64128571D01*
X163047619Y-64223809D01*
X162571428Y-64319047D01*
X163238095Y-64747619D02*
X164000000Y-64747619D01*
X164238095Y-64652380D02*
X164238095Y-63652380D01*
X164619047Y-63652380D01*
X164714285Y-63700000D01*
X164761904Y-63747619D01*
X164809523Y-63842857D01*
X164809523Y-63985714D01*
X164761904Y-64080952D01*
X164714285Y-64128571D01*
X164619047Y-64176190D01*
X164238095Y-64176190D01*
X165666666Y-64652380D02*
X165666666Y-64128571D01*
X165619047Y-64033333D01*
X165523809Y-63985714D01*
X165333333Y-63985714D01*
X165238095Y-64033333D01*
X165666666Y-64604761D02*
X165571428Y-64652380D01*
X165333333Y-64652380D01*
X165238095Y-64604761D01*
X165190476Y-64509523D01*
X165190476Y-64414285D01*
X165238095Y-64319047D01*
X165333333Y-64271428D01*
X165571428Y-64271428D01*
X165666666Y-64223809D01*
X166571428Y-64652380D02*
X166571428Y-63652380D01*
X166571428Y-64604761D02*
X166476190Y-64652380D01*
X166285714Y-64652380D01*
X166190476Y-64604761D01*
X166142857Y-64557142D01*
X166095238Y-64461904D01*
X166095238Y-64176190D01*
X166142857Y-64080952D01*
X166190476Y-64033333D01*
X166285714Y-63985714D01*
X166476190Y-63985714D01*
X166571428Y-64033333D01*
X159538095Y-60452380D02*
X159538095Y-59452380D01*
X159538095Y-59928571D02*
X160109523Y-59928571D01*
X160109523Y-60452380D02*
X160109523Y-59452380D01*
X160538095Y-59547619D02*
X160585714Y-59500000D01*
X160680952Y-59452380D01*
X160919047Y-59452380D01*
X161014285Y-59500000D01*
X161061904Y-59547619D01*
X161109523Y-59642857D01*
X161109523Y-59738095D01*
X161061904Y-59880952D01*
X160490476Y-60452380D01*
X161109523Y-60452380D01*
%TO.C,H3*%
X153428571Y-94652380D02*
X153428571Y-93652380D01*
X153761904Y-94366666D01*
X154095238Y-93652380D01*
X154095238Y-94652380D01*
X154714285Y-94652380D02*
X154619047Y-94604761D01*
X154571428Y-94557142D01*
X154523809Y-94461904D01*
X154523809Y-94176190D01*
X154571428Y-94080952D01*
X154619047Y-94033333D01*
X154714285Y-93985714D01*
X154857142Y-93985714D01*
X154952380Y-94033333D01*
X155000000Y-94080952D01*
X155047619Y-94176190D01*
X155047619Y-94461904D01*
X155000000Y-94557142D01*
X154952380Y-94604761D01*
X154857142Y-94652380D01*
X154714285Y-94652380D01*
X155904761Y-93985714D02*
X155904761Y-94652380D01*
X155476190Y-93985714D02*
X155476190Y-94509523D01*
X155523809Y-94604761D01*
X155619047Y-94652380D01*
X155761904Y-94652380D01*
X155857142Y-94604761D01*
X155904761Y-94557142D01*
X156380952Y-93985714D02*
X156380952Y-94652380D01*
X156380952Y-94080952D02*
X156428571Y-94033333D01*
X156523809Y-93985714D01*
X156666666Y-93985714D01*
X156761904Y-94033333D01*
X156809523Y-94128571D01*
X156809523Y-94652380D01*
X157142857Y-93985714D02*
X157523809Y-93985714D01*
X157285714Y-93652380D02*
X157285714Y-94509523D01*
X157333333Y-94604761D01*
X157428571Y-94652380D01*
X157523809Y-94652380D01*
X157857142Y-94652380D02*
X157857142Y-93985714D01*
X157857142Y-93652380D02*
X157809523Y-93700000D01*
X157857142Y-93747619D01*
X157904761Y-93700000D01*
X157857142Y-93652380D01*
X157857142Y-93747619D01*
X158333333Y-93985714D02*
X158333333Y-94652380D01*
X158333333Y-94080952D02*
X158380952Y-94033333D01*
X158476190Y-93985714D01*
X158619047Y-93985714D01*
X158714285Y-94033333D01*
X158761904Y-94128571D01*
X158761904Y-94652380D01*
X159666666Y-93985714D02*
X159666666Y-94795238D01*
X159619047Y-94890476D01*
X159571428Y-94938095D01*
X159476190Y-94985714D01*
X159333333Y-94985714D01*
X159238095Y-94938095D01*
X159666666Y-94604761D02*
X159571428Y-94652380D01*
X159380952Y-94652380D01*
X159285714Y-94604761D01*
X159238095Y-94557142D01*
X159190476Y-94461904D01*
X159190476Y-94176190D01*
X159238095Y-94080952D01*
X159285714Y-94033333D01*
X159380952Y-93985714D01*
X159571428Y-93985714D01*
X159666666Y-94033333D01*
X160142857Y-94652380D02*
X160142857Y-93652380D01*
X160142857Y-94128571D02*
X160714285Y-94128571D01*
X160714285Y-94652380D02*
X160714285Y-93652380D01*
X161333333Y-94652380D02*
X161238095Y-94604761D01*
X161190476Y-94557142D01*
X161142857Y-94461904D01*
X161142857Y-94176190D01*
X161190476Y-94080952D01*
X161238095Y-94033333D01*
X161333333Y-93985714D01*
X161476190Y-93985714D01*
X161571428Y-94033333D01*
X161619047Y-94080952D01*
X161666666Y-94176190D01*
X161666666Y-94461904D01*
X161619047Y-94557142D01*
X161571428Y-94604761D01*
X161476190Y-94652380D01*
X161333333Y-94652380D01*
X162238095Y-94652380D02*
X162142857Y-94604761D01*
X162095238Y-94509523D01*
X162095238Y-93652380D01*
X163000000Y-94604761D02*
X162904761Y-94652380D01*
X162714285Y-94652380D01*
X162619047Y-94604761D01*
X162571428Y-94509523D01*
X162571428Y-94128571D01*
X162619047Y-94033333D01*
X162714285Y-93985714D01*
X162904761Y-93985714D01*
X163000000Y-94033333D01*
X163047619Y-94128571D01*
X163047619Y-94223809D01*
X162571428Y-94319047D01*
X163238095Y-94747619D02*
X164000000Y-94747619D01*
X164238095Y-94652380D02*
X164238095Y-93652380D01*
X164619047Y-93652380D01*
X164714285Y-93700000D01*
X164761904Y-93747619D01*
X164809523Y-93842857D01*
X164809523Y-93985714D01*
X164761904Y-94080952D01*
X164714285Y-94128571D01*
X164619047Y-94176190D01*
X164238095Y-94176190D01*
X165666666Y-94652380D02*
X165666666Y-94128571D01*
X165619047Y-94033333D01*
X165523809Y-93985714D01*
X165333333Y-93985714D01*
X165238095Y-94033333D01*
X165666666Y-94604761D02*
X165571428Y-94652380D01*
X165333333Y-94652380D01*
X165238095Y-94604761D01*
X165190476Y-94509523D01*
X165190476Y-94414285D01*
X165238095Y-94319047D01*
X165333333Y-94271428D01*
X165571428Y-94271428D01*
X165666666Y-94223809D01*
X166571428Y-94652380D02*
X166571428Y-93652380D01*
X166571428Y-94604761D02*
X166476190Y-94652380D01*
X166285714Y-94652380D01*
X166190476Y-94604761D01*
X166142857Y-94557142D01*
X166095238Y-94461904D01*
X166095238Y-94176190D01*
X166142857Y-94080952D01*
X166190476Y-94033333D01*
X166285714Y-93985714D01*
X166476190Y-93985714D01*
X166571428Y-94033333D01*
X159538095Y-90452380D02*
X159538095Y-89452380D01*
X159538095Y-89928571D02*
X160109523Y-89928571D01*
X160109523Y-90452380D02*
X160109523Y-89452380D01*
X160490476Y-89452380D02*
X161109523Y-89452380D01*
X160776190Y-89833333D01*
X160919047Y-89833333D01*
X161014285Y-89880952D01*
X161061904Y-89928571D01*
X161109523Y-90023809D01*
X161109523Y-90261904D01*
X161061904Y-90357142D01*
X161014285Y-90404761D01*
X160919047Y-90452380D01*
X160633333Y-90452380D01*
X160538095Y-90404761D01*
X160490476Y-90357142D01*
%TO.C,H4*%
X98428571Y-94652380D02*
X98428571Y-93652380D01*
X98761904Y-94366666D01*
X99095238Y-93652380D01*
X99095238Y-94652380D01*
X99714285Y-94652380D02*
X99619047Y-94604761D01*
X99571428Y-94557142D01*
X99523809Y-94461904D01*
X99523809Y-94176190D01*
X99571428Y-94080952D01*
X99619047Y-94033333D01*
X99714285Y-93985714D01*
X99857142Y-93985714D01*
X99952380Y-94033333D01*
X100000000Y-94080952D01*
X100047619Y-94176190D01*
X100047619Y-94461904D01*
X100000000Y-94557142D01*
X99952380Y-94604761D01*
X99857142Y-94652380D01*
X99714285Y-94652380D01*
X100904761Y-93985714D02*
X100904761Y-94652380D01*
X100476190Y-93985714D02*
X100476190Y-94509523D01*
X100523809Y-94604761D01*
X100619047Y-94652380D01*
X100761904Y-94652380D01*
X100857142Y-94604761D01*
X100904761Y-94557142D01*
X101380952Y-93985714D02*
X101380952Y-94652380D01*
X101380952Y-94080952D02*
X101428571Y-94033333D01*
X101523809Y-93985714D01*
X101666666Y-93985714D01*
X101761904Y-94033333D01*
X101809523Y-94128571D01*
X101809523Y-94652380D01*
X102142857Y-93985714D02*
X102523809Y-93985714D01*
X102285714Y-93652380D02*
X102285714Y-94509523D01*
X102333333Y-94604761D01*
X102428571Y-94652380D01*
X102523809Y-94652380D01*
X102857142Y-94652380D02*
X102857142Y-93985714D01*
X102857142Y-93652380D02*
X102809523Y-93700000D01*
X102857142Y-93747619D01*
X102904761Y-93700000D01*
X102857142Y-93652380D01*
X102857142Y-93747619D01*
X103333333Y-93985714D02*
X103333333Y-94652380D01*
X103333333Y-94080952D02*
X103380952Y-94033333D01*
X103476190Y-93985714D01*
X103619047Y-93985714D01*
X103714285Y-94033333D01*
X103761904Y-94128571D01*
X103761904Y-94652380D01*
X104666666Y-93985714D02*
X104666666Y-94795238D01*
X104619047Y-94890476D01*
X104571428Y-94938095D01*
X104476190Y-94985714D01*
X104333333Y-94985714D01*
X104238095Y-94938095D01*
X104666666Y-94604761D02*
X104571428Y-94652380D01*
X104380952Y-94652380D01*
X104285714Y-94604761D01*
X104238095Y-94557142D01*
X104190476Y-94461904D01*
X104190476Y-94176190D01*
X104238095Y-94080952D01*
X104285714Y-94033333D01*
X104380952Y-93985714D01*
X104571428Y-93985714D01*
X104666666Y-94033333D01*
X105142857Y-94652380D02*
X105142857Y-93652380D01*
X105142857Y-94128571D02*
X105714285Y-94128571D01*
X105714285Y-94652380D02*
X105714285Y-93652380D01*
X106333333Y-94652380D02*
X106238095Y-94604761D01*
X106190476Y-94557142D01*
X106142857Y-94461904D01*
X106142857Y-94176190D01*
X106190476Y-94080952D01*
X106238095Y-94033333D01*
X106333333Y-93985714D01*
X106476190Y-93985714D01*
X106571428Y-94033333D01*
X106619047Y-94080952D01*
X106666666Y-94176190D01*
X106666666Y-94461904D01*
X106619047Y-94557142D01*
X106571428Y-94604761D01*
X106476190Y-94652380D01*
X106333333Y-94652380D01*
X107238095Y-94652380D02*
X107142857Y-94604761D01*
X107095238Y-94509523D01*
X107095238Y-93652380D01*
X108000000Y-94604761D02*
X107904761Y-94652380D01*
X107714285Y-94652380D01*
X107619047Y-94604761D01*
X107571428Y-94509523D01*
X107571428Y-94128571D01*
X107619047Y-94033333D01*
X107714285Y-93985714D01*
X107904761Y-93985714D01*
X108000000Y-94033333D01*
X108047619Y-94128571D01*
X108047619Y-94223809D01*
X107571428Y-94319047D01*
X108238095Y-94747619D02*
X109000000Y-94747619D01*
X109238095Y-94652380D02*
X109238095Y-93652380D01*
X109619047Y-93652380D01*
X109714285Y-93700000D01*
X109761904Y-93747619D01*
X109809523Y-93842857D01*
X109809523Y-93985714D01*
X109761904Y-94080952D01*
X109714285Y-94128571D01*
X109619047Y-94176190D01*
X109238095Y-94176190D01*
X110666666Y-94652380D02*
X110666666Y-94128571D01*
X110619047Y-94033333D01*
X110523809Y-93985714D01*
X110333333Y-93985714D01*
X110238095Y-94033333D01*
X110666666Y-94604761D02*
X110571428Y-94652380D01*
X110333333Y-94652380D01*
X110238095Y-94604761D01*
X110190476Y-94509523D01*
X110190476Y-94414285D01*
X110238095Y-94319047D01*
X110333333Y-94271428D01*
X110571428Y-94271428D01*
X110666666Y-94223809D01*
X111571428Y-94652380D02*
X111571428Y-93652380D01*
X111571428Y-94604761D02*
X111476190Y-94652380D01*
X111285714Y-94652380D01*
X111190476Y-94604761D01*
X111142857Y-94557142D01*
X111095238Y-94461904D01*
X111095238Y-94176190D01*
X111142857Y-94080952D01*
X111190476Y-94033333D01*
X111285714Y-93985714D01*
X111476190Y-93985714D01*
X111571428Y-94033333D01*
X104538095Y-90452380D02*
X104538095Y-89452380D01*
X104538095Y-89928571D02*
X105109523Y-89928571D01*
X105109523Y-90452380D02*
X105109523Y-89452380D01*
X106014285Y-89785714D02*
X106014285Y-90452380D01*
X105776190Y-89404761D02*
X105538095Y-90119047D01*
X106157142Y-90119047D01*
%TO.C,J1*%
X154757142Y-75988095D02*
X154804761Y-76035714D01*
X154852380Y-76178571D01*
X154852380Y-76273809D01*
X154804761Y-76416666D01*
X154709523Y-76511904D01*
X154614285Y-76559523D01*
X154423809Y-76607142D01*
X154280952Y-76607142D01*
X154090476Y-76559523D01*
X153995238Y-76511904D01*
X153900000Y-76416666D01*
X153852380Y-76273809D01*
X153852380Y-76178571D01*
X153900000Y-76035714D01*
X153947619Y-75988095D01*
X154852380Y-75416666D02*
X154804761Y-75511904D01*
X154757142Y-75559523D01*
X154661904Y-75607142D01*
X154376190Y-75607142D01*
X154280952Y-75559523D01*
X154233333Y-75511904D01*
X154185714Y-75416666D01*
X154185714Y-75273809D01*
X154233333Y-75178571D01*
X154280952Y-75130952D01*
X154376190Y-75083333D01*
X154661904Y-75083333D01*
X154757142Y-75130952D01*
X154804761Y-75178571D01*
X154852380Y-75273809D01*
X154852380Y-75416666D01*
X154185714Y-74654761D02*
X154852380Y-74654761D01*
X154280952Y-74654761D02*
X154233333Y-74607142D01*
X154185714Y-74511904D01*
X154185714Y-74369047D01*
X154233333Y-74273809D01*
X154328571Y-74226190D01*
X154852380Y-74226190D01*
X154185714Y-73750000D02*
X154852380Y-73750000D01*
X154280952Y-73750000D02*
X154233333Y-73702380D01*
X154185714Y-73607142D01*
X154185714Y-73464285D01*
X154233333Y-73369047D01*
X154328571Y-73321428D01*
X154852380Y-73321428D01*
X154947619Y-73083333D02*
X154947619Y-72321428D01*
X153852380Y-71892857D02*
X153852380Y-71797619D01*
X153900000Y-71702380D01*
X153947619Y-71654761D01*
X154042857Y-71607142D01*
X154233333Y-71559523D01*
X154471428Y-71559523D01*
X154661904Y-71607142D01*
X154757142Y-71654761D01*
X154804761Y-71702380D01*
X154852380Y-71797619D01*
X154852380Y-71892857D01*
X154804761Y-71988095D01*
X154757142Y-72035714D01*
X154661904Y-72083333D01*
X154471428Y-72130952D01*
X154233333Y-72130952D01*
X154042857Y-72083333D01*
X153947619Y-72035714D01*
X153900000Y-71988095D01*
X153852380Y-71892857D01*
X154852380Y-70607142D02*
X154852380Y-71178571D01*
X154852380Y-70892857D02*
X153852380Y-70892857D01*
X153995238Y-70988095D01*
X154090476Y-71083333D01*
X154138095Y-71178571D01*
X154852380Y-70273809D02*
X154185714Y-69750000D01*
X154185714Y-70273809D02*
X154852380Y-69750000D01*
X153852380Y-69178571D02*
X153852380Y-69083333D01*
X153900000Y-68988095D01*
X153947619Y-68940476D01*
X154042857Y-68892857D01*
X154233333Y-68845238D01*
X154471428Y-68845238D01*
X154661904Y-68892857D01*
X154757142Y-68940476D01*
X154804761Y-68988095D01*
X154852380Y-69083333D01*
X154852380Y-69178571D01*
X154804761Y-69273809D01*
X154757142Y-69321428D01*
X154661904Y-69369047D01*
X154471428Y-69416666D01*
X154233333Y-69416666D01*
X154042857Y-69369047D01*
X153947619Y-69321428D01*
X153900000Y-69273809D01*
X153852380Y-69178571D01*
X154185714Y-67988095D02*
X154852380Y-67988095D01*
X153804761Y-68226190D02*
X154519047Y-68464285D01*
X154519047Y-67845238D01*
X146902380Y-72583333D02*
X147616666Y-72583333D01*
X147759523Y-72630952D01*
X147854761Y-72726190D01*
X147902380Y-72869047D01*
X147902380Y-72964285D01*
X147902380Y-71583333D02*
X147902380Y-72154761D01*
X147902380Y-71869047D02*
X146902380Y-71869047D01*
X147045238Y-71964285D01*
X147140476Y-72059523D01*
X147188095Y-72154761D01*
%TO.C,J2*%
X109957142Y-75988095D02*
X110004761Y-76035714D01*
X110052380Y-76178571D01*
X110052380Y-76273809D01*
X110004761Y-76416666D01*
X109909523Y-76511904D01*
X109814285Y-76559523D01*
X109623809Y-76607142D01*
X109480952Y-76607142D01*
X109290476Y-76559523D01*
X109195238Y-76511904D01*
X109100000Y-76416666D01*
X109052380Y-76273809D01*
X109052380Y-76178571D01*
X109100000Y-76035714D01*
X109147619Y-75988095D01*
X110052380Y-75416666D02*
X110004761Y-75511904D01*
X109957142Y-75559523D01*
X109861904Y-75607142D01*
X109576190Y-75607142D01*
X109480952Y-75559523D01*
X109433333Y-75511904D01*
X109385714Y-75416666D01*
X109385714Y-75273809D01*
X109433333Y-75178571D01*
X109480952Y-75130952D01*
X109576190Y-75083333D01*
X109861904Y-75083333D01*
X109957142Y-75130952D01*
X110004761Y-75178571D01*
X110052380Y-75273809D01*
X110052380Y-75416666D01*
X109385714Y-74654761D02*
X110052380Y-74654761D01*
X109480952Y-74654761D02*
X109433333Y-74607142D01*
X109385714Y-74511904D01*
X109385714Y-74369047D01*
X109433333Y-74273809D01*
X109528571Y-74226190D01*
X110052380Y-74226190D01*
X109385714Y-73750000D02*
X110052380Y-73750000D01*
X109480952Y-73750000D02*
X109433333Y-73702380D01*
X109385714Y-73607142D01*
X109385714Y-73464285D01*
X109433333Y-73369047D01*
X109528571Y-73321428D01*
X110052380Y-73321428D01*
X110147619Y-73083333D02*
X110147619Y-72321428D01*
X109052380Y-71892857D02*
X109052380Y-71797619D01*
X109100000Y-71702380D01*
X109147619Y-71654761D01*
X109242857Y-71607142D01*
X109433333Y-71559523D01*
X109671428Y-71559523D01*
X109861904Y-71607142D01*
X109957142Y-71654761D01*
X110004761Y-71702380D01*
X110052380Y-71797619D01*
X110052380Y-71892857D01*
X110004761Y-71988095D01*
X109957142Y-72035714D01*
X109861904Y-72083333D01*
X109671428Y-72130952D01*
X109433333Y-72130952D01*
X109242857Y-72083333D01*
X109147619Y-72035714D01*
X109100000Y-71988095D01*
X109052380Y-71892857D01*
X110052380Y-70607142D02*
X110052380Y-71178571D01*
X110052380Y-70892857D02*
X109052380Y-70892857D01*
X109195238Y-70988095D01*
X109290476Y-71083333D01*
X109338095Y-71178571D01*
X110052380Y-70273809D02*
X109385714Y-69750000D01*
X109385714Y-70273809D02*
X110052380Y-69750000D01*
X109052380Y-69178571D02*
X109052380Y-69083333D01*
X109100000Y-68988095D01*
X109147619Y-68940476D01*
X109242857Y-68892857D01*
X109433333Y-68845238D01*
X109671428Y-68845238D01*
X109861904Y-68892857D01*
X109957142Y-68940476D01*
X110004761Y-68988095D01*
X110052380Y-69083333D01*
X110052380Y-69178571D01*
X110004761Y-69273809D01*
X109957142Y-69321428D01*
X109861904Y-69369047D01*
X109671428Y-69416666D01*
X109433333Y-69416666D01*
X109242857Y-69369047D01*
X109147619Y-69321428D01*
X109100000Y-69273809D01*
X109052380Y-69178571D01*
X109385714Y-67988095D02*
X110052380Y-67988095D01*
X109004761Y-68226190D02*
X109719047Y-68464285D01*
X109719047Y-67845238D01*
X116002380Y-72583333D02*
X116716666Y-72583333D01*
X116859523Y-72630952D01*
X116954761Y-72726190D01*
X117002380Y-72869047D01*
X117002380Y-72964285D01*
X116097619Y-72154761D02*
X116050000Y-72107142D01*
X116002380Y-72011904D01*
X116002380Y-71773809D01*
X116050000Y-71678571D01*
X116097619Y-71630952D01*
X116192857Y-71583333D01*
X116288095Y-71583333D01*
X116430952Y-71630952D01*
X117002380Y-72202380D01*
X117002380Y-71583333D01*
%TO.C,J3*%
X124127142Y-85767142D02*
X124079523Y-85814761D01*
X123936666Y-85862380D01*
X123841428Y-85862380D01*
X123698571Y-85814761D01*
X123603333Y-85719523D01*
X123555714Y-85624285D01*
X123508095Y-85433809D01*
X123508095Y-85290952D01*
X123555714Y-85100476D01*
X123603333Y-85005238D01*
X123698571Y-84910000D01*
X123841428Y-84862380D01*
X123936666Y-84862380D01*
X124079523Y-84910000D01*
X124127142Y-84957619D01*
X124698571Y-85862380D02*
X124603333Y-85814761D01*
X124555714Y-85767142D01*
X124508095Y-85671904D01*
X124508095Y-85386190D01*
X124555714Y-85290952D01*
X124603333Y-85243333D01*
X124698571Y-85195714D01*
X124841428Y-85195714D01*
X124936666Y-85243333D01*
X124984285Y-85290952D01*
X125031904Y-85386190D01*
X125031904Y-85671904D01*
X124984285Y-85767142D01*
X124936666Y-85814761D01*
X124841428Y-85862380D01*
X124698571Y-85862380D01*
X125460476Y-85195714D02*
X125460476Y-85862380D01*
X125460476Y-85290952D02*
X125508095Y-85243333D01*
X125603333Y-85195714D01*
X125746190Y-85195714D01*
X125841428Y-85243333D01*
X125889047Y-85338571D01*
X125889047Y-85862380D01*
X126365238Y-85195714D02*
X126365238Y-85862380D01*
X126365238Y-85290952D02*
X126412857Y-85243333D01*
X126508095Y-85195714D01*
X126650952Y-85195714D01*
X126746190Y-85243333D01*
X126793809Y-85338571D01*
X126793809Y-85862380D01*
X127031904Y-85957619D02*
X127793809Y-85957619D01*
X128222380Y-84862380D02*
X128317619Y-84862380D01*
X128412857Y-84910000D01*
X128460476Y-84957619D01*
X128508095Y-85052857D01*
X128555714Y-85243333D01*
X128555714Y-85481428D01*
X128508095Y-85671904D01*
X128460476Y-85767142D01*
X128412857Y-85814761D01*
X128317619Y-85862380D01*
X128222380Y-85862380D01*
X128127142Y-85814761D01*
X128079523Y-85767142D01*
X128031904Y-85671904D01*
X127984285Y-85481428D01*
X127984285Y-85243333D01*
X128031904Y-85052857D01*
X128079523Y-84957619D01*
X128127142Y-84910000D01*
X128222380Y-84862380D01*
X128936666Y-84957619D02*
X128984285Y-84910000D01*
X129079523Y-84862380D01*
X129317619Y-84862380D01*
X129412857Y-84910000D01*
X129460476Y-84957619D01*
X129508095Y-85052857D01*
X129508095Y-85148095D01*
X129460476Y-85290952D01*
X128889047Y-85862380D01*
X129508095Y-85862380D01*
X129841428Y-85862380D02*
X130365238Y-85195714D01*
X129841428Y-85195714D02*
X130365238Y-85862380D01*
X130936666Y-84862380D02*
X131031904Y-84862380D01*
X131127142Y-84910000D01*
X131174761Y-84957619D01*
X131222380Y-85052857D01*
X131270000Y-85243333D01*
X131270000Y-85481428D01*
X131222380Y-85671904D01*
X131174761Y-85767142D01*
X131127142Y-85814761D01*
X131031904Y-85862380D01*
X130936666Y-85862380D01*
X130841428Y-85814761D01*
X130793809Y-85767142D01*
X130746190Y-85671904D01*
X130698571Y-85481428D01*
X130698571Y-85243333D01*
X130746190Y-85052857D01*
X130793809Y-84957619D01*
X130841428Y-84910000D01*
X130936666Y-84862380D01*
X131603333Y-84862380D02*
X132222380Y-84862380D01*
X131889047Y-85243333D01*
X132031904Y-85243333D01*
X132127142Y-85290952D01*
X132174761Y-85338571D01*
X132222380Y-85433809D01*
X132222380Y-85671904D01*
X132174761Y-85767142D01*
X132127142Y-85814761D01*
X132031904Y-85862380D01*
X131746190Y-85862380D01*
X131650952Y-85814761D01*
X131603333Y-85767142D01*
X132412857Y-85957619D02*
X133174761Y-85957619D01*
X133603333Y-84862380D02*
X133793809Y-84862380D01*
X133889047Y-84910000D01*
X133984285Y-85005238D01*
X134031904Y-85195714D01*
X134031904Y-85529047D01*
X133984285Y-85719523D01*
X133889047Y-85814761D01*
X133793809Y-85862380D01*
X133603333Y-85862380D01*
X133508095Y-85814761D01*
X133412857Y-85719523D01*
X133365238Y-85529047D01*
X133365238Y-85195714D01*
X133412857Y-85005238D01*
X133508095Y-84910000D01*
X133603333Y-84862380D01*
X134889047Y-85862380D02*
X134889047Y-84862380D01*
X134889047Y-85814761D02*
X134793809Y-85862380D01*
X134603333Y-85862380D01*
X134508095Y-85814761D01*
X134460476Y-85767142D01*
X134412857Y-85671904D01*
X134412857Y-85386190D01*
X134460476Y-85290952D01*
X134508095Y-85243333D01*
X134603333Y-85195714D01*
X134793809Y-85195714D01*
X134889047Y-85243333D01*
X135793809Y-85862380D02*
X135793809Y-84862380D01*
X135793809Y-85814761D02*
X135698571Y-85862380D01*
X135508095Y-85862380D01*
X135412857Y-85814761D01*
X135365238Y-85767142D01*
X135317619Y-85671904D01*
X135317619Y-85386190D01*
X135365238Y-85290952D01*
X135412857Y-85243333D01*
X135508095Y-85195714D01*
X135698571Y-85195714D01*
X135793809Y-85243333D01*
X136031904Y-85957619D02*
X136793809Y-85957619D01*
X137031904Y-85338571D02*
X137365238Y-85338571D01*
X137508095Y-85862380D02*
X137031904Y-85862380D01*
X137031904Y-84862380D01*
X137508095Y-84862380D01*
X137841428Y-85195714D02*
X138079523Y-85862380D01*
X138317619Y-85195714D01*
X139079523Y-85814761D02*
X138984285Y-85862380D01*
X138793809Y-85862380D01*
X138698571Y-85814761D01*
X138650952Y-85719523D01*
X138650952Y-85338571D01*
X138698571Y-85243333D01*
X138793809Y-85195714D01*
X138984285Y-85195714D01*
X139079523Y-85243333D01*
X139127142Y-85338571D01*
X139127142Y-85433809D01*
X138650952Y-85529047D01*
X139555714Y-85195714D02*
X139555714Y-85862380D01*
X139555714Y-85290952D02*
X139603333Y-85243333D01*
X139698571Y-85195714D01*
X139841428Y-85195714D01*
X139936666Y-85243333D01*
X139984285Y-85338571D01*
X139984285Y-85862380D01*
X131222380Y-80873333D02*
X131936666Y-80873333D01*
X132079523Y-80920952D01*
X132174761Y-81016190D01*
X132222380Y-81159047D01*
X132222380Y-81254285D01*
X131222380Y-80492380D02*
X131222380Y-79873333D01*
X131603333Y-80206666D01*
X131603333Y-80063809D01*
X131650952Y-79968571D01*
X131698571Y-79920952D01*
X131793809Y-79873333D01*
X132031904Y-79873333D01*
X132127142Y-79920952D01*
X132174761Y-79968571D01*
X132222380Y-80063809D01*
X132222380Y-80349523D01*
X132174761Y-80444761D01*
X132127142Y-80492380D01*
%TO.C,R1*%
X127477619Y-73954166D02*
X127430000Y-73906547D01*
X127382380Y-73811309D01*
X127382380Y-73573214D01*
X127430000Y-73477976D01*
X127477619Y-73430357D01*
X127572857Y-73382738D01*
X127668095Y-73382738D01*
X127810952Y-73430357D01*
X128382380Y-74001785D01*
X128382380Y-73382738D01*
X128382380Y-72954166D02*
X127382380Y-72954166D01*
X128001428Y-72858928D02*
X128382380Y-72573214D01*
X127715714Y-72573214D02*
X128096666Y-72954166D01*
X127477619Y-72192261D02*
X127430000Y-72144642D01*
X127382380Y-72049404D01*
X127382380Y-71811309D01*
X127430000Y-71716071D01*
X127477619Y-71668452D01*
X127572857Y-71620833D01*
X127668095Y-71620833D01*
X127810952Y-71668452D01*
X128382380Y-72239880D01*
X128382380Y-71620833D01*
D13*
X126680952Y-72854166D02*
X126490476Y-72987500D01*
X126680952Y-73082738D02*
X126280952Y-73082738D01*
X126280952Y-72930357D01*
X126300000Y-72892261D01*
X126319047Y-72873214D01*
X126357142Y-72854166D01*
X126414285Y-72854166D01*
X126452380Y-72873214D01*
X126471428Y-72892261D01*
X126490476Y-72930357D01*
X126490476Y-73082738D01*
X126680952Y-72473214D02*
X126680952Y-72701785D01*
X126680952Y-72587500D02*
X126280952Y-72587500D01*
X126338095Y-72625595D01*
X126376190Y-72663690D01*
X126395238Y-72701785D01*
%TO.C,R2*%
D12*
X124977619Y-73954166D02*
X124930000Y-73906547D01*
X124882380Y-73811309D01*
X124882380Y-73573214D01*
X124930000Y-73477976D01*
X124977619Y-73430357D01*
X125072857Y-73382738D01*
X125168095Y-73382738D01*
X125310952Y-73430357D01*
X125882380Y-74001785D01*
X125882380Y-73382738D01*
X125882380Y-72954166D02*
X124882380Y-72954166D01*
X125501428Y-72858928D02*
X125882380Y-72573214D01*
X125215714Y-72573214D02*
X125596666Y-72954166D01*
X124977619Y-72192261D02*
X124930000Y-72144642D01*
X124882380Y-72049404D01*
X124882380Y-71811309D01*
X124930000Y-71716071D01*
X124977619Y-71668452D01*
X125072857Y-71620833D01*
X125168095Y-71620833D01*
X125310952Y-71668452D01*
X125882380Y-72239880D01*
X125882380Y-71620833D01*
D13*
X124180952Y-72854166D02*
X123990476Y-72987500D01*
X124180952Y-73082738D02*
X123780952Y-73082738D01*
X123780952Y-72930357D01*
X123800000Y-72892261D01*
X123819047Y-72873214D01*
X123857142Y-72854166D01*
X123914285Y-72854166D01*
X123952380Y-72873214D01*
X123971428Y-72892261D01*
X123990476Y-72930357D01*
X123990476Y-73082738D01*
X123819047Y-72701785D02*
X123800000Y-72682738D01*
X123780952Y-72644642D01*
X123780952Y-72549404D01*
X123800000Y-72511309D01*
X123819047Y-72492261D01*
X123857142Y-72473214D01*
X123895238Y-72473214D01*
X123952380Y-72492261D01*
X124180952Y-72720833D01*
X124180952Y-72473214D01*
%TO.C,R3*%
D12*
X139882380Y-68047619D02*
X139882380Y-67952380D01*
X139930000Y-67857142D01*
X139977619Y-67809523D01*
X140072857Y-67761904D01*
X140263333Y-67714285D01*
X140501428Y-67714285D01*
X140691904Y-67761904D01*
X140787142Y-67809523D01*
X140834761Y-67857142D01*
X140882380Y-67952380D01*
X140882380Y-68047619D01*
X140834761Y-68142857D01*
X140787142Y-68190476D01*
X140691904Y-68238095D01*
X140501428Y-68285714D01*
X140263333Y-68285714D01*
X140072857Y-68238095D01*
X139977619Y-68190476D01*
X139930000Y-68142857D01*
X139882380Y-68047619D01*
D13*
X139180952Y-68066666D02*
X138990476Y-68200000D01*
X139180952Y-68295238D02*
X138780952Y-68295238D01*
X138780952Y-68142857D01*
X138800000Y-68104761D01*
X138819047Y-68085714D01*
X138857142Y-68066666D01*
X138914285Y-68066666D01*
X138952380Y-68085714D01*
X138971428Y-68104761D01*
X138990476Y-68142857D01*
X138990476Y-68295238D01*
X138780952Y-67933333D02*
X138780952Y-67685714D01*
X138933333Y-67819047D01*
X138933333Y-67761904D01*
X138952380Y-67723809D01*
X138971428Y-67704761D01*
X139009523Y-67685714D01*
X139104761Y-67685714D01*
X139142857Y-67704761D01*
X139161904Y-67723809D01*
X139180952Y-67761904D01*
X139180952Y-67876190D01*
X139161904Y-67914285D01*
X139142857Y-67933333D01*
%TO.C,R4*%
D12*
X135952380Y-67382380D02*
X136047619Y-67382380D01*
X136142857Y-67430000D01*
X136190476Y-67477619D01*
X136238095Y-67572857D01*
X136285714Y-67763333D01*
X136285714Y-68001428D01*
X136238095Y-68191904D01*
X136190476Y-68287142D01*
X136142857Y-68334761D01*
X136047619Y-68382380D01*
X135952380Y-68382380D01*
X135857142Y-68334761D01*
X135809523Y-68287142D01*
X135761904Y-68191904D01*
X135714285Y-68001428D01*
X135714285Y-67763333D01*
X135761904Y-67572857D01*
X135809523Y-67477619D01*
X135857142Y-67430000D01*
X135952380Y-67382380D01*
D13*
X135933333Y-66680952D02*
X135800000Y-66490476D01*
X135704761Y-66680952D02*
X135704761Y-66280952D01*
X135857142Y-66280952D01*
X135895238Y-66300000D01*
X135914285Y-66319047D01*
X135933333Y-66357142D01*
X135933333Y-66414285D01*
X135914285Y-66452380D01*
X135895238Y-66471428D01*
X135857142Y-66490476D01*
X135704761Y-66490476D01*
X136276190Y-66414285D02*
X136276190Y-66680952D01*
X136180952Y-66261904D02*
X136085714Y-66547619D01*
X136333333Y-66547619D01*
%TO.C,R5*%
D12*
X137522380Y-74595238D02*
X137522380Y-75166666D01*
X137522380Y-74880952D02*
X136522380Y-74880952D01*
X136665238Y-74976190D01*
X136760476Y-75071428D01*
X136808095Y-75166666D01*
X136522380Y-73976190D02*
X136522380Y-73880952D01*
X136570000Y-73785714D01*
X136617619Y-73738095D01*
X136712857Y-73690476D01*
X136903333Y-73642857D01*
X137141428Y-73642857D01*
X137331904Y-73690476D01*
X137427142Y-73738095D01*
X137474761Y-73785714D01*
X137522380Y-73880952D01*
X137522380Y-73976190D01*
X137474761Y-74071428D01*
X137427142Y-74119047D01*
X137331904Y-74166666D01*
X137141428Y-74214285D01*
X136903333Y-74214285D01*
X136712857Y-74166666D01*
X136617619Y-74119047D01*
X136570000Y-74071428D01*
X136522380Y-73976190D01*
X137522380Y-73214285D02*
X136522380Y-73214285D01*
X137141428Y-73119047D02*
X137522380Y-72833333D01*
X136855714Y-72833333D02*
X137236666Y-73214285D01*
D13*
X138680952Y-74066666D02*
X138490476Y-74200000D01*
X138680952Y-74295238D02*
X138280952Y-74295238D01*
X138280952Y-74142857D01*
X138300000Y-74104761D01*
X138319047Y-74085714D01*
X138357142Y-74066666D01*
X138414285Y-74066666D01*
X138452380Y-74085714D01*
X138471428Y-74104761D01*
X138490476Y-74142857D01*
X138490476Y-74295238D01*
X138280952Y-73704761D02*
X138280952Y-73895238D01*
X138471428Y-73914285D01*
X138452380Y-73895238D01*
X138433333Y-73857142D01*
X138433333Y-73761904D01*
X138452380Y-73723809D01*
X138471428Y-73704761D01*
X138509523Y-73685714D01*
X138604761Y-73685714D01*
X138642857Y-73704761D01*
X138661904Y-73723809D01*
X138680952Y-73761904D01*
X138680952Y-73857142D01*
X138661904Y-73895238D01*
X138642857Y-73914285D01*
%TO.C,U1*%
D12*
X127000000Y-66986666D02*
X127476190Y-66986666D01*
X126904761Y-67272380D02*
X127238095Y-66272380D01*
X127571428Y-67272380D01*
X127761904Y-66272380D02*
X128333333Y-66272380D01*
X128047619Y-67272380D02*
X128047619Y-66272380D01*
X128523809Y-66605714D02*
X128904761Y-66605714D01*
X128666666Y-66272380D02*
X128666666Y-67129523D01*
X128714285Y-67224761D01*
X128809523Y-67272380D01*
X128904761Y-67272380D01*
X129238095Y-67272380D02*
X129238095Y-66605714D01*
X129238095Y-66272380D02*
X129190476Y-66320000D01*
X129238095Y-66367619D01*
X129285714Y-66320000D01*
X129238095Y-66272380D01*
X129238095Y-66367619D01*
X129714285Y-66605714D02*
X129714285Y-67272380D01*
X129714285Y-66700952D02*
X129761904Y-66653333D01*
X129857142Y-66605714D01*
X130000000Y-66605714D01*
X130095238Y-66653333D01*
X130142857Y-66748571D01*
X130142857Y-67272380D01*
X130523809Y-66605714D02*
X130761904Y-67272380D01*
X131000000Y-66605714D02*
X130761904Y-67272380D01*
X130666666Y-67510476D01*
X130619047Y-67558095D01*
X130523809Y-67605714D01*
X131523809Y-66700952D02*
X131428571Y-66653333D01*
X131380952Y-66605714D01*
X131333333Y-66510476D01*
X131333333Y-66462857D01*
X131380952Y-66367619D01*
X131428571Y-66320000D01*
X131523809Y-66272380D01*
X131714285Y-66272380D01*
X131809523Y-66320000D01*
X131857142Y-66367619D01*
X131904761Y-66462857D01*
X131904761Y-66510476D01*
X131857142Y-66605714D01*
X131809523Y-66653333D01*
X131714285Y-66700952D01*
X131523809Y-66700952D01*
X131428571Y-66748571D01*
X131380952Y-66796190D01*
X131333333Y-66891428D01*
X131333333Y-67081904D01*
X131380952Y-67177142D01*
X131428571Y-67224761D01*
X131523809Y-67272380D01*
X131714285Y-67272380D01*
X131809523Y-67224761D01*
X131857142Y-67177142D01*
X131904761Y-67081904D01*
X131904761Y-66891428D01*
X131857142Y-66796190D01*
X131809523Y-66748571D01*
X131714285Y-66700952D01*
X132809523Y-66272380D02*
X132333333Y-66272380D01*
X132285714Y-66748571D01*
X132333333Y-66700952D01*
X132428571Y-66653333D01*
X132666666Y-66653333D01*
X132761904Y-66700952D01*
X132809523Y-66748571D01*
X132857142Y-66843809D01*
X132857142Y-67081904D01*
X132809523Y-67177142D01*
X132761904Y-67224761D01*
X132666666Y-67272380D01*
X132428571Y-67272380D01*
X132333333Y-67224761D01*
X132285714Y-67177142D01*
X133285714Y-66891428D02*
X134047619Y-66891428D01*
X134476190Y-66367619D02*
X134523809Y-66320000D01*
X134619047Y-66272380D01*
X134857142Y-66272380D01*
X134952380Y-66320000D01*
X135000000Y-66367619D01*
X135047619Y-66462857D01*
X135047619Y-66558095D01*
X135000000Y-66700952D01*
X134428571Y-67272380D01*
X135047619Y-67272380D01*
X135666666Y-66272380D02*
X135761904Y-66272380D01*
X135857142Y-66320000D01*
X135904761Y-66367619D01*
X135952380Y-66462857D01*
X136000000Y-66653333D01*
X136000000Y-66891428D01*
X135952380Y-67081904D01*
X135904761Y-67177142D01*
X135857142Y-67224761D01*
X135761904Y-67272380D01*
X135666666Y-67272380D01*
X135571428Y-67224761D01*
X135523809Y-67177142D01*
X135476190Y-67081904D01*
X135428571Y-66891428D01*
X135428571Y-66653333D01*
X135476190Y-66462857D01*
X135523809Y-66367619D01*
X135571428Y-66320000D01*
X135666666Y-66272380D01*
X136380952Y-67224761D02*
X136523809Y-67272380D01*
X136761904Y-67272380D01*
X136857142Y-67224761D01*
X136904761Y-67177142D01*
X136952380Y-67081904D01*
X136952380Y-66986666D01*
X136904761Y-66891428D01*
X136857142Y-66843809D01*
X136761904Y-66796190D01*
X136571428Y-66748571D01*
X136476190Y-66700952D01*
X136428571Y-66653333D01*
X136380952Y-66558095D01*
X136380952Y-66462857D01*
X136428571Y-66367619D01*
X136476190Y-66320000D01*
X136571428Y-66272380D01*
X136809523Y-66272380D01*
X136952380Y-66320000D01*
X137380952Y-66272380D02*
X137380952Y-67081904D01*
X137428571Y-67177142D01*
X137476190Y-67224761D01*
X137571428Y-67272380D01*
X137761904Y-67272380D01*
X137857142Y-67224761D01*
X137904761Y-67177142D01*
X137952380Y-67081904D01*
X137952380Y-66272380D01*
X131738095Y-69952380D02*
X131738095Y-70761904D01*
X131785714Y-70857142D01*
X131833333Y-70904761D01*
X131928571Y-70952380D01*
X132119047Y-70952380D01*
X132214285Y-70904761D01*
X132261904Y-70857142D01*
X132309523Y-70761904D01*
X132309523Y-69952380D01*
X133309523Y-70952380D02*
X132738095Y-70952380D01*
X133023809Y-70952380D02*
X133023809Y-69952380D01*
X132928571Y-70095238D01*
X132833333Y-70190476D01*
X132738095Y-70238095D01*
%TD*%
M02*
